<svg id="hashgraph" width="960" height="2040" xmlns="http://www.w3.org/2000/svg">
<g transform="translate(0,78960)">
<line x1="840" y1="-77520" x2="840" y2="-77400" style="stroke: #e91e63; stroke-width: 10"/>
<line x1="720" y1="-78720" x2="240" y2="-78600" style="stroke: #4caf50; stroke-width: 10"/>
<line x1="720" y1="-78720" x2="720" y2="-78360" style="stroke: #795548; stroke-width: 10"/>
<line x1="240" y1="-78120" x2="240" y2="-78000" style="stroke: #4caf50; stroke-width: 10"/>
<line x1="720" y1="-77520" x2="720" y2="-77400" style="stroke: #795548; stroke-width: 10"/>
<line x1="720" y1="-77640" x2="720" y2="-77520" style="stroke: #795548; stroke-width: 10"/>
<line x1="840" y1="-77400" x2="840" y2="-77280" style="stroke: #e91e63; stroke-width: 10"/>
<line x1="720" y1="-78120" x2="720" y2="-78000" style="stroke: #795548; stroke-width: 10"/>
<line x1="720" y1="-78000" x2="720" y2="-77880" style="stroke: #795548; stroke-width: 10"/>
<line x1="720" y1="-77400" x2="720" y2="-77280" style="stroke: #795548; stroke-width: 10"/>
<line x1="120" y1="-78000" x2="720" y2="-77520" style="stroke: #795548; stroke-width: 10"/>
<line x1="120" y1="-78000" x2="120" y2="-77880" style="stroke: #f06292; stroke-width: 10"/>
<line x1="840" y1="-78360" x2="480" y2="-78000" style="stroke: #ff9800; stroke-width: 10"/>
<line x1="840" y1="-78360" x2="840" y2="-78240" style="stroke: #e91e63; stroke-width: 10"/>
<line x1="240" y1="-77880" x2="360" y2="-77760" style="stroke: #9c27b0; stroke-width: 10"/>
<line x1="120" y1="-77880" x2="720" y2="-77400" style="stroke: #795548; stroke-width: 10"/>
<line x1="120" y1="-77880" x2="120" y2="-77760" style="stroke: red; stroke-width: 10"/>
<line x1="240" y1="-78720" x2="240" y2="-78600" style="stroke: red; stroke-width: 10"/>
<line x1="360" y1="-78000" x2="360" y2="-77880" style="stroke: #9c27b0; stroke-width: 10"/>
<line x1="720" y1="-78360" x2="720" y2="-78240" style="stroke: #795548; stroke-width: 10"/>
<line x1="360" y1="-77520" x2="840" y2="-77400" style="stroke: #e91e63; stroke-width: 10"/>
<line x1="360" y1="-77880" x2="360" y2="-77760" style="stroke: #9c27b0; stroke-width: 10"/>
<line x1="720" y1="-77760" x2="720" y2="-77640" style="stroke: #795548; stroke-width: 10"/>
<line x1="840" y1="-77880" x2="840" y2="-77760" style="stroke: #e91e63; stroke-width: 10"/>
<line x1="240" y1="-78360" x2="240" y2="-78240" style="stroke: #4caf50; stroke-width: 10"/>
<line x1="120" y1="-78720" x2="120" y2="-78600" style="stroke: #f06292; stroke-width: 10"/>
<line x1="480" y1="-78480" x2="840" y2="-78360" style="stroke: #e91e63; stroke-width: 10"/>
<line x1="480" y1="-78480" x2="480" y2="-78120" style="stroke: #ff9800; stroke-width: 10"/>
<line x1="840" y1="-78600" x2="840" y2="-78480" style="stroke: #e91e63; stroke-width: 10"/>
<line x1="840" y1="-77280" x2="840" y2="-77160" style="stroke: #e91e63; stroke-width: 10"/>
<line x1="840" y1="-78720" x2="840" y2="-78600" style="stroke: #e91e63; stroke-width: 10"/>
<line x1="480" y1="-77280" x2="480" y2="-77160" style="stroke: #ff9800; stroke-width: 10"/>
<line x1="480" y1="-78600" x2="480" y2="-78480" style="stroke: #ff9800; stroke-width: 10"/>
<line x1="840" y1="-77760" x2="840" y2="-77640" style="stroke: #e91e63; stroke-width: 10"/>
<line x1="840" y1="-77640" x2="840" y2="-77520" style="stroke: #e91e63; stroke-width: 10"/>
<line x1="360" y1="-77760" x2="360" y2="-77640" style="stroke: #9c27b0; stroke-width: 10"/>
<line x1="480" y1="-78120" x2="480" y2="-78000" style="stroke: #ff9800; stroke-width: 10"/>
<line x1="120" y1="-78600" x2="120" y2="-78480" style="stroke: red; stroke-width: 10"/>
<line x1="600" y1="-78000" x2="720" y2="-77880" style="stroke: #795548; stroke-width: 10"/>
<line x1="600" y1="-78000" x2="600" y2="-77280" style="stroke: #ffeb3b; stroke-width: 10"/>
<line x1="120" y1="-78120" x2="120" y2="-78000" style="stroke: #f06292; stroke-width: 10"/>
<line x1="480" y1="-78000" x2="480" y2="-77880" style="stroke: red; stroke-width: 10"/>
<line x1="480" y1="-77880" x2="720" y2="-77760" style="stroke: #795548; stroke-width: 10"/>
<line x1="480" y1="-77880" x2="480" y2="-77280" style="stroke: #ff9800; stroke-width: 10"/>
<line x1="720" y1="-77280" x2="720" y2="-77160" style="stroke: #795548; stroke-width: 10"/>
<line x1="840" y1="-78480" x2="840" y2="-78360" style="stroke: #e91e63; stroke-width: 10"/>
<line x1="600" y1="-78720" x2="600" y2="-78600" style="stroke: red; stroke-width: 10"/>
<line x1="120" y1="-78480" x2="240" y2="-78360" style="stroke: #4caf50; stroke-width: 10"/>
<line x1="120" y1="-78480" x2="120" y2="-78120" style="stroke: #f06292; stroke-width: 10"/>
<line x1="600" y1="-77280" x2="600" y2="-77160" style="stroke: #ffeb3b; stroke-width: 10"/>
<line x1="240" y1="-78600" x2="720" y2="-78360" style="stroke: #795548; stroke-width: 10"/>
<line x1="240" y1="-78600" x2="240" y2="-78480" style="stroke: #4caf50; stroke-width: 10"/>
<line x1="840" y1="-78240" x2="720" y2="-78120" style="stroke: #795548; stroke-width: 10"/>
<line x1="840" y1="-78240" x2="840" y2="-77880" style="stroke: #e91e63; stroke-width: 10"/>
<line x1="360" y1="-77640" x2="360" y2="-77520" style="stroke: red; stroke-width: 10"/>
<line x1="360" y1="-78240" x2="360" y2="-78120" style="stroke: #9c27b0; stroke-width: 10"/>
<line x1="720" y1="-78240" x2="600" y2="-78000" style="stroke: #ffeb3b; stroke-width: 10"/>
<line x1="720" y1="-78240" x2="720" y2="-78120" style="stroke: #795548; stroke-width: 10"/>
<line x1="360" y1="-78120" x2="120" y2="-77760" style="stroke: #f06292; stroke-width: 10"/>
<line x1="360" y1="-78120" x2="360" y2="-78000" style="stroke: #9c27b0; stroke-width: 10"/>
<line x1="600" y1="-78600" x2="240" y2="-78480" style="stroke: #4caf50; stroke-width: 10"/>
<line x1="600" y1="-78600" x2="600" y2="-78120" style="stroke: #ffeb3b; stroke-width: 10"/>
<line x1="360" y1="-78360" x2="480" y2="-77280" style="stroke: #ff9800; stroke-width: 10"/>
<line x1="360" y1="-78360" x2="360" y2="-78240" style="stroke: #9c27b0; stroke-width: 10"/>
<line x1="360" y1="-78480" x2="360" y2="-78360" style="stroke: #9c27b0; stroke-width: 10"/>
<line x1="240" y1="-78480" x2="240" y2="-78360" style="stroke: #4caf50; stroke-width: 10"/>
<line x1="240" y1="-78000" x2="360" y2="-77880" style="stroke: #9c27b0; stroke-width: 10"/>
<line x1="240" y1="-78000" x2="240" y2="-77880" style="stroke: red; stroke-width: 10"/>
<line x1="120" y1="-77760" x2="360" y2="-77640" style="stroke: #9c27b0; stroke-width: 10"/>
<line x1="600" y1="-78120" x2="600" y2="-78000" style="stroke: #ffeb3b; stroke-width: 10"/>
<line x1="480" y1="-78720" x2="480" y2="-78600" style="stroke: #ff9800; stroke-width: 10"/>
<line x1="240" y1="-78240" x2="840" y2="-77640" style="stroke: #e91e63; stroke-width: 10"/>
<line x1="240" y1="-78240" x2="240" y2="-78120" style="stroke: #4caf50; stroke-width: 10"/>
<line x1="720" y1="-77880" x2="720" y2="-77760" style="stroke: #795548; stroke-width: 10"/>
<rect x="670" y="-77570" width="100" height="100" fill="" fill-opacity="0.000000" stroke="#f2f2f2" stroke-width="6"  />
<rect x="790" y="-77450" width="100" height="100" fill="" fill-opacity="0.000000" stroke="#f2f2f2" stroke-width="6"  />
<rect x="670" y="-77450" width="100" height="100" fill="" fill-opacity="0.000000" stroke="#f2f2f2" stroke-width="6"  />
<rect x="790" y="-78410" width="100" height="100" fill="" fill-opacity="0.000000" stroke="#b9f6ca" stroke-width="6"  />
<rect x="70" y="-77930" width="100" height="100" fill="" fill-opacity="0.000000" stroke="#b9f6ca" stroke-width="6"  />
<rect x="310" y="-77930" width="100" height="100" fill="" fill-opacity="0.000000" stroke="#f2f2f2" stroke-width="6"  />
<rect x="190" y="-78410" width="100" height="100" fill="" fill-opacity="0.000000" stroke="#f2f2f2" stroke-width="6"  />
<rect x="430" y="-78530" width="100" height="100" fill="" fill-opacity="0.000000" stroke="#b9f6ca" stroke-width="6"  />
<rect x="790" y="-77330" width="100" height="100" fill="" fill-opacity="0.000000" stroke="#f2f2f2" stroke-width="6"  />
<rect x="790" y="-77690" width="100" height="100" fill="" fill-opacity="0.000000" stroke="#f2f2f2" stroke-width="6"  />
<rect x="310" y="-77810" width="100" height="100" fill="" fill-opacity="0.000000" stroke="#f2f2f2" stroke-width="6"  />
<rect x="70" y="-78650" width="100" height="100" fill="" fill-opacity="0.000000" stroke="#b9f6ca" stroke-width="6"  />
<rect x="550" y="-78050" width="100" height="100" fill="" fill-opacity="0.000000" stroke="#b9f6ca" stroke-width="6"  />
<rect x="670" y="-77330" width="100" height="100" fill="" fill-opacity="0.000000" stroke="#f2f2f2" stroke-width="6"  />
<rect x="790" y="-78290" width="100" height="100" fill="" fill-opacity="0.000000" stroke="#b9f6ca" stroke-width="6"  />
<rect x="310" y="-78170" width="100" height="100" fill="" fill-opacity="0.000000" stroke="#b9f6ca" stroke-width="6"  />
<rect x="310" y="-78410" width="100" height="100" fill="" fill-opacity="0.000000" stroke="#b9f6ca" stroke-width="6"  />
<rect x="190" y="-78050" width="100" height="100" fill="" fill-opacity="0.000000" stroke="#f2f2f2" stroke-width="6"  />
<rect x="190" y="-78290" width="100" height="100" fill="" fill-opacity="0.000000" stroke="#f2f2f2" stroke-width="6"  />
<circle cx="840" cy="-77520" r="40" fill="#f2f2f2" stroke="black" stroke-width="4"  />
<circle cx="720" cy="-78720" r="50" fill="#9e9e9e" stroke="green" stroke-width="10"  />
<circle cx="240" cy="-78120" r="40" fill="#f2f2f2" stroke="black" stroke-width="4"  />
<circle cx="720" cy="-77520" r="40" fill="#f2f2f2" stroke="black" stroke-width="4"  />
<circle cx="720" cy="-77640" r="40" fill="#f2f2f2" stroke="black" stroke-width="4"  />
<circle cx="840" cy="-77400" r="40" fill="#f2f2f2" stroke="black" stroke-width="4"  />
<circle cx="720" cy="-78120" r="40" fill="#b9f6ca" stroke="black" stroke-width="4"  />
<circle cx="840" cy="-77160" r="40" fill="#f2f2f2" stroke="black" stroke-width="4"  />
<circle cx="720" cy="-78000" r="40" fill="#b9f6ca" stroke="black" stroke-width="4"  />
<circle cx="720" cy="-77400" r="40" fill="#f2f2f2" stroke="black" stroke-width="4"  />
<circle cx="120" cy="-78000" r="40" fill="#b9f6ca" stroke="black" stroke-width="4"  />
<circle cx="840" cy="-78360" r="40" fill="#b9f6ca" stroke="black" stroke-width="4"  />
<circle cx="240" cy="-77880" r="50" fill="#e91e63" stroke="green" stroke-width="10"  />
<circle cx="120" cy="-77880" r="40" fill="#b9f6ca" stroke="black" stroke-width="4"  />
<circle cx="240" cy="-78720" r="40" fill="#b9f6ca" stroke="black" stroke-width="4"  />
<circle cx="360" cy="-78000" r="40" fill="#b9f6ca" stroke="black" stroke-width="4"  />
<circle cx="720" cy="-78360" r="40" fill="#b9f6ca" stroke="black" stroke-width="4"  />
<circle cx="360" cy="-77520" r="50" fill="#e91e63" stroke="green" stroke-width="10"  />
<circle cx="360" cy="-77880" r="40" fill="#f2f2f2" stroke="#e91e63" stroke-width="10"  />
<circle cx="720" cy="-77760" r="40" fill="#f2f2f2" stroke="#e91e63" stroke-width="10"  />
<circle cx="840" cy="-77880" r="40" fill="#b9f6ca" stroke="black" stroke-width="4"  />
<circle cx="240" cy="-78360" r="40" fill="#f2f2f2" stroke="#e91e63" stroke-width="10"  />
<circle cx="120" cy="-78720" r="40" fill="#b9f6ca" stroke="black" stroke-width="4"  />
<circle cx="480" cy="-78480" r="40" fill="#b9f6ca" stroke="black" stroke-width="4"  />
<circle cx="840" cy="-78600" r="40" fill="#b9f6ca" stroke="black" stroke-width="4"  />
<circle cx="600" cy="-77160" r="40" fill="#b9f6ca" stroke="black" stroke-width="4"  />
<circle cx="840" cy="-77280" r="40" fill="#f2f2f2" stroke="black" stroke-width="4"  />
<circle cx="840" cy="-78720" r="40" fill="#b9f6ca" stroke="black" stroke-width="4"  />
<circle cx="480" cy="-77280" r="40" fill="#b9f6ca" stroke="black" stroke-width="4"  />
<circle cx="480" cy="-78600" r="40" fill="#b9f6ca" stroke="black" stroke-width="4"  />
<circle cx="840" cy="-77760" r="40" fill="#b9f6ca" stroke="black" stroke-width="4"  />
<circle cx="840" cy="-77640" r="40" fill="#f2f2f2" stroke="#e91e63" stroke-width="10"  />
<circle cx="360" cy="-77760" r="40" fill="#f2f2f2" stroke="black" stroke-width="4"  />
<circle cx="480" cy="-78120" r="40" fill="#b9f6ca" stroke="black" stroke-width="4"  />
<circle cx="720" cy="-77160" r="40" fill="#f2f2f2" stroke="black" stroke-width="4"  />
<circle cx="120" cy="-78600" r="40" fill="#b9f6ca" stroke="black" stroke-width="4"  />
<circle cx="600" cy="-78000" r="40" fill="#b9f6ca" stroke="black" stroke-width="4"  />
<circle cx="120" cy="-78120" r="40" fill="#b9f6ca" stroke="black" stroke-width="4"  />
<circle cx="480" cy="-78000" r="40" fill="#b9f6ca" stroke="black" stroke-width="4"  />
<circle cx="480" cy="-77880" r="50" fill="#e91e63" stroke="red" stroke-width="10"  />
<circle cx="720" cy="-77280" r="40" fill="#f2f2f2" stroke="black" stroke-width="4"  />
<circle cx="840" cy="-78480" r="40" fill="#b9f6ca" stroke="black" stroke-width="4"  />
<circle cx="600" cy="-78720" r="40" fill="#b9f6ca" stroke="black" stroke-width="4"  />
<circle cx="120" cy="-78480" r="50" fill="#9e9e9e" stroke="green" stroke-width="10"  />
<circle cx="600" cy="-77280" r="40" fill="#b9f6ca" stroke="black" stroke-width="4"  />
<circle cx="240" cy="-78600" r="50" fill="#9e9e9e" stroke="red" stroke-width="10"  />
<circle cx="840" cy="-78240" r="40" fill="#b9f6ca" stroke="black" stroke-width="4"  />
<circle cx="360" cy="-77640" r="40" fill="#f2f2f2" stroke="black" stroke-width="4"  />
<circle cx="360" cy="-78240" r="40" fill="#b9f6ca" stroke="black" stroke-width="4"  />
<circle cx="720" cy="-78240" r="40" fill="#b9f6ca" stroke="black" stroke-width="4"  />
<circle cx="360" cy="-78120" r="40" fill="#b9f6ca" stroke="black" stroke-width="4"  />
<circle cx="600" cy="-78600" r="50" fill="#9e9e9e" stroke="green" stroke-width="10"  />
<circle cx="360" cy="-78360" r="40" fill="#b9f6ca" stroke="black" stroke-width="4"  />
<circle cx="360" cy="-78480" r="40" fill="#b9f6ca" stroke="black" stroke-width="4"  />
<circle cx="240" cy="-78480" r="40" fill="#b9f6ca" stroke="black" stroke-width="4"  />
<circle cx="240" cy="-78000" r="40" fill="#f2f2f2" stroke="black" stroke-width="4"  />
<circle cx="120" cy="-77760" r="50" fill="#e91e63" stroke="red" stroke-width="10"  />
<circle cx="600" cy="-78120" r="40" fill="#b9f6ca" stroke="black" stroke-width="4"  />
<circle cx="480" cy="-77160" r="40" fill="#b9f6ca" stroke="black" stroke-width="4"  />
<circle cx="480" cy="-78720" r="40" fill="#b9f6ca" stroke="black" stroke-width="4"  />
<circle cx="240" cy="-78240" r="40" fill="#f2f2f2" stroke="black" stroke-width="4"  />
<circle cx="720" cy="-77880" r="40" fill="#b9f6ca" stroke="black" stroke-width="4"  />
<text x="840" y="-77520" text-anchor="middle" dominant-baseline="middle" fill="black"> 40:41 </text>
<text x="840" y="-77500" text-anchor="middle" dominant-baseline="middle" fill="black"> 2884 </text>
<text x="840" y="-77460" text-anchor="middle" dominant-baseline="middle" fill="orange"> 0000001:1 </text>
<text x="840" y="-77440" text-anchor="middle" dominant-baseline="middle" fill="green"> 0000001:1 </text>
<text x="720" y="-78720" text-anchor="middle" dominant-baseline="middle" fill="black"> 41:43 </text>
<text x="720" y="-78700" text-anchor="middle" dominant-baseline="middle" fill="black"> 2953 </text>
<text x="720" y="-78660" text-anchor="middle" dominant-baseline="middle" fill="orange"> 0000010:1 </text>
<text x="720" y="-78640" text-anchor="middle" dominant-baseline="middle" fill="red"> 0110111:5 </text>
<text x="720" y="-78620" text-anchor="middle" dominant-baseline="middle" fill="blue"> 1111111:7 </text>
<text x="640" y="-78720" text-anchor="middle" dominant-baseline="middle" fill="blue"> yes 7 </text>
<text x="240" y="-78120" text-anchor="middle" dominant-baseline="middle" fill="black"> 40:41 </text>
<text x="240" y="-78100" text-anchor="middle" dominant-baseline="middle" fill="black"> 2936 </text>
<text x="240" y="-78060" text-anchor="middle" dominant-baseline="middle" fill="orange"> 0110000:2 </text>
<text x="240" y="-78040" text-anchor="middle" dominant-baseline="middle" fill="green"> 0110000:2 </text>
<text x="720" y="-77520" text-anchor="middle" dominant-baseline="middle" fill="black"> 40:41 </text>
<text x="720" y="-77500" text-anchor="middle" dominant-baseline="middle" fill="black"> 2893 </text>
<text x="720" y="-77460" text-anchor="middle" dominant-baseline="middle" fill="orange"> 0000111:3 </text>
<text x="720" y="-77440" text-anchor="middle" dominant-baseline="middle" fill="green"> 0000010:1 </text>
<text x="720" y="-77640" text-anchor="middle" dominant-baseline="middle" fill="black"> 40:41 </text>
<text x="720" y="-77620" text-anchor="middle" dominant-baseline="middle" fill="black"> 2892 </text>
<text x="720" y="-77580" text-anchor="middle" dominant-baseline="middle" fill="orange"> 0000111:3 </text>
<text x="720" y="-77560" text-anchor="middle" dominant-baseline="middle" fill="green"> 0000110:2 </text>
<text x="840" y="-77400" text-anchor="middle" dominant-baseline="middle" fill="black"> 40:41 </text>
<text x="840" y="-77380" text-anchor="middle" dominant-baseline="middle" fill="black"> 2883 </text>
<text x="840" y="-77340" text-anchor="middle" dominant-baseline="middle" fill="orange"> 0000001:1 </text>
<text x="840" y="-77320" text-anchor="middle" dominant-baseline="middle" fill="green"> 0000001:1 </text>
<text x="720" y="-78120" text-anchor="middle" dominant-baseline="middle" fill="black"> 40:43 </text>
<text x="720" y="-78100" text-anchor="middle" dominant-baseline="middle" fill="black"> 2910 </text>
<text x="720" y="-78060" text-anchor="middle" dominant-baseline="middle" fill="orange"> 0000111:3 </text>
<text x="720" y="-78040" text-anchor="middle" dominant-baseline="middle" fill="green"> 0000110:2 </text>
<text x="840" y="-77160" text-anchor="middle" dominant-baseline="middle" fill="black"> 40:41 </text>
<text x="840" y="-77140" text-anchor="middle" dominant-baseline="middle" fill="black"> 2876 </text>
<text x="840" y="-77100" text-anchor="middle" dominant-baseline="middle" fill="orange"> 0000001:1 </text>
<text x="720" y="-78000" text-anchor="middle" dominant-baseline="middle" fill="black"> 40:43 </text>
<text x="720" y="-77980" text-anchor="middle" dominant-baseline="middle" fill="black"> 2911 </text>
<text x="720" y="-77940" text-anchor="middle" dominant-baseline="middle" fill="orange"> 0000111:3 </text>
<text x="720" y="-77920" text-anchor="middle" dominant-baseline="middle" fill="green"> 0000110:2 </text>
<text x="720" y="-77400" text-anchor="middle" dominant-baseline="middle" fill="black"> 40:41 </text>
<text x="720" y="-77380" text-anchor="middle" dominant-baseline="middle" fill="black"> 2894 </text>
<text x="720" y="-77340" text-anchor="middle" dominant-baseline="middle" fill="orange"> 0000111:3 </text>
<text x="720" y="-77320" text-anchor="middle" dominant-baseline="middle" fill="green"> 0000010:1 </text>
<text x="120" y="-78000" text-anchor="middle" dominant-baseline="middle" fill="black"> 40:43 </text>
<text x="120" y="-77980" text-anchor="middle" dominant-baseline="middle" fill="black"> 2968 </text>
<text x="120" y="-77940" text-anchor="middle" dominant-baseline="middle" fill="orange"> 1000111:4 </text>
<text x="120" y="-77920" text-anchor="middle" dominant-baseline="middle" fill="green"> 1000010:2 </text>
<text x="840" y="-78360" text-anchor="middle" dominant-baseline="middle" fill="black"> 40:43 </text>
<text x="840" y="-78340" text-anchor="middle" dominant-baseline="middle" fill="black"> 2929 </text>
<text x="840" y="-78300" text-anchor="middle" dominant-baseline="middle" fill="orange"> 0001111:4 </text>
<text x="840" y="-78280" text-anchor="middle" dominant-baseline="middle" fill="green"> 0000111:3 </text>
<text x="240" y="-77880" text-anchor="middle" dominant-baseline="middle" fill="black"> 40:41 </text>
<text x="240" y="-77860" text-anchor="middle" dominant-baseline="middle" fill="black"> 2938 </text>
<text x="240" y="-77820" text-anchor="middle" dominant-baseline="middle" fill="orange"> 0100000:1 </text>
<text x="240" y="-77800" text-anchor="middle" dominant-baseline="middle" fill="red"> 1110111:6 </text>
<text x="240" y="-77780" text-anchor="middle" dominant-baseline="middle" fill="blue"> 1111111:7 </text>
<text x="160" y="-77880" text-anchor="middle" dominant-baseline="middle" fill="blue"> yes 7 </text>
<text x="120" y="-77880" text-anchor="middle" dominant-baseline="middle" fill="black"> 40:43 </text>
<text x="120" y="-77860" text-anchor="middle" dominant-baseline="middle" fill="black"> 2963 </text>
<text x="120" y="-77820" text-anchor="middle" dominant-baseline="middle" fill="orange"> 1000111:4 </text>
<text x="120" y="-77800" text-anchor="middle" dominant-baseline="middle" fill="green"> 1000010:2 </text>
<text x="240" y="-78720" text-anchor="middle" dominant-baseline="middle" fill="black"> 41:43 </text>
<text x="240" y="-78700" text-anchor="middle" dominant-baseline="middle" fill="black"> 2990 </text>
<text x="240" y="-78660" text-anchor="middle" dominant-baseline="middle" fill="orange"> 0100000:1 </text>
<text x="360" y="-78000" text-anchor="middle" dominant-baseline="middle" fill="black"> 40:43 </text>
<text x="360" y="-77980" text-anchor="middle" dominant-baseline="middle" fill="black"> 2977 </text>
<text x="360" y="-77940" text-anchor="middle" dominant-baseline="middle" fill="orange"> 0010000:1 </text>
<text x="360" y="-77920" text-anchor="middle" dominant-baseline="middle" fill="green"> 0010000:1 </text>
<text x="720" y="-78360" text-anchor="middle" dominant-baseline="middle" fill="black"> 40:43 </text>
<text x="720" y="-78340" text-anchor="middle" dominant-baseline="middle" fill="black"> 2954 </text>
<text x="720" y="-78300" text-anchor="middle" dominant-baseline="middle" fill="orange"> 0000111:3 </text>
<text x="720" y="-78280" text-anchor="middle" dominant-baseline="middle" fill="green"> 0000110:2 </text>
<text x="360" y="-77520" text-anchor="middle" dominant-baseline="middle" fill="black"> 40:41 </text>
<text x="360" y="-77500" text-anchor="middle" dominant-baseline="middle" fill="black"> 2943 </text>
<text x="360" y="-77460" text-anchor="middle" dominant-baseline="middle" fill="orange"> 0010000:1 </text>
<text x="360" y="-77440" text-anchor="middle" dominant-baseline="middle" fill="red"> 1110111:6 </text>
<text x="360" y="-77420" text-anchor="middle" dominant-baseline="middle" fill="blue"> 1111111:7 </text>
<text x="280" y="-77520" text-anchor="middle" dominant-baseline="middle" fill="blue"> yes 7 </text>
<text x="360" y="-77880" text-anchor="middle" dominant-baseline="middle" fill="black"> 40:41 </text>
<text x="360" y="-77860" text-anchor="middle" dominant-baseline="middle" fill="black"> 2945 </text>
<text x="360" y="-77820" text-anchor="middle" dominant-baseline="middle" fill="orange"> 0010000:1 </text>
<text x="360" y="-77800" text-anchor="middle" dominant-baseline="middle" fill="green"> 0010000:1 </text>
<text x="720" y="-77760" text-anchor="middle" dominant-baseline="middle" fill="black"> 40:41 </text>
<text x="720" y="-77740" text-anchor="middle" dominant-baseline="middle" fill="black"> 2891 </text>
<text x="720" y="-77700" text-anchor="middle" dominant-baseline="middle" fill="orange"> 0000111:3 </text>
<text x="720" y="-77680" text-anchor="middle" dominant-baseline="middle" fill="green"> 0000110:2 </text>
<text x="840" y="-77880" text-anchor="middle" dominant-baseline="middle" fill="black"> 40:43 </text>
<text x="840" y="-77860" text-anchor="middle" dominant-baseline="middle" fill="black"> 2889 </text>
<text x="840" y="-77820" text-anchor="middle" dominant-baseline="middle" fill="orange"> 0000001:1 </text>
<text x="840" y="-77800" text-anchor="middle" dominant-baseline="middle" fill="green"> 0000001:1 </text>
<text x="240" y="-78360" text-anchor="middle" dominant-baseline="middle" fill="black"> 40:41 </text>
<text x="240" y="-78340" text-anchor="middle" dominant-baseline="middle" fill="black"> 2934 </text>
<text x="240" y="-78300" text-anchor="middle" dominant-baseline="middle" fill="orange"> 0110001:3 </text>
<text x="240" y="-78280" text-anchor="middle" dominant-baseline="middle" fill="green"> 0110001:3 </text>
<text x="120" y="-78720" text-anchor="middle" dominant-baseline="middle" fill="black"> 41:43 </text>
<text x="120" y="-78700" text-anchor="middle" dominant-baseline="middle" fill="black"> 2970 </text>
<text x="120" y="-78660" text-anchor="middle" dominant-baseline="middle" fill="orange"> 1000000:1 </text>
<text x="120" y="-78640" text-anchor="middle" dominant-baseline="middle" fill="green"> 1000000:1 </text>
<text x="480" y="-78480" text-anchor="middle" dominant-baseline="middle" fill="black"> 40:43 </text>
<text x="480" y="-78460" text-anchor="middle" dominant-baseline="middle" fill="black"> 2992 </text>
<text x="480" y="-78420" text-anchor="middle" dominant-baseline="middle" fill="orange"> 0001111:4 </text>
<text x="480" y="-78400" text-anchor="middle" dominant-baseline="middle" fill="green"> 0001111:4 </text>
<text x="840" y="-78600" text-anchor="middle" dominant-baseline="middle" fill="black"> 40:43 </text>
<text x="840" y="-78580" text-anchor="middle" dominant-baseline="middle" fill="black"> 2931 </text>
<text x="840" y="-78540" text-anchor="middle" dominant-baseline="middle" fill="orange"> 0001111:4 </text>
<text x="840" y="-78520" text-anchor="middle" dominant-baseline="middle" fill="green"> 0000111:3 </text>
<text x="600" y="-77160" text-anchor="middle" dominant-baseline="middle" fill="black"> 40:43 </text>
<text x="600" y="-77140" text-anchor="middle" dominant-baseline="middle" fill="black"> 2949 </text>
<text x="600" y="-77100" text-anchor="middle" dominant-baseline="middle" fill="orange"> 0000110:2 </text>
<text x="600" y="-77080" text-anchor="middle" dominant-baseline="middle" fill="green"> 0000110:2 </text>
<text x="840" y="-77280" text-anchor="middle" dominant-baseline="middle" fill="black"> 40:41 </text>
<text x="840" y="-77260" text-anchor="middle" dominant-baseline="middle" fill="black"> 2880 </text>
<text x="840" y="-77220" text-anchor="middle" dominant-baseline="middle" fill="orange"> 0000001:1 </text>
<text x="840" y="-77200" text-anchor="middle" dominant-baseline="middle" fill="green"> 0000001:1 </text>
<text x="840" y="-78720" text-anchor="middle" dominant-baseline="middle" fill="black"> 40:43 </text>
<text x="840" y="-78700" text-anchor="middle" dominant-baseline="middle" fill="black"> 2932 </text>
<text x="840" y="-78660" text-anchor="middle" dominant-baseline="middle" fill="orange"> 0001111:4 </text>
<text x="840" y="-78640" text-anchor="middle" dominant-baseline="middle" fill="green"> 0000111:3 </text>
<text x="480" y="-77280" text-anchor="middle" dominant-baseline="middle" fill="black"> 39:43 </text>
<text x="480" y="-77260" text-anchor="middle" dominant-baseline="middle" fill="black"> 2923 </text>
<text x="480" y="-77220" text-anchor="middle" dominant-baseline="middle" fill="orange"> 1101111:6 </text>
<text x="480" y="-77200" text-anchor="middle" dominant-baseline="middle" fill="green"> 1001011:4 </text>
<text x="480" y="-78600" text-anchor="middle" dominant-baseline="middle" fill="black"> 40:43 </text>
<text x="480" y="-78580" text-anchor="middle" dominant-baseline="middle" fill="black"> 2991 </text>
<text x="480" y="-78540" text-anchor="middle" dominant-baseline="middle" fill="orange"> 0001111:4 </text>
<text x="480" y="-78520" text-anchor="middle" dominant-baseline="middle" fill="green"> 0001111:4 </text>
<text x="840" y="-77760" text-anchor="middle" dominant-baseline="middle" fill="black"> 40:43 </text>
<text x="840" y="-77740" text-anchor="middle" dominant-baseline="middle" fill="black"> 2888 </text>
<text x="840" y="-77700" text-anchor="middle" dominant-baseline="middle" fill="orange"> 0000001:1 </text>
<text x="840" y="-77680" text-anchor="middle" dominant-baseline="middle" fill="green"> 0000001:1 </text>
<text x="840" y="-77640" text-anchor="middle" dominant-baseline="middle" fill="black"> 40:41 </text>
<text x="840" y="-77620" text-anchor="middle" dominant-baseline="middle" fill="black"> 2887 </text>
<text x="840" y="-77580" text-anchor="middle" dominant-baseline="middle" fill="orange"> 0000001:1 </text>
<text x="840" y="-77560" text-anchor="middle" dominant-baseline="middle" fill="green"> 0000001:1 </text>
<text x="360" y="-77760" text-anchor="middle" dominant-baseline="middle" fill="black"> 40:41 </text>
<text x="360" y="-77740" text-anchor="middle" dominant-baseline="middle" fill="black"> 2941 </text>
<text x="360" y="-77700" text-anchor="middle" dominant-baseline="middle" fill="orange"> 0010000:1 </text>
<text x="360" y="-77680" text-anchor="middle" dominant-baseline="middle" fill="green"> 0010000:1 </text>
<text x="480" y="-78120" text-anchor="middle" dominant-baseline="middle" fill="black"> 40:43 </text>
<text x="480" y="-78100" text-anchor="middle" dominant-baseline="middle" fill="black"> 2993 </text>
<text x="480" y="-78060" text-anchor="middle" dominant-baseline="middle" fill="orange"> 0001000:1 </text>
<text x="720" y="-77160" text-anchor="middle" dominant-baseline="middle" fill="black"> 40:41 </text>
<text x="720" y="-77140" text-anchor="middle" dominant-baseline="middle" fill="black"> 2896 </text>
<text x="720" y="-77100" text-anchor="middle" dominant-baseline="middle" fill="orange"> 0000110:2 </text>
<text x="720" y="-77080" text-anchor="middle" dominant-baseline="middle" fill="green"> 0000010:1 </text>
<text x="120" y="-78600" text-anchor="middle" dominant-baseline="middle" fill="black"> 41:43 </text>
<text x="120" y="-78580" text-anchor="middle" dominant-baseline="middle" fill="black"> 2965 </text>
<text x="120" y="-78540" text-anchor="middle" dominant-baseline="middle" fill="orange"> 1000000:1 </text>
<text x="120" y="-78520" text-anchor="middle" dominant-baseline="middle" fill="green"> 1000000:1 </text>
<text x="600" y="-78000" text-anchor="middle" dominant-baseline="middle" fill="black"> 40:43 </text>
<text x="600" y="-77980" text-anchor="middle" dominant-baseline="middle" fill="black"> 2956 </text>
<text x="600" y="-77940" text-anchor="middle" dominant-baseline="middle" fill="orange"> 0000111:3 </text>
<text x="600" y="-77920" text-anchor="middle" dominant-baseline="middle" fill="green"> 0000110:2 </text>
<text x="120" y="-78120" text-anchor="middle" dominant-baseline="middle" fill="black"> 40:43 </text>
<text x="120" y="-78100" text-anchor="middle" dominant-baseline="middle" fill="black"> 2967 </text>
<text x="120" y="-78060" text-anchor="middle" dominant-baseline="middle" fill="orange"> 1000111:4 </text>
<text x="120" y="-78040" text-anchor="middle" dominant-baseline="middle" fill="green"> 1000010:2 </text>
<text x="480" y="-78000" text-anchor="middle" dominant-baseline="middle" fill="black"> 40:43 </text>
<text x="480" y="-77980" text-anchor="middle" dominant-baseline="middle" fill="black"> 2921 </text>
<text x="480" y="-77940" text-anchor="middle" dominant-baseline="middle" fill="orange"> 0001000:1 </text>
<text x="480" y="-77880" text-anchor="middle" dominant-baseline="middle" fill="black"> 40:43 </text>
<text x="480" y="-77860" text-anchor="middle" dominant-baseline="middle" fill="black"> 2922 </text>
<text x="480" y="-77820" text-anchor="middle" dominant-baseline="middle" fill="orange"> 0001000:1 </text>
<text x="480" y="-77800" text-anchor="middle" dominant-baseline="middle" fill="red"> 1101111:6 </text>
<text x="480" y="-77780" text-anchor="middle" dominant-baseline="middle" fill="blue"> 0001000:1 </text>
<text x="400" y="-77880" text-anchor="middle" dominant-baseline="middle" fill="blue"> yes 1 </text>
<text x="720" y="-77280" text-anchor="middle" dominant-baseline="middle" fill="black"> 40:41 </text>
<text x="720" y="-77260" text-anchor="middle" dominant-baseline="middle" fill="black"> 2895 </text>
<text x="720" y="-77220" text-anchor="middle" dominant-baseline="middle" fill="orange"> 0000111:3 </text>
<text x="720" y="-77200" text-anchor="middle" dominant-baseline="middle" fill="green"> 0000010:1 </text>
<text x="840" y="-78480" text-anchor="middle" dominant-baseline="middle" fill="black"> 40:43 </text>
<text x="840" y="-78460" text-anchor="middle" dominant-baseline="middle" fill="black"> 2930 </text>
<text x="840" y="-78420" text-anchor="middle" dominant-baseline="middle" fill="orange"> 0001111:4 </text>
<text x="840" y="-78400" text-anchor="middle" dominant-baseline="middle" fill="green"> 0000111:3 </text>
<text x="600" y="-78720" text-anchor="middle" dominant-baseline="middle" fill="black"> 41:43 </text>
<text x="600" y="-78700" text-anchor="middle" dominant-baseline="middle" fill="black"> 2984 </text>
<text x="600" y="-78660" text-anchor="middle" dominant-baseline="middle" fill="orange"> 0000100:1 </text>
<text x="120" y="-78480" text-anchor="middle" dominant-baseline="middle" fill="black"> 41:43 </text>
<text x="120" y="-78460" text-anchor="middle" dominant-baseline="middle" fill="black"> 2966 </text>
<text x="120" y="-78420" text-anchor="middle" dominant-baseline="middle" fill="orange"> 1000000:1 </text>
<text x="120" y="-78400" text-anchor="middle" dominant-baseline="middle" fill="red"> 1110011:5 </text>
<text x="120" y="-78380" text-anchor="middle" dominant-baseline="middle" fill="blue"> 1111111:7 </text>
<text x="40" y="-78480" text-anchor="middle" dominant-baseline="middle" fill="blue"> yes 7 </text>
<text x="600" y="-77280" text-anchor="middle" dominant-baseline="middle" fill="black"> 40:43 </text>
<text x="600" y="-77260" text-anchor="middle" dominant-baseline="middle" fill="black"> 2948 </text>
<text x="600" y="-77220" text-anchor="middle" dominant-baseline="middle" fill="orange"> 0000110:2 </text>
<text x="600" y="-77200" text-anchor="middle" dominant-baseline="middle" fill="green"> 0000110:2 </text>
<text x="240" y="-78600" text-anchor="middle" dominant-baseline="middle" fill="black"> 41:43 </text>
<text x="240" y="-78580" text-anchor="middle" dominant-baseline="middle" fill="black"> 2957 </text>
<text x="240" y="-78540" text-anchor="middle" dominant-baseline="middle" fill="orange"> 0100000:1 </text>
<text x="240" y="-78520" text-anchor="middle" dominant-baseline="middle" fill="red"> 0110111:5 </text>
<text x="240" y="-78500" text-anchor="middle" dominant-baseline="middle" fill="blue"> 1110001:4 </text>
<text x="160" y="-78600" text-anchor="middle" dominant-baseline="middle" fill="blue"> yes 4 </text>
<text x="840" y="-78240" text-anchor="middle" dominant-baseline="middle" fill="black"> 40:43 </text>
<text x="840" y="-78220" text-anchor="middle" dominant-baseline="middle" fill="black"> 2912 </text>
<text x="840" y="-78180" text-anchor="middle" dominant-baseline="middle" fill="orange"> 0000111:3 </text>
<text x="840" y="-78160" text-anchor="middle" dominant-baseline="middle" fill="green"> 0000111:3 </text>
<text x="360" y="-77640" text-anchor="middle" dominant-baseline="middle" fill="black"> 40:41 </text>
<text x="360" y="-77620" text-anchor="middle" dominant-baseline="middle" fill="black"> 2942 </text>
<text x="360" y="-77580" text-anchor="middle" dominant-baseline="middle" fill="orange"> 0010000:1 </text>
<text x="360" y="-78240" text-anchor="middle" dominant-baseline="middle" fill="black"> 40:43 </text>
<text x="360" y="-78220" text-anchor="middle" dominant-baseline="middle" fill="black"> 2975 </text>
<text x="360" y="-78180" text-anchor="middle" dominant-baseline="middle" fill="orange"> 1010000:2 </text>
<text x="360" y="-78160" text-anchor="middle" dominant-baseline="middle" fill="green"> 0010000:1 </text>
<text x="720" y="-78240" text-anchor="middle" dominant-baseline="middle" fill="black"> 40:43 </text>
<text x="720" y="-78220" text-anchor="middle" dominant-baseline="middle" fill="black"> 2955 </text>
<text x="720" y="-78180" text-anchor="middle" dominant-baseline="middle" fill="orange"> 0000111:3 </text>
<text x="720" y="-78160" text-anchor="middle" dominant-baseline="middle" fill="green"> 0000110:2 </text>
<text x="360" y="-78120" text-anchor="middle" dominant-baseline="middle" fill="black"> 40:43 </text>
<text x="360" y="-78100" text-anchor="middle" dominant-baseline="middle" fill="black"> 2976 </text>
<text x="360" y="-78060" text-anchor="middle" dominant-baseline="middle" fill="orange"> 1010000:2 </text>
<text x="360" y="-78040" text-anchor="middle" dominant-baseline="middle" fill="green"> 0010000:1 </text>
<text x="600" y="-78600" text-anchor="middle" dominant-baseline="middle" fill="black"> 41:43 </text>
<text x="600" y="-78580" text-anchor="middle" dominant-baseline="middle" fill="black"> 2985 </text>
<text x="600" y="-78540" text-anchor="middle" dominant-baseline="middle" fill="orange"> 0000100:1 </text>
<text x="600" y="-78520" text-anchor="middle" dominant-baseline="middle" fill="red"> 0110111:5 </text>
<text x="600" y="-78500" text-anchor="middle" dominant-baseline="middle" fill="blue"> 1101111:6 </text>
<text x="520" y="-78600" text-anchor="middle" dominant-baseline="middle" fill="blue"> yes 6 </text>
<text x="360" y="-78360" text-anchor="middle" dominant-baseline="middle" fill="black"> 40:43 </text>
<text x="360" y="-78340" text-anchor="middle" dominant-baseline="middle" fill="black"> 2974 </text>
<text x="360" y="-78300" text-anchor="middle" dominant-baseline="middle" fill="orange"> 1010000:2 </text>
<text x="360" y="-78280" text-anchor="middle" dominant-baseline="middle" fill="green"> 0010000:1 </text>
<text x="360" y="-78480" text-anchor="middle" dominant-baseline="middle" fill="black"> 40:43 </text>
<text x="360" y="-78460" text-anchor="middle" dominant-baseline="middle" fill="black"> 2973 </text>
<text x="360" y="-78420" text-anchor="middle" dominant-baseline="middle" fill="orange"> 1010000:2 </text>
<text x="360" y="-78400" text-anchor="middle" dominant-baseline="middle" fill="green"> 0010000:1 </text>
<text x="240" y="-78480" text-anchor="middle" dominant-baseline="middle" fill="black"> 40:43 </text>
<text x="240" y="-78460" text-anchor="middle" dominant-baseline="middle" fill="black"> 2933 </text>
<text x="240" y="-78420" text-anchor="middle" dominant-baseline="middle" fill="orange"> 0110001:3 </text>
<text x="240" y="-78400" text-anchor="middle" dominant-baseline="middle" fill="green"> 0110001:3 </text>
<text x="240" y="-78000" text-anchor="middle" dominant-baseline="middle" fill="black"> 40:41 </text>
<text x="240" y="-77980" text-anchor="middle" dominant-baseline="middle" fill="black"> 2937 </text>
<text x="240" y="-77940" text-anchor="middle" dominant-baseline="middle" fill="orange"> 0110000:2 </text>
<text x="240" y="-77920" text-anchor="middle" dominant-baseline="middle" fill="green"> 0110000:2 </text>
<text x="120" y="-77760" text-anchor="middle" dominant-baseline="middle" fill="black"> 40:43 </text>
<text x="120" y="-77740" text-anchor="middle" dominant-baseline="middle" fill="black"> 2964 </text>
<text x="120" y="-77700" text-anchor="middle" dominant-baseline="middle" fill="orange"> 1000000:1 </text>
<text x="120" y="-77680" text-anchor="middle" dominant-baseline="middle" fill="red"> 1111111:7 </text>
<text x="120" y="-77660" text-anchor="middle" dominant-baseline="middle" fill="blue"> 1000000:1 </text>
<text x="40" y="-77760" text-anchor="middle" dominant-baseline="middle" fill="blue"> yes 1 </text>
<text x="600" y="-78120" text-anchor="middle" dominant-baseline="middle" fill="black"> 40:43 </text>
<text x="600" y="-78100" text-anchor="middle" dominant-baseline="middle" fill="black"> 2980 </text>
<text x="600" y="-78060" text-anchor="middle" dominant-baseline="middle" fill="orange"> 0000111:3 </text>
<text x="600" y="-78040" text-anchor="middle" dominant-baseline="middle" fill="green"> 0000110:2 </text>
<text x="480" y="-77160" text-anchor="middle" dominant-baseline="middle" fill="black"> 39:43 </text>
<text x="480" y="-77140" text-anchor="middle" dominant-baseline="middle" fill="black"> 2924 </text>
<text x="480" y="-77100" text-anchor="middle" dominant-baseline="middle" fill="orange"> 1101111:6 </text>
<text x="480" y="-77080" text-anchor="middle" dominant-baseline="middle" fill="green"> 1001011:4 </text>
<text x="480" y="-78720" text-anchor="middle" dominant-baseline="middle" fill="black"> 40:43 </text>
<text x="480" y="-78700" text-anchor="middle" dominant-baseline="middle" fill="black"> 3014 </text>
<text x="480" y="-78660" text-anchor="middle" dominant-baseline="middle" fill="orange"> 0001111:4 </text>
<text x="480" y="-78640" text-anchor="middle" dominant-baseline="middle" fill="green"> 0001111:4 </text>
<text x="240" y="-78240" text-anchor="middle" dominant-baseline="middle" fill="black"> 40:41 </text>
<text x="240" y="-78220" text-anchor="middle" dominant-baseline="middle" fill="black"> 2935 </text>
<text x="240" y="-78180" text-anchor="middle" dominant-baseline="middle" fill="orange"> 0110001:3 </text>
<text x="240" y="-78160" text-anchor="middle" dominant-baseline="middle" fill="green"> 0110001:3 </text>
<text x="720" y="-77880" text-anchor="middle" dominant-baseline="middle" fill="black"> 40:43 </text>
<text x="720" y="-77860" text-anchor="middle" dominant-baseline="middle" fill="black"> 2890 </text>
<text x="720" y="-77820" text-anchor="middle" dominant-baseline="middle" fill="orange"> 0000111:3 </text>
<text x="720" y="-77800" text-anchor="middle" dominant-baseline="middle" fill="green"> 0000110:2 </text>
</g>
</svg>
