<svg id="hashgraph" width="960" height="2040" xmlns="http://www.w3.org/2000/svg">
<g transform="translate(0,678960)">
<line x1="360" y1="-678360" x2="720" y2="-678240" style="stroke: #795548; stroke-width: 10"/>
<line x1="360" y1="-678360" x2="360" y2="-677520" style="stroke: #9c27b0; stroke-width: 10"/>
<line x1="840" y1="-678600" x2="840" y2="-678480" style="stroke: #e91e63; stroke-width: 10"/>
<line x1="240" y1="-677400" x2="600" y2="-677280" style="stroke: #ffeb3b; stroke-width: 10"/>
<line x1="120" y1="-677520" x2="120" y2="-677400" style="stroke: #f06292; stroke-width: 10"/>
<line x1="120" y1="-678120" x2="480" y2="-677400" style="stroke: #ff9800; stroke-width: 10"/>
<line x1="120" y1="-678120" x2="120" y2="-678000" style="stroke: #f06292; stroke-width: 10"/>
<line x1="600" y1="-678600" x2="840" y2="-678480" style="stroke: #e91e63; stroke-width: 10"/>
<line x1="600" y1="-678600" x2="600" y2="-678120" style="stroke: #ffeb3b; stroke-width: 10"/>
<line x1="720" y1="-677280" x2="720" y2="-677160" style="stroke: #795548; stroke-width: 10"/>
<line x1="360" y1="-677400" x2="360" y2="-677280" style="stroke: #9c27b0; stroke-width: 10"/>
<line x1="480" y1="-678240" x2="120" y2="-678120" style="stroke: #f06292; stroke-width: 10"/>
<line x1="480" y1="-678240" x2="480" y2="-677640" style="stroke: #ff9800; stroke-width: 10"/>
<line x1="600" y1="-677400" x2="600" y2="-677280" style="stroke: #ffeb3b; stroke-width: 10"/>
<line x1="840" y1="-677640" x2="240" y2="-677520" style="stroke: #4caf50; stroke-width: 10"/>
<line x1="120" y1="-677280" x2="120" y2="-677160" style="stroke: #f06292; stroke-width: 10"/>
<line x1="120" y1="-678000" x2="480" y2="-677280" style="stroke: #ff9800; stroke-width: 10"/>
<line x1="120" y1="-678000" x2="120" y2="-677880" style="stroke: red; stroke-width: 10"/>
<line x1="600" y1="-677880" x2="720" y2="-677160" style="stroke: #795548; stroke-width: 10"/>
<line x1="600" y1="-677880" x2="600" y2="-677760" style="stroke: #ffeb3b; stroke-width: 10"/>
<line x1="840" y1="-677760" x2="840" y2="-677640" style="stroke: red; stroke-width: 10"/>
<line x1="840" y1="-678720" x2="840" y2="-678600" style="stroke: #e91e63; stroke-width: 10"/>
<line x1="240" y1="-677880" x2="240" y2="-677760" style="stroke: #4caf50; stroke-width: 10"/>
<line x1="720" y1="-678480" x2="360" y2="-678360" style="stroke: #9c27b0; stroke-width: 10"/>
<line x1="720" y1="-678480" x2="720" y2="-678360" style="stroke: #795548; stroke-width: 10"/>
<line x1="360" y1="-677280" x2="360" y2="-677160" style="stroke: #9c27b0; stroke-width: 10"/>
<line x1="120" y1="-677400" x2="120" y2="-677280" style="stroke: #f06292; stroke-width: 10"/>
<line x1="600" y1="-678120" x2="600" y2="-678000" style="stroke: #ffeb3b; stroke-width: 10"/>
<line x1="720" y1="-678600" x2="720" y2="-678480" style="stroke: #795548; stroke-width: 10"/>
<line x1="240" y1="-678000" x2="240" y2="-677880" style="stroke: #4caf50; stroke-width: 10"/>
<line x1="480" y1="-678360" x2="840" y2="-678120" style="stroke: #e91e63; stroke-width: 10"/>
<line x1="480" y1="-678360" x2="480" y2="-678240" style="stroke: #ff9800; stroke-width: 10"/>
<line x1="600" y1="-678000" x2="600" y2="-677880" style="stroke: #ffeb3b; stroke-width: 10"/>
<line x1="120" y1="-678600" x2="120" y2="-678480" style="stroke: #f06292; stroke-width: 10"/>
<line x1="480" y1="-677640" x2="480" y2="-677520" style="stroke: #ff9800; stroke-width: 10"/>
<line x1="600" y1="-677280" x2="600" y2="-677160" style="stroke: red; stroke-width: 10"/>
<line x1="840" y1="-678240" x2="720" y2="-678120" style="stroke: #795548; stroke-width: 10"/>
<line x1="840" y1="-678240" x2="840" y2="-678120" style="stroke: #e91e63; stroke-width: 10"/>
<line x1="720" y1="-678720" x2="720" y2="-678600" style="stroke: #795548; stroke-width: 10"/>
<line x1="120" y1="-678240" x2="120" y2="-678120" style="stroke: #f06292; stroke-width: 10"/>
<line x1="600" y1="-677520" x2="600" y2="-677400" style="stroke: #ffeb3b; stroke-width: 10"/>
<line x1="480" y1="-677520" x2="480" y2="-677400" style="stroke: #ff9800; stroke-width: 10"/>
<line x1="240" y1="-677520" x2="240" y2="-677400" style="stroke: red; stroke-width: 10"/>
<line x1="840" y1="-678120" x2="480" y2="-677520" style="stroke: #ff9800; stroke-width: 10"/>
<line x1="840" y1="-678120" x2="840" y2="-678000" style="stroke: #e91e63; stroke-width: 10"/>
<line x1="480" y1="-677280" x2="120" y2="-677160" style="stroke: #f06292; stroke-width: 10"/>
<line x1="480" y1="-677280" x2="480" y2="-677160" style="stroke: #ff9800; stroke-width: 10"/>
<line x1="840" y1="-678360" x2="120" y2="-677880" style="stroke: #f06292; stroke-width: 10"/>
<line x1="840" y1="-678360" x2="840" y2="-678240" style="stroke: #e91e63; stroke-width: 10"/>
<line x1="720" y1="-678000" x2="600" y2="-677880" style="stroke: #ffeb3b; stroke-width: 10"/>
<line x1="720" y1="-678000" x2="720" y2="-677880" style="stroke: red; stroke-width: 10"/>
<line x1="120" y1="-678360" x2="360" y2="-677400" style="stroke: #9c27b0; stroke-width: 10"/>
<line x1="120" y1="-678360" x2="120" y2="-678240" style="stroke: #f06292; stroke-width: 10"/>
<line x1="480" y1="-678720" x2="840" y2="-678600" style="stroke: #e91e63; stroke-width: 10"/>
<line x1="480" y1="-678720" x2="480" y2="-678360" style="stroke: #ff9800; stroke-width: 10"/>
<line x1="840" y1="-678000" x2="840" y2="-677880" style="stroke: #e91e63; stroke-width: 10"/>
<line x1="120" y1="-677640" x2="120" y2="-677520" style="stroke: #f06292; stroke-width: 10"/>
<line x1="720" y1="-677880" x2="600" y2="-677760" style="stroke: #ffeb3b; stroke-width: 10"/>
<line x1="720" y1="-677880" x2="720" y2="-677280" style="stroke: #795548; stroke-width: 10"/>
<line x1="120" y1="-677880" x2="840" y2="-677760" style="stroke: #e91e63; stroke-width: 10"/>
<line x1="120" y1="-677880" x2="120" y2="-677640" style="stroke: #f06292; stroke-width: 10"/>
<line x1="840" y1="-677880" x2="840" y2="-677760" style="stroke: #e91e63; stroke-width: 10"/>
<line x1="120" y1="-678480" x2="120" y2="-678360" style="stroke: #f06292; stroke-width: 10"/>
<line x1="720" y1="-678360" x2="720" y2="-678240" style="stroke: #795548; stroke-width: 10"/>
<line x1="600" y1="-677760" x2="600" y2="-677640" style="stroke: #ffeb3b; stroke-width: 10"/>
<line x1="360" y1="-677520" x2="360" y2="-677400" style="stroke: #9c27b0; stroke-width: 10"/>
<line x1="600" y1="-678720" x2="600" y2="-678600" style="stroke: #ffeb3b; stroke-width: 10"/>
<line x1="240" y1="-677760" x2="840" y2="-677640" style="stroke: #e91e63; stroke-width: 10"/>
<line x1="240" y1="-677760" x2="240" y2="-677520" style="stroke: #4caf50; stroke-width: 10"/>
<line x1="720" y1="-678240" x2="720" y2="-678120" style="stroke: #795548; stroke-width: 10"/>
<line x1="840" y1="-678480" x2="600" y2="-678000" style="stroke: #ffeb3b; stroke-width: 10"/>
<line x1="840" y1="-678480" x2="840" y2="-678360" style="stroke: #e91e63; stroke-width: 10"/>
<line x1="720" y1="-678120" x2="840" y2="-678000" style="stroke: #e91e63; stroke-width: 10"/>
<line x1="720" y1="-678120" x2="720" y2="-678000" style="stroke: #795548; stroke-width: 10"/>
<line x1="480" y1="-677400" x2="480" y2="-677280" style="stroke: red; stroke-width: 10"/>
<line x1="600" y1="-677640" x2="240" y2="-677400" style="stroke: #4caf50; stroke-width: 10"/>
<line x1="600" y1="-677640" x2="600" y2="-677520" style="stroke: #ffeb3b; stroke-width: 10"/>
<rect x="550" y="-678650" width="100" height="100" fill="" fill-opacity="0.000000" stroke="#b9f6ca" stroke-width="6"  />
<rect x="430" y="-678290" width="100" height="100" fill="" fill-opacity="0.000000" stroke="#b9f6ca" stroke-width="6"  />
<rect x="70" y="-678050" width="100" height="100" fill="" fill-opacity="0.000000" stroke="#b9f6ca" stroke-width="6"  />
<rect x="550" y="-677930" width="100" height="100" fill="" fill-opacity="0.000000" stroke="#ffcccc" stroke-width="6"  />
<rect x="310" y="-677210" width="100" height="100" fill="" fill-opacity="0.000000" stroke="#b9f6ca" stroke-width="6"  />
<rect x="670" y="-678530" width="100" height="100" fill="" fill-opacity="0.000000" stroke="#b9f6ca" stroke-width="6"  />
<rect x="430" y="-678410" width="100" height="100" fill="" fill-opacity="0.000000" stroke="#b9f6ca" stroke-width="6"  />
<rect x="790" y="-678290" width="100" height="100" fill="" fill-opacity="0.000000" stroke="#ffcccc" stroke-width="6"  />
<rect x="550" y="-677570" width="100" height="100" fill="" fill-opacity="0.000000" stroke="#ffcccc" stroke-width="6"  />
<rect x="790" y="-678170" width="100" height="100" fill="" fill-opacity="0.000000" stroke="#ffcccc" stroke-width="6"  />
<rect x="790" y="-678410" width="100" height="100" fill="" fill-opacity="0.000000" stroke="#ffcccc" stroke-width="6"  />
<rect x="670" y="-678050" width="100" height="100" fill="" fill-opacity="0.000000" stroke="#ffcccc" stroke-width="6"  />
<rect x="70" y="-678410" width="100" height="100" fill="" fill-opacity="0.000000" stroke="#b9f6ca" stroke-width="6"  />
<rect x="550" y="-677810" width="100" height="100" fill="" fill-opacity="0.000000" stroke="#ffcccc" stroke-width="6"  />
<rect x="190" y="-677810" width="100" height="100" fill="" fill-opacity="0.000000" stroke="#b9f6ca" stroke-width="6"  />
<rect x="670" y="-678170" width="100" height="100" fill="" fill-opacity="0.000000" stroke="#ffcccc" stroke-width="6"  />
<rect x="550" y="-677690" width="100" height="100" fill="" fill-opacity="0.000000" stroke="#ffcccc" stroke-width="6"  />
<circle cx="360" cy="-678360" r="50" fill="#9e9e9e" stroke="red" stroke-width="10"  />
<circle cx="840" cy="-678600" r="40" fill="#ffcccc" stroke="#9e9e9e" stroke-width="10"  />
<circle cx="240" cy="-677400" r="50" fill="#9e9e9e" stroke="yellow" stroke-width="10"  />
<circle cx="120" cy="-677520" r="40" fill="#ffcccc" stroke="black" stroke-width="4"  />
<circle cx="120" cy="-678120" r="40" fill="#b9f6ca" stroke="black" stroke-width="4"  />
<circle cx="600" cy="-678600" r="40" fill="#b9f6ca" stroke="black" stroke-width="4"  />
<circle cx="720" cy="-677280" r="40" fill="#ffcccc" stroke="black" stroke-width="4"  />
<circle cx="360" cy="-677400" r="40" fill="#b9f6ca" stroke="black" stroke-width="4"  />
<circle cx="480" cy="-678240" r="40" fill="#b9f6ca" stroke="black" stroke-width="4"  />
<circle cx="600" cy="-677400" r="40" fill="#ffcccc" stroke="black" stroke-width="4"  />
<circle cx="840" cy="-677640" r="50" fill="#9e9e9e" stroke="green" stroke-width="10"  />
<circle cx="120" cy="-677280" r="40" fill="#ffcccc" stroke="black" stroke-width="4"  />
<circle cx="120" cy="-678000" r="40" fill="#b9f6ca" stroke="black" stroke-width="4"  />
<circle cx="600" cy="-677880" r="40" fill="#ffcccc" stroke="black" stroke-width="4"  />
<circle cx="840" cy="-677760" r="40" fill="#ffcccc" stroke="black" stroke-width="4"  />
<circle cx="840" cy="-678720" r="40" fill="#b9f6ca" stroke="black" stroke-width="4"  />
<circle cx="240" cy="-677880" r="40" fill="#b9f6ca" stroke="black" stroke-width="4"  />
<circle cx="720" cy="-677160" r="40" fill="#ffcccc" stroke="black" stroke-width="4"  />
<circle cx="360" cy="-677160" r="40" fill="#b9f6ca" stroke="black" stroke-width="4"  />
<circle cx="720" cy="-678480" r="40" fill="#b9f6ca" stroke="black" stroke-width="4"  />
<circle cx="360" cy="-677280" r="40" fill="#b9f6ca" stroke="black" stroke-width="4"  />
<circle cx="120" cy="-677400" r="40" fill="#ffcccc" stroke="black" stroke-width="4"  />
<circle cx="600" cy="-678120" r="40" fill="#b9f6ca" stroke="black" stroke-width="4"  />
<circle cx="720" cy="-678600" r="40" fill="#b9f6ca" stroke="black" stroke-width="4"  />
<circle cx="240" cy="-678000" r="40" fill="#b9f6ca" stroke="black" stroke-width="4"  />
<circle cx="480" cy="-678360" r="40" fill="#b9f6ca" stroke="black" stroke-width="4"  />
<circle cx="600" cy="-678000" r="40" fill="#ffcccc" stroke="#9e9e9e" stroke-width="10"  />
<circle cx="120" cy="-678600" r="40" fill="#b9f6ca" stroke="black" stroke-width="4"  />
<circle cx="480" cy="-677640" r="40" fill="#b9f6ca" stroke="black" stroke-width="4"  />
<circle cx="600" cy="-677280" r="40" fill="#ffcccc" stroke="black" stroke-width="4"  />
<circle cx="840" cy="-678240" r="40" fill="#ffcccc" stroke="black" stroke-width="4"  />
<circle cx="720" cy="-678720" r="40" fill="#b9f6ca" stroke="black" stroke-width="4"  />
<circle cx="120" cy="-678240" r="40" fill="#b9f6ca" stroke="black" stroke-width="4"  />
<circle cx="600" cy="-677520" r="40" fill="#ffcccc" stroke="black" stroke-width="4"  />
<circle cx="480" cy="-677520" r="40" fill="#ffcccc" stroke="#9e9e9e" stroke-width="10"  />
<circle cx="240" cy="-677520" r="40" fill="#ffcccc" stroke="#9e9e9e" stroke-width="10"  />
<circle cx="840" cy="-678120" r="40" fill="#ffcccc" stroke="black" stroke-width="4"  />
<circle cx="480" cy="-677280" r="50" fill="#9e9e9e" stroke="green" stroke-width="10"  />
<circle cx="840" cy="-678360" r="40" fill="#ffcccc" stroke="black" stroke-width="4"  />
<circle cx="720" cy="-678000" r="40" fill="#ffcccc" stroke="black" stroke-width="4"  />
<circle cx="120" cy="-678360" r="40" fill="#b9f6ca" stroke="black" stroke-width="4"  />
<circle cx="480" cy="-678720" r="50" fill="#f44336" stroke="green" stroke-width="10"  />
<circle cx="840" cy="-678000" r="40" fill="#ffcccc" stroke="black" stroke-width="4"  />
<circle cx="120" cy="-677640" r="40" fill="#ffcccc" stroke="black" stroke-width="4"  />
<circle cx="720" cy="-677880" r="50" fill="#9e9e9e" stroke="green" stroke-width="10"  />
<circle cx="600" cy="-677160" r="50" fill="#9e9e9e" stroke="green" stroke-width="10"  />
<circle cx="120" cy="-677880" r="50" fill="#9e9e9e" stroke="#9e9e9e" stroke-width="16"  />
<circle cx="840" cy="-677880" r="40" fill="#ffcccc" stroke="black" stroke-width="4"  />
<circle cx="120" cy="-678480" r="40" fill="#b9f6ca" stroke="black" stroke-width="4"  />
<circle cx="720" cy="-678360" r="40" fill="#b9f6ca" stroke="black" stroke-width="4"  />
<circle cx="120" cy="-677160" r="40" fill="#ffcccc" stroke="black" stroke-width="4"  />
<circle cx="600" cy="-677760" r="40" fill="#ffcccc" stroke="black" stroke-width="4"  />
<circle cx="360" cy="-677520" r="40" fill="#b9f6ca" stroke="black" stroke-width="4"  />
<circle cx="600" cy="-678720" r="40" fill="#b9f6ca" stroke="black" stroke-width="4"  />
<circle cx="240" cy="-677760" r="40" fill="#b9f6ca" stroke="black" stroke-width="4"  />
<circle cx="720" cy="-678240" r="40" fill="#b9f6ca" stroke="black" stroke-width="4"  />
<circle cx="840" cy="-678480" r="40" fill="#ffcccc" stroke="black" stroke-width="4"  />
<circle cx="720" cy="-678120" r="40" fill="#ffcccc" stroke="#9e9e9e" stroke-width="10"  />
<circle cx="480" cy="-677160" r="40" fill="#ffcccc" stroke="black" stroke-width="4"  />
<circle cx="480" cy="-677400" r="40" fill="#ffcccc" stroke="black" stroke-width="4"  />
<circle cx="600" cy="-677640" r="40" fill="#ffcccc" stroke="black" stroke-width="4"  />
<text x="360" y="-678360" text-anchor="middle" dominant-baseline="middle" fill="black"> 347:349 </text>
<text x="360" y="-678340" text-anchor="middle" dominant-baseline="middle" fill="black"> 24907 </text>
<text x="360" y="-678300" text-anchor="middle" dominant-baseline="middle" fill="orange"> 0010000:1 </text>
<text x="360" y="-678280" text-anchor="middle" dominant-baseline="middle" fill="red"> 1011110:5 </text>
<text x="360" y="-678260" text-anchor="middle" dominant-baseline="middle" fill="blue"> 0010111:4 </text>
<text x="280" y="-678360" text-anchor="middle" dominant-baseline="middle" fill="blue"> yes 4 </text>
<text x="840" y="-678600" text-anchor="middle" dominant-baseline="middle" fill="black"> 347:348 </text>
<text x="840" y="-678580" text-anchor="middle" dominant-baseline="middle" fill="black"> 24902 </text>
<text x="840" y="-678540" text-anchor="middle" dominant-baseline="middle" fill="orange"> 1101111:6 </text>
<text x="840" y="-678520" text-anchor="middle" dominant-baseline="middle" fill="green"> 0000111:3 </text>
<text x="240" y="-677400" text-anchor="middle" dominant-baseline="middle" fill="black"> 347:348 </text>
<text x="240" y="-677380" text-anchor="middle" dominant-baseline="middle" fill="black"> 24857 </text>
<text x="240" y="-677340" text-anchor="middle" dominant-baseline="middle" fill="orange"> 0100000:1 </text>
<text x="240" y="-677320" text-anchor="middle" dominant-baseline="middle" fill="red"> 1111110:6 </text>
<text x="240" y="-677300" text-anchor="middle" dominant-baseline="middle" fill="blue"> 0000010:1 </text>
<text x="160" y="-677400" text-anchor="middle" dominant-baseline="middle" fill="blue"> yes 1 </text>
<text x="120" y="-677520" text-anchor="middle" dominant-baseline="middle" fill="black"> 346:348 </text>
<text x="120" y="-677500" text-anchor="middle" dominant-baseline="middle" fill="black"> 24895 </text>
<text x="120" y="-677460" text-anchor="middle" dominant-baseline="middle" fill="orange"> 1010110:4 </text>
<text x="120" y="-677440" text-anchor="middle" dominant-baseline="middle" fill="green"> 1010110:4 </text>
<text x="120" y="-678120" text-anchor="middle" dominant-baseline="middle" fill="black"> 347:349 </text>
<text x="120" y="-678100" text-anchor="middle" dominant-baseline="middle" fill="black"> 24917 </text>
<text x="120" y="-678060" text-anchor="middle" dominant-baseline="middle" fill="orange"> 1001000:2 </text>
<text x="120" y="-678040" text-anchor="middle" dominant-baseline="middle" fill="green"> 1000000:1 </text>
<text x="600" y="-678600" text-anchor="middle" dominant-baseline="middle" fill="black"> 347:349 </text>
<text x="600" y="-678580" text-anchor="middle" dominant-baseline="middle" fill="black"> 24924 </text>
<text x="600" y="-678540" text-anchor="middle" dominant-baseline="middle" fill="orange"> 1101111:6 </text>
<text x="600" y="-678520" text-anchor="middle" dominant-baseline="middle" fill="green"> 0000111:3 </text>
<text x="720" y="-677280" text-anchor="middle" dominant-baseline="middle" fill="black"> 346:348 </text>
<text x="720" y="-677260" text-anchor="middle" dominant-baseline="middle" fill="black"> 24880 </text>
<text x="720" y="-677220" text-anchor="middle" dominant-baseline="middle" fill="orange"> 1000110:3 </text>
<text x="720" y="-677200" text-anchor="middle" dominant-baseline="middle" fill="green"> 1000110:3 </text>
<text x="360" y="-677400" text-anchor="middle" dominant-baseline="middle" fill="black"> 346:349 </text>
<text x="360" y="-677380" text-anchor="middle" dominant-baseline="middle" fill="black"> 24909 </text>
<text x="360" y="-677340" text-anchor="middle" dominant-baseline="middle" fill="orange"> 1010110:4 </text>
<text x="360" y="-677320" text-anchor="middle" dominant-baseline="middle" fill="green"> 1010110:4 </text>
<text x="480" y="-678240" text-anchor="middle" dominant-baseline="middle" fill="black"> 347:349 </text>
<text x="480" y="-678220" text-anchor="middle" dominant-baseline="middle" fill="black"> 24916 </text>
<text x="480" y="-678180" text-anchor="middle" dominant-baseline="middle" fill="orange"> 1001000:2 </text>
<text x="480" y="-678160" text-anchor="middle" dominant-baseline="middle" fill="green"> 1001000:2 </text>
<text x="600" y="-677400" text-anchor="middle" dominant-baseline="middle" fill="black"> 347:348 </text>
<text x="600" y="-677380" text-anchor="middle" dominant-baseline="middle" fill="black"> 24887 </text>
<text x="600" y="-677340" text-anchor="middle" dominant-baseline="middle" fill="orange"> 0000100:1 </text>
<text x="840" y="-677640" text-anchor="middle" dominant-baseline="middle" fill="black"> 347:348 </text>
<text x="840" y="-677620" text-anchor="middle" dominant-baseline="middle" fill="black"> 24865 </text>
<text x="840" y="-677580" text-anchor="middle" dominant-baseline="middle" fill="orange"> 0000001:1 </text>
<text x="840" y="-677560" text-anchor="middle" dominant-baseline="middle" fill="red"> 1111110:6 </text>
<text x="840" y="-677540" text-anchor="middle" dominant-baseline="middle" fill="blue"> 1011111:6 </text>
<text x="760" y="-677640" text-anchor="middle" dominant-baseline="middle" fill="blue"> yes 6 </text>
<text x="120" y="-677280" text-anchor="middle" dominant-baseline="middle" fill="black"> 346:348 </text>
<text x="120" y="-677260" text-anchor="middle" dominant-baseline="middle" fill="black"> 24894 </text>
<text x="120" y="-677220" text-anchor="middle" dominant-baseline="middle" fill="orange"> 1010110:4 </text>
<text x="120" y="-677200" text-anchor="middle" dominant-baseline="middle" fill="green"> 1010110:4 </text>
<text x="120" y="-678000" text-anchor="middle" dominant-baseline="middle" fill="black"> 347:349 </text>
<text x="120" y="-677980" text-anchor="middle" dominant-baseline="middle" fill="black"> 24918 </text>
<text x="120" y="-677940" text-anchor="middle" dominant-baseline="middle" fill="orange"> 1001000:2 </text>
<text x="120" y="-677920" text-anchor="middle" dominant-baseline="middle" fill="green"> 1000000:1 </text>
<text x="600" y="-677880" text-anchor="middle" dominant-baseline="middle" fill="black"> 347:348 </text>
<text x="600" y="-677860" text-anchor="middle" dominant-baseline="middle" fill="black"> 24888 </text>
<text x="600" y="-677820" text-anchor="middle" dominant-baseline="middle" fill="orange"> 0100100:2 </text>
<text x="600" y="-677800" text-anchor="middle" dominant-baseline="middle" fill="green"> 0000100:1 </text>
<text x="840" y="-677760" text-anchor="middle" dominant-baseline="middle" fill="black"> 347:348 </text>
<text x="840" y="-677740" text-anchor="middle" dominant-baseline="middle" fill="black"> 24866 </text>
<text x="840" y="-677700" text-anchor="middle" dominant-baseline="middle" fill="orange"> 0000001:1 </text>
<text x="840" y="-678720" text-anchor="middle" dominant-baseline="middle" fill="black"> 347:349 </text>
<text x="840" y="-678700" text-anchor="middle" dominant-baseline="middle" fill="black"> 24903 </text>
<text x="840" y="-678660" text-anchor="middle" dominant-baseline="middle" fill="orange"> 1101111:6 </text>
<text x="840" y="-678640" text-anchor="middle" dominant-baseline="middle" fill="green"> 0000111:3 </text>
<text x="240" y="-677880" text-anchor="middle" dominant-baseline="middle" fill="black"> 347:349 </text>
<text x="240" y="-677860" text-anchor="middle" dominant-baseline="middle" fill="black"> 24933 </text>
<text x="240" y="-677820" text-anchor="middle" dominant-baseline="middle" fill="orange"> 0100001:2 </text>
<text x="240" y="-677800" text-anchor="middle" dominant-baseline="middle" fill="green"> 0100000:1 </text>
<text x="720" y="-677160" text-anchor="middle" dominant-baseline="middle" fill="black"> 346:348 </text>
<text x="720" y="-677140" text-anchor="middle" dominant-baseline="middle" fill="black"> 24881 </text>
<text x="720" y="-677100" text-anchor="middle" dominant-baseline="middle" fill="orange"> 1000110:3 </text>
<text x="720" y="-677080" text-anchor="middle" dominant-baseline="middle" fill="green"> 1000110:3 </text>
<text x="360" y="-677160" text-anchor="middle" dominant-baseline="middle" fill="black"> 346:349 </text>
<text x="360" y="-677140" text-anchor="middle" dominant-baseline="middle" fill="black"> 24911 </text>
<text x="360" y="-677100" text-anchor="middle" dominant-baseline="middle" fill="orange"> 1010110:4 </text>
<text x="360" y="-677080" text-anchor="middle" dominant-baseline="middle" fill="green"> 1010110:4 </text>
<text x="720" y="-678480" text-anchor="middle" dominant-baseline="middle" fill="black"> 347:349 </text>
<text x="720" y="-678460" text-anchor="middle" dominant-baseline="middle" fill="black"> 24940 </text>
<text x="720" y="-678420" text-anchor="middle" dominant-baseline="middle" fill="orange"> 0110111:5 </text>
<text x="720" y="-678400" text-anchor="middle" dominant-baseline="middle" fill="green"> 0000110:2 </text>
<text x="360" y="-677280" text-anchor="middle" dominant-baseline="middle" fill="black"> 346:349 </text>
<text x="360" y="-677260" text-anchor="middle" dominant-baseline="middle" fill="black"> 24910 </text>
<text x="360" y="-677220" text-anchor="middle" dominant-baseline="middle" fill="orange"> 1010110:4 </text>
<text x="360" y="-677200" text-anchor="middle" dominant-baseline="middle" fill="green"> 1010110:4 </text>
<text x="120" y="-677400" text-anchor="middle" dominant-baseline="middle" fill="black"> 346:348 </text>
<text x="120" y="-677380" text-anchor="middle" dominant-baseline="middle" fill="black"> 24896 </text>
<text x="120" y="-677340" text-anchor="middle" dominant-baseline="middle" fill="orange"> 1010110:4 </text>
<text x="120" y="-677320" text-anchor="middle" dominant-baseline="middle" fill="green"> 1010110:4 </text>
<text x="600" y="-678120" text-anchor="middle" dominant-baseline="middle" fill="black"> 347:349 </text>
<text x="600" y="-678100" text-anchor="middle" dominant-baseline="middle" fill="black"> 24925 </text>
<text x="600" y="-678060" text-anchor="middle" dominant-baseline="middle" fill="orange"> 0100100:2 </text>
<text x="600" y="-678040" text-anchor="middle" dominant-baseline="middle" fill="green"> 0000100:1 </text>
<text x="720" y="-678600" text-anchor="middle" dominant-baseline="middle" fill="black"> 347:349 </text>
<text x="720" y="-678580" text-anchor="middle" dominant-baseline="middle" fill="black"> 24939 </text>
<text x="720" y="-678540" text-anchor="middle" dominant-baseline="middle" fill="orange"> 0110111:5 </text>
<text x="720" y="-678520" text-anchor="middle" dominant-baseline="middle" fill="green"> 0000110:2 </text>
<text x="240" y="-678000" text-anchor="middle" dominant-baseline="middle" fill="black"> 347:349 </text>
<text x="240" y="-677980" text-anchor="middle" dominant-baseline="middle" fill="black"> 24932 </text>
<text x="240" y="-677940" text-anchor="middle" dominant-baseline="middle" fill="orange"> 0100001:2 </text>
<text x="240" y="-677920" text-anchor="middle" dominant-baseline="middle" fill="green"> 0100000:1 </text>
<text x="480" y="-678360" text-anchor="middle" dominant-baseline="middle" fill="black"> 347:349 </text>
<text x="480" y="-678340" text-anchor="middle" dominant-baseline="middle" fill="black"> 24919 </text>
<text x="480" y="-678300" text-anchor="middle" dominant-baseline="middle" fill="orange"> 1001001:3 </text>
<text x="480" y="-678280" text-anchor="middle" dominant-baseline="middle" fill="green"> 1001001:3 </text>
<text x="600" y="-678000" text-anchor="middle" dominant-baseline="middle" fill="black"> 347:348 </text>
<text x="600" y="-677980" text-anchor="middle" dominant-baseline="middle" fill="black"> 24900 </text>
<text x="600" y="-677940" text-anchor="middle" dominant-baseline="middle" fill="orange"> 0100100:2 </text>
<text x="600" y="-677920" text-anchor="middle" dominant-baseline="middle" fill="green"> 0000100:1 </text>
<text x="120" y="-678600" text-anchor="middle" dominant-baseline="middle" fill="black"> 347:349 </text>
<text x="120" y="-678580" text-anchor="middle" dominant-baseline="middle" fill="black"> 24971 </text>
<text x="120" y="-678540" text-anchor="middle" dominant-baseline="middle" fill="orange"> 1001000:2 </text>
<text x="120" y="-678520" text-anchor="middle" dominant-baseline="middle" fill="green"> 1000000:1 </text>
<text x="480" y="-677640" text-anchor="middle" dominant-baseline="middle" fill="black"> 347:349 </text>
<text x="480" y="-677620" text-anchor="middle" dominant-baseline="middle" fill="black"> 24915 </text>
<text x="480" y="-677580" text-anchor="middle" dominant-baseline="middle" fill="orange"> 0001000:1 </text>
<text x="600" y="-677280" text-anchor="middle" dominant-baseline="middle" fill="black"> 347:348 </text>
<text x="600" y="-677260" text-anchor="middle" dominant-baseline="middle" fill="black"> 24859 </text>
<text x="600" y="-677220" text-anchor="middle" dominant-baseline="middle" fill="orange"> 0000100:1 </text>
<text x="840" y="-678240" text-anchor="middle" dominant-baseline="middle" fill="black"> 347:348 </text>
<text x="840" y="-678220" text-anchor="middle" dominant-baseline="middle" fill="black"> 24893 </text>
<text x="840" y="-678180" text-anchor="middle" dominant-baseline="middle" fill="orange"> 0101111:5 </text>
<text x="840" y="-678160" text-anchor="middle" dominant-baseline="middle" fill="green"> 0000111:3 </text>
<text x="720" y="-678720" text-anchor="middle" dominant-baseline="middle" fill="black"> 347:349 </text>
<text x="720" y="-678700" text-anchor="middle" dominant-baseline="middle" fill="black"> 24938 </text>
<text x="720" y="-678660" text-anchor="middle" dominant-baseline="middle" fill="orange"> 0110111:5 </text>
<text x="720" y="-678640" text-anchor="middle" dominant-baseline="middle" fill="green"> 0000110:2 </text>
<text x="120" y="-678240" text-anchor="middle" dominant-baseline="middle" fill="black"> 347:349 </text>
<text x="120" y="-678220" text-anchor="middle" dominant-baseline="middle" fill="black"> 24929 </text>
<text x="120" y="-678180" text-anchor="middle" dominant-baseline="middle" fill="orange"> 1001000:2 </text>
<text x="120" y="-678160" text-anchor="middle" dominant-baseline="middle" fill="green"> 1000000:1 </text>
<text x="600" y="-677520" text-anchor="middle" dominant-baseline="middle" fill="black"> 347:348 </text>
<text x="600" y="-677500" text-anchor="middle" dominant-baseline="middle" fill="black"> 24886 </text>
<text x="600" y="-677460" text-anchor="middle" dominant-baseline="middle" fill="orange"> 0000100:1 </text>
<text x="600" y="-677440" text-anchor="middle" dominant-baseline="middle" fill="green"> 0000100:1 </text>
<text x="480" y="-677520" text-anchor="middle" dominant-baseline="middle" fill="black"> 347:348 </text>
<text x="480" y="-677500" text-anchor="middle" dominant-baseline="middle" fill="black"> 24877 </text>
<text x="480" y="-677460" text-anchor="middle" dominant-baseline="middle" fill="orange"> 0001000:1 </text>
<text x="240" y="-677520" text-anchor="middle" dominant-baseline="middle" fill="black"> 347:348 </text>
<text x="240" y="-677500" text-anchor="middle" dominant-baseline="middle" fill="black"> 24864 </text>
<text x="240" y="-677460" text-anchor="middle" dominant-baseline="middle" fill="orange"> 0100000:1 </text>
<text x="840" y="-678120" text-anchor="middle" dominant-baseline="middle" fill="black"> 347:348 </text>
<text x="840" y="-678100" text-anchor="middle" dominant-baseline="middle" fill="black"> 24879 </text>
<text x="840" y="-678060" text-anchor="middle" dominant-baseline="middle" fill="orange"> 0001001:2 </text>
<text x="840" y="-678040" text-anchor="middle" dominant-baseline="middle" fill="green"> 0000001:1 </text>
<text x="480" y="-677280" text-anchor="middle" dominant-baseline="middle" fill="black"> 347:348 </text>
<text x="480" y="-677260" text-anchor="middle" dominant-baseline="middle" fill="black"> 24870 </text>
<text x="480" y="-677220" text-anchor="middle" dominant-baseline="middle" fill="orange"> 0001000:1 </text>
<text x="480" y="-677200" text-anchor="middle" dominant-baseline="middle" fill="red"> 1011110:5 </text>
<text x="480" y="-677180" text-anchor="middle" dominant-baseline="middle" fill="blue"> 1011111:6 </text>
<text x="400" y="-677280" text-anchor="middle" dominant-baseline="middle" fill="blue"> yes 6 </text>
<text x="840" y="-678360" text-anchor="middle" dominant-baseline="middle" fill="black"> 347:348 </text>
<text x="840" y="-678340" text-anchor="middle" dominant-baseline="middle" fill="black"> 24899 </text>
<text x="840" y="-678300" text-anchor="middle" dominant-baseline="middle" fill="orange"> 1101111:6 </text>
<text x="840" y="-678280" text-anchor="middle" dominant-baseline="middle" fill="green"> 0000111:3 </text>
<text x="720" y="-678000" text-anchor="middle" dominant-baseline="middle" fill="black"> 347:348 </text>
<text x="720" y="-677980" text-anchor="middle" dominant-baseline="middle" fill="black"> 24891 </text>
<text x="720" y="-677940" text-anchor="middle" dominant-baseline="middle" fill="orange"> 0100110:3 </text>
<text x="720" y="-677920" text-anchor="middle" dominant-baseline="middle" fill="green"> 0000110:2 </text>
<text x="120" y="-678360" text-anchor="middle" dominant-baseline="middle" fill="black"> 347:349 </text>
<text x="120" y="-678340" text-anchor="middle" dominant-baseline="middle" fill="black"> 24928 </text>
<text x="120" y="-678300" text-anchor="middle" dominant-baseline="middle" fill="orange"> 1001000:2 </text>
<text x="120" y="-678280" text-anchor="middle" dominant-baseline="middle" fill="green"> 1000000:1 </text>
<text x="480" y="-678720" text-anchor="middle" dominant-baseline="middle" fill="black"> 348:349 </text>
<text x="480" y="-678700" text-anchor="middle" dominant-baseline="middle" fill="black"> 24920 </text>
<text x="480" y="-678660" text-anchor="middle" dominant-baseline="middle" fill="orange"> 0001000:1 </text>
<text x="480" y="-678640" text-anchor="middle" dominant-baseline="middle" fill="red"> 1001111:5 </text>
<text x="480" y="-678620" text-anchor="middle" dominant-baseline="middle" fill="blue"> 1111111:7 </text>
<text x="400" y="-678720" text-anchor="middle" dominant-baseline="middle" fill="blue"> yes 7 </text>
<text x="840" y="-678000" text-anchor="middle" dominant-baseline="middle" fill="black"> 347:348 </text>
<text x="840" y="-677980" text-anchor="middle" dominant-baseline="middle" fill="black"> 24868 </text>
<text x="840" y="-677940" text-anchor="middle" dominant-baseline="middle" fill="orange"> 0000001:1 </text>
<text x="120" y="-677640" text-anchor="middle" dominant-baseline="middle" fill="black"> 346:348 </text>
<text x="120" y="-677620" text-anchor="middle" dominant-baseline="middle" fill="black"> 24898 </text>
<text x="120" y="-677580" text-anchor="middle" dominant-baseline="middle" fill="orange"> 1010110:4 </text>
<text x="120" y="-677560" text-anchor="middle" dominant-baseline="middle" fill="green"> 1010110:4 </text>
<text x="720" y="-677880" text-anchor="middle" dominant-baseline="middle" fill="black"> 347:348 </text>
<text x="720" y="-677860" text-anchor="middle" dominant-baseline="middle" fill="black"> 24890 </text>
<text x="720" y="-677820" text-anchor="middle" dominant-baseline="middle" fill="orange"> 0000010:1 </text>
<text x="720" y="-677800" text-anchor="middle" dominant-baseline="middle" fill="red"> 1011110:5 </text>
<text x="720" y="-677780" text-anchor="middle" dominant-baseline="middle" fill="blue"> 1011111:6 </text>
<text x="640" y="-677880" text-anchor="middle" dominant-baseline="middle" fill="blue"> yes 6 </text>
<text x="600" y="-677160" text-anchor="middle" dominant-baseline="middle" fill="black"> 347:348 </text>
<text x="600" y="-677140" text-anchor="middle" dominant-baseline="middle" fill="black"> 24860 </text>
<text x="600" y="-677100" text-anchor="middle" dominant-baseline="middle" fill="orange"> 0000100:1 </text>
<text x="600" y="-677080" text-anchor="middle" dominant-baseline="middle" fill="red"> 1011110:5 </text>
<text x="600" y="-677060" text-anchor="middle" dominant-baseline="middle" fill="blue"> 1011111:6 </text>
<text x="520" y="-677160" text-anchor="middle" dominant-baseline="middle" fill="blue"> yes 6 </text>
<text x="120" y="-677880" text-anchor="middle" dominant-baseline="middle" fill="black"> 347:348 </text>
<text x="120" y="-677860" text-anchor="middle" dominant-baseline="middle" fill="black"> 24897 </text>
<text x="120" y="-677820" text-anchor="middle" dominant-baseline="middle" fill="orange"> 1000000:1 </text>
<text x="120" y="-677800" text-anchor="middle" dominant-baseline="middle" fill="red"> 1111110:6 </text>
<text x="120" y="-677780" text-anchor="middle" dominant-baseline="middle" fill="blue"> 1011111:6 </text>
<text x="40" y="-677880" text-anchor="middle" dominant-baseline="middle" fill="blue"> yes 6 </text>
<text x="840" y="-677880" text-anchor="middle" dominant-baseline="middle" fill="black"> 347:348 </text>
<text x="840" y="-677860" text-anchor="middle" dominant-baseline="middle" fill="black"> 24867 </text>
<text x="840" y="-677820" text-anchor="middle" dominant-baseline="middle" fill="orange"> 0000001:1 </text>
<text x="120" y="-678480" text-anchor="middle" dominant-baseline="middle" fill="black"> 347:349 </text>
<text x="120" y="-678460" text-anchor="middle" dominant-baseline="middle" fill="black"> 24930 </text>
<text x="120" y="-678420" text-anchor="middle" dominant-baseline="middle" fill="orange"> 1001000:2 </text>
<text x="120" y="-678400" text-anchor="middle" dominant-baseline="middle" fill="green"> 1000000:1 </text>
<text x="720" y="-678360" text-anchor="middle" dominant-baseline="middle" fill="black"> 347:349 </text>
<text x="720" y="-678340" text-anchor="middle" dominant-baseline="middle" fill="black"> 24941 </text>
<text x="720" y="-678300" text-anchor="middle" dominant-baseline="middle" fill="orange"> 0100111:4 </text>
<text x="720" y="-678280" text-anchor="middle" dominant-baseline="middle" fill="green"> 0000110:2 </text>
<text x="120" y="-677160" text-anchor="middle" dominant-baseline="middle" fill="black"> 346:348 </text>
<text x="120" y="-677140" text-anchor="middle" dominant-baseline="middle" fill="black"> 24874 </text>
<text x="120" y="-677100" text-anchor="middle" dominant-baseline="middle" fill="orange"> 1010110:4 </text>
<text x="120" y="-677080" text-anchor="middle" dominant-baseline="middle" fill="green"> 1010110:4 </text>
<text x="600" y="-677760" text-anchor="middle" dominant-baseline="middle" fill="black"> 347:348 </text>
<text x="600" y="-677740" text-anchor="middle" dominant-baseline="middle" fill="black"> 24889 </text>
<text x="600" y="-677700" text-anchor="middle" dominant-baseline="middle" fill="orange"> 0100100:2 </text>
<text x="600" y="-677680" text-anchor="middle" dominant-baseline="middle" fill="green"> 0000100:1 </text>
<text x="360" y="-677520" text-anchor="middle" dominant-baseline="middle" fill="black"> 346:349 </text>
<text x="360" y="-677500" text-anchor="middle" dominant-baseline="middle" fill="black"> 24908 </text>
<text x="360" y="-677460" text-anchor="middle" dominant-baseline="middle" fill="orange"> 1010110:4 </text>
<text x="360" y="-677440" text-anchor="middle" dominant-baseline="middle" fill="green"> 1010110:4 </text>
<text x="600" y="-678720" text-anchor="middle" dominant-baseline="middle" fill="black"> 347:349 </text>
<text x="600" y="-678700" text-anchor="middle" dominant-baseline="middle" fill="black"> 24923 </text>
<text x="600" y="-678660" text-anchor="middle" dominant-baseline="middle" fill="orange"> 1101111:6 </text>
<text x="600" y="-678640" text-anchor="middle" dominant-baseline="middle" fill="green"> 0000111:3 </text>
<text x="240" y="-677760" text-anchor="middle" dominant-baseline="middle" fill="black"> 347:349 </text>
<text x="240" y="-677740" text-anchor="middle" dominant-baseline="middle" fill="black"> 24934 </text>
<text x="240" y="-677700" text-anchor="middle" dominant-baseline="middle" fill="orange"> 0100001:2 </text>
<text x="240" y="-677680" text-anchor="middle" dominant-baseline="middle" fill="green"> 0100000:1 </text>
<text x="720" y="-678240" text-anchor="middle" dominant-baseline="middle" fill="black"> 347:349 </text>
<text x="720" y="-678220" text-anchor="middle" dominant-baseline="middle" fill="black"> 24912 </text>
<text x="720" y="-678180" text-anchor="middle" dominant-baseline="middle" fill="orange"> 0100111:4 </text>
<text x="720" y="-678160" text-anchor="middle" dominant-baseline="middle" fill="green"> 0000110:2 </text>
<text x="840" y="-678480" text-anchor="middle" dominant-baseline="middle" fill="black"> 347:348 </text>
<text x="840" y="-678460" text-anchor="middle" dominant-baseline="middle" fill="black"> 24901 </text>
<text x="840" y="-678420" text-anchor="middle" dominant-baseline="middle" fill="orange"> 1101111:6 </text>
<text x="840" y="-678400" text-anchor="middle" dominant-baseline="middle" fill="green"> 0000111:3 </text>
<text x="720" y="-678120" text-anchor="middle" dominant-baseline="middle" fill="black"> 347:348 </text>
<text x="720" y="-678100" text-anchor="middle" dominant-baseline="middle" fill="black"> 24892 </text>
<text x="720" y="-678060" text-anchor="middle" dominant-baseline="middle" fill="orange"> 0100111:4 </text>
<text x="720" y="-678040" text-anchor="middle" dominant-baseline="middle" fill="green"> 0000110:2 </text>
<text x="480" y="-677160" text-anchor="middle" dominant-baseline="middle" fill="black"> 346:348 </text>
<text x="480" y="-677140" text-anchor="middle" dominant-baseline="middle" fill="black"> 24871 </text>
<text x="480" y="-677100" text-anchor="middle" dominant-baseline="middle" fill="orange"> 1011100:4 </text>
<text x="480" y="-677080" text-anchor="middle" dominant-baseline="middle" fill="green"> 0011100:3 </text>
<text x="480" y="-677400" text-anchor="middle" dominant-baseline="middle" fill="black"> 347:348 </text>
<text x="480" y="-677380" text-anchor="middle" dominant-baseline="middle" fill="black"> 24878 </text>
<text x="480" y="-677340" text-anchor="middle" dominant-baseline="middle" fill="orange"> 0001000:1 </text>
<text x="600" y="-677640" text-anchor="middle" dominant-baseline="middle" fill="black"> 347:348 </text>
<text x="600" y="-677620" text-anchor="middle" dominant-baseline="middle" fill="black"> 24885 </text>
<text x="600" y="-677580" text-anchor="middle" dominant-baseline="middle" fill="orange"> 0100100:2 </text>
<text x="600" y="-677560" text-anchor="middle" dominant-baseline="middle" fill="green"> 0000100:1 </text>
</g>
</svg>
