<svg id="hashgraph" width="960" height="1800" xmlns="http://www.w3.org/2000/svg">
<g transform="translate(0,44400)">
<line x1="720" y1="-43200" x2="840" y2="-42840" style="stroke: #e91e63; stroke-width: 10"/>
<line x1="720" y1="-43200" x2="720" y2="-43080" style="stroke: #795548; stroke-width: 10"/>
<line x1="720" y1="-43560" x2="360" y2="-43440" style="stroke: #9c27b0; stroke-width: 10"/>
<line x1="720" y1="-43560" x2="720" y2="-43320" style="stroke: #795548; stroke-width: 10"/>
<line x1="360" y1="-43560" x2="360" y2="-43440" style="stroke: #9c27b0; stroke-width: 10"/>
<line x1="360" y1="-43440" x2="360" y2="-43320" style="stroke: red; stroke-width: 10"/>
<line x1="840" y1="-44160" x2="240" y2="-44040" style="stroke: #4caf50; stroke-width: 10"/>
<line x1="840" y1="-44160" x2="840" y2="-43800" style="stroke: #e91e63; stroke-width: 10"/>
<line x1="360" y1="-43200" x2="360" y2="-43080" style="stroke: #9c27b0; stroke-width: 10"/>
<line x1="240" y1="-44160" x2="840" y2="-43680" style="stroke: #e91e63; stroke-width: 10"/>
<line x1="240" y1="-44160" x2="240" y2="-44040" style="stroke: #4caf50; stroke-width: 10"/>
<line x1="360" y1="-43080" x2="360" y2="-42960" style="stroke: #9c27b0; stroke-width: 10"/>
<line x1="360" y1="-42960" x2="360" y2="-42840" style="stroke: #9c27b0; stroke-width: 10"/>
<line x1="840" y1="-42960" x2="840" y2="-42840" style="stroke: #e91e63; stroke-width: 10"/>
<line x1="120" y1="-43560" x2="120" y2="-43440" style="stroke: #f06292; stroke-width: 10"/>
<line x1="840" y1="-43800" x2="840" y2="-43680" style="stroke: #e91e63; stroke-width: 10"/>
<line x1="240" y1="-44040" x2="240" y2="-43920" style="stroke: red; stroke-width: 10"/>
<line x1="600" y1="-43920" x2="480" y2="-42960" style="stroke: #ff9800; stroke-width: 10"/>
<line x1="600" y1="-43920" x2="600" y2="-43800" style="stroke: red; stroke-width: 10"/>
<line x1="120" y1="-42960" x2="120" y2="-42840" style="stroke: #f06292; stroke-width: 10"/>
<line x1="360" y1="-43920" x2="840" y2="-43440" style="stroke: #e91e63; stroke-width: 10"/>
<line x1="360" y1="-43920" x2="360" y2="-43800" style="stroke: #9c27b0; stroke-width: 10"/>
<line x1="480" y1="-43680" x2="480" y2="-43560" style="stroke: #ff9800; stroke-width: 10"/>
<line x1="720" y1="-43320" x2="720" y2="-43200" style="stroke: red; stroke-width: 10"/>
<line x1="720" y1="-43680" x2="720" y2="-43560" style="stroke: #795548; stroke-width: 10"/>
<line x1="840" y1="-43320" x2="720" y2="-43200" style="stroke: #795548; stroke-width: 10"/>
<line x1="840" y1="-43320" x2="840" y2="-42960" style="stroke: #e91e63; stroke-width: 10"/>
<line x1="480" y1="-43080" x2="480" y2="-42960" style="stroke: #ff9800; stroke-width: 10"/>
<line x1="120" y1="-43320" x2="120" y2="-43200" style="stroke: red; stroke-width: 10"/>
<line x1="480" y1="-43920" x2="480" y2="-43800" style="stroke: #ff9800; stroke-width: 10"/>
<line x1="840" y1="-43560" x2="360" y2="-43320" style="stroke: #9c27b0; stroke-width: 10"/>
<line x1="840" y1="-43560" x2="840" y2="-43440" style="stroke: #e91e63; stroke-width: 10"/>
<line x1="240" y1="-42960" x2="240" y2="-42840" style="stroke: #4caf50; stroke-width: 10"/>
<line x1="480" y1="-43200" x2="480" y2="-43080" style="stroke: #ff9800; stroke-width: 10"/>
<line x1="480" y1="-43560" x2="480" y2="-43440" style="stroke: red; stroke-width: 10"/>
<line x1="720" y1="-43080" x2="360" y2="-42960" style="stroke: #9c27b0; stroke-width: 10"/>
<line x1="360" y1="-44160" x2="600" y2="-43800" style="stroke: #ffeb3b; stroke-width: 10"/>
<line x1="360" y1="-44160" x2="360" y2="-44040" style="stroke: #9c27b0; stroke-width: 10"/>
<line x1="840" y1="-43680" x2="840" y2="-43560" style="stroke: #e91e63; stroke-width: 10"/>
<line x1="360" y1="-43320" x2="360" y2="-43200" style="stroke: #9c27b0; stroke-width: 10"/>
<line x1="480" y1="-43440" x2="120" y2="-43200" style="stroke: #f06292; stroke-width: 10"/>
<line x1="480" y1="-43440" x2="480" y2="-43320" style="stroke: #ff9800; stroke-width: 10"/>
<line x1="600" y1="-44040" x2="600" y2="-43920" style="stroke: #ffeb3b; stroke-width: 10"/>
<line x1="480" y1="-43320" x2="480" y2="-43200" style="stroke: #ff9800; stroke-width: 10"/>
<line x1="240" y1="-43920" x2="360" y2="-43800" style="stroke: #9c27b0; stroke-width: 10"/>
<line x1="240" y1="-43920" x2="240" y2="-43080" style="stroke: #4caf50; stroke-width: 10"/>
<line x1="240" y1="-43080" x2="240" y2="-42960" style="stroke: #4caf50; stroke-width: 10"/>
<line x1="600" y1="-43800" x2="360" y2="-43680" style="stroke: #9c27b0; stroke-width: 10"/>
<line x1="600" y1="-43800" x2="600" y2="-42840" style="stroke: #ffeb3b; stroke-width: 10"/>
<line x1="840" y1="-43440" x2="360" y2="-43200" style="stroke: #9c27b0; stroke-width: 10"/>
<line x1="840" y1="-43440" x2="840" y2="-43320" style="stroke: red; stroke-width: 10"/>
<line x1="480" y1="-43800" x2="120" y2="-43440" style="stroke: #f06292; stroke-width: 10"/>
<line x1="480" y1="-43800" x2="480" y2="-43680" style="stroke: #ff9800; stroke-width: 10"/>
<line x1="360" y1="-44040" x2="240" y2="-43080" style="stroke: #4caf50; stroke-width: 10"/>
<line x1="360" y1="-44040" x2="360" y2="-43920" style="stroke: #9c27b0; stroke-width: 10"/>
<line x1="480" y1="-42960" x2="600" y2="-42840" style="stroke: #ffeb3b; stroke-width: 10"/>
<line x1="360" y1="-43800" x2="240" y2="-42960" style="stroke: #4caf50; stroke-width: 10"/>
<line x1="360" y1="-43800" x2="360" y2="-43680" style="stroke: #9c27b0; stroke-width: 10"/>
<line x1="120" y1="-43440" x2="480" y2="-43320" style="stroke: #ff9800; stroke-width: 10"/>
<line x1="120" y1="-43440" x2="120" y2="-43320" style="stroke: #f06292; stroke-width: 10"/>
<line x1="600" y1="-44160" x2="600" y2="-44040" style="stroke: #ffeb3b; stroke-width: 10"/>
<line x1="120" y1="-43200" x2="480" y2="-43080" style="stroke: #ff9800; stroke-width: 10"/>
<line x1="120" y1="-43200" x2="120" y2="-42960" style="stroke: #f06292; stroke-width: 10"/>
<line x1="360" y1="-43680" x2="360" y2="-43560" style="stroke: #9c27b0; stroke-width: 10"/>
<rect x="670" y="-43610" width="100" height="100" fill="" fill-opacity="0.000000" stroke="darkblue" stroke-width="4" stroke-dasharray="10,10" />
<rect x="790" y="-44210" width="100" height="100" fill="" fill-opacity="0.000000" stroke="darkblue" stroke-width="4" stroke-dasharray="10,10" />
<rect x="190" y="-44210" width="100" height="100" fill="" fill-opacity="0.000000" stroke="darkblue" stroke-width="4" stroke-dasharray="10,10" />
<rect x="310" y="-43970" width="100" height="100" fill="" fill-opacity="0.000000" stroke="darkblue" stroke-width="4" stroke-dasharray="10,10" />
<rect x="790" y="-43610" width="100" height="100" fill="" fill-opacity="0.000000" stroke="darkblue" stroke-width="4" stroke-dasharray="10,10" />
<rect x="670" y="-43130" width="100" height="100" fill="" fill-opacity="0.000000" stroke="darkblue" stroke-width="4" stroke-dasharray="10,10" />
<rect x="310" y="-44210" width="100" height="100" fill="" fill-opacity="0.000000" stroke="darkblue" stroke-width="4" stroke-dasharray="10,10" />
<rect x="190" y="-42890" width="100" height="100" fill="" fill-opacity="0.000000" stroke="darkblue" stroke-width="4" stroke-dasharray="10,10" />
<circle cx="720" cy="-43200" r="50" fill="#9c27b0" stroke="#9c27b0" stroke-width="16" stroke-dasharray="" />
<circle cx="720" cy="-43560" r="40" fill="#ffffcc" stroke="black" stroke-width="4" stroke-dasharray="" />
<circle cx="360" cy="-43560" r="40" fill="#fed9a6" stroke="black" stroke-width="4" stroke-dasharray="" />
<circle cx="360" cy="-43440" r="40" fill="#fed9a6" stroke="black" stroke-width="4" stroke-dasharray="" />
<circle cx="840" cy="-44160" r="40" fill="#fed9a6" stroke="#9c27b0" stroke-width="10" stroke-dasharray="" />
<circle cx="840" cy="-42840" r="40" fill="#decde4" stroke="#4caf50" stroke-width="10" stroke-dasharray="" />
<circle cx="360" cy="-43200" r="40" fill="#fed9a6" stroke="black" stroke-width="4" stroke-dasharray="" />
<circle cx="240" cy="-44160" r="40" fill="#fed9a6" stroke="black" stroke-width="4" stroke-dasharray="" />
<circle cx="360" cy="-43080" r="40" fill="#fed9a6" stroke="black" stroke-width="4" stroke-dasharray="" />
<circle cx="360" cy="-42960" r="40" fill="#decde4" stroke="#4caf50" stroke-width="10" stroke-dasharray="" />
<circle cx="840" cy="-42960" r="40" fill="#fed9a6" stroke="black" stroke-width="4" stroke-dasharray="" />
<circle cx="120" cy="-43560" r="40" fill="#e5d8bd" stroke="black" stroke-width="4" stroke-dasharray="" />
<circle cx="840" cy="-43800" r="40" fill="#fed9a6" stroke="black" stroke-width="4" stroke-dasharray="" />
<circle cx="600" cy="-42840" r="40" fill="#fed9a6" stroke="black" stroke-width="4" stroke-dasharray="" />
<circle cx="240" cy="-44040" r="40" fill="#fed9a6" stroke="black" stroke-width="4" stroke-dasharray="" />
<circle cx="600" cy="-43920" r="40" fill="#fed9a6" stroke="black" stroke-width="4" stroke-dasharray="" />
<circle cx="120" cy="-42960" r="40" fill="#fed9a6" stroke="black" stroke-width="4" stroke-dasharray="" />
<circle cx="360" cy="-43920" r="40" fill="#fed9a6" stroke="black" stroke-width="4" stroke-dasharray="" />
<circle cx="480" cy="-43680" r="40" fill="#fed9a6" stroke="black" stroke-width="4" stroke-dasharray="" />
<circle cx="720" cy="-43320" r="40" fill="#ffffcc" stroke="black" stroke-width="4" stroke-dasharray="" />
<circle cx="720" cy="-43680" r="40" fill="#ffffcc" stroke="black" stroke-width="4" stroke-dasharray="" />
<circle cx="840" cy="-43320" r="50" fill="#9c27b0" stroke="green" stroke-width="10" stroke-dasharray="" />
<circle cx="480" cy="-43080" r="40" fill="#fed9a6" stroke="black" stroke-width="4" stroke-dasharray="" />
<circle cx="120" cy="-43320" r="40" fill="#fed9a6" stroke="black" stroke-width="4" stroke-dasharray="" />
<circle cx="480" cy="-43920" r="40" fill="#fed9a6" stroke="#9c27b0" stroke-width="10" stroke-dasharray="" />
<circle cx="840" cy="-43560" r="40" fill="#fed9a6" stroke="black" stroke-width="4" stroke-dasharray="" />
<circle cx="240" cy="-42960" r="40" fill="#fed9a6" stroke="black" stroke-width="4" stroke-dasharray="" />
<circle cx="480" cy="-43200" r="40" fill="#fed9a6" stroke="black" stroke-width="4" stroke-dasharray="" />
<circle cx="480" cy="-43560" r="40" fill="#fed9a6" stroke="black" stroke-width="4" stroke-dasharray="" />
<circle cx="720" cy="-43080" r="40" fill="#fed9a6" stroke="black" stroke-width="4" stroke-dasharray="" />
<circle cx="360" cy="-44160" r="40" fill="#fed9a6" stroke="black" stroke-width="4" stroke-dasharray="" />
<circle cx="840" cy="-43680" r="40" fill="#fed9a6" stroke="black" stroke-width="4" stroke-dasharray="" />
<circle cx="360" cy="-43320" r="50" fill="#9c27b0" stroke="green" stroke-width="10" stroke-dasharray="" />
<circle cx="480" cy="-43440" r="50" fill="#9c27b0" stroke="green" stroke-width="10" stroke-dasharray="" />
<circle cx="600" cy="-44040" r="40" fill="#fed9a6" stroke="black" stroke-width="4" stroke-dasharray="" />
<circle cx="480" cy="-43320" r="40" fill="#fed9a6" stroke="black" stroke-width="4" stroke-dasharray="" />
<circle cx="240" cy="-43920" r="50" fill="#9c27b0" stroke="green" stroke-width="10" stroke-dasharray="" />
<circle cx="240" cy="-43080" r="40" fill="#fed9a6" stroke="black" stroke-width="4" stroke-dasharray="" />
<circle cx="600" cy="-43800" r="50" fill="#9c27b0" stroke="green" stroke-width="10" stroke-dasharray="" />
<circle cx="360" cy="-42840" r="40" fill="#decde4" stroke="black" stroke-width="4" stroke-dasharray="" />
<circle cx="840" cy="-43440" r="40" fill="#fed9a6" stroke="black" stroke-width="4" stroke-dasharray="" />
<circle cx="480" cy="-43800" r="40" fill="#fed9a6" stroke="black" stroke-width="4" stroke-dasharray="" />
<circle cx="360" cy="-44040" r="40" fill="#fed9a6" stroke="black" stroke-width="4" stroke-dasharray="" />
<circle cx="480" cy="-42960" r="40" fill="#fed9a6" stroke="black" stroke-width="4" stroke-dasharray="" />
<circle cx="120" cy="-42840" r="40" fill="#fed9a6" stroke="black" stroke-width="4" stroke-dasharray="" />
<circle cx="360" cy="-43800" r="40" fill="#fed9a6" stroke="black" stroke-width="4" stroke-dasharray="" />
<circle cx="240" cy="-42840" r="40" fill="#fed9a6" stroke="black" stroke-width="4" stroke-dasharray="" />
<circle cx="120" cy="-43440" r="40" fill="#fed9a6" stroke="#9c27b0" stroke-width="10" stroke-dasharray="" />
<circle cx="600" cy="-44160" r="40" fill="#fed9a6" stroke="black" stroke-width="4" stroke-dasharray="" />
<circle cx="120" cy="-43200" r="50" fill="#9c27b0" stroke="red" stroke-width="10" stroke-dasharray="" />
<circle cx="360" cy="-43680" r="40" fill="#fed9a6" stroke="black" stroke-width="4" stroke-dasharray="" />
<text x="720" y="-43200" text-anchor="middle" dominant-baseline="middle" fill="black"> 19:20 </text>
<text x="720" y="-43180" text-anchor="middle" dominant-baseline="middle" fill="black"> 1561 </text>
<text x="720" y="-43140" text-anchor="middle" dominant-baseline="middle" fill="orange"> w=0000010:1 </text>
<text x="720" y="-43120" text-anchor="middle" dominant-baseline="middle" fill="red"> s=1110111:6 </text>
<text x="720" y="-43100" text-anchor="middle" dominant-baseline="middle" fill="blue"> v=1010111:5 </text>
<text x="640" y="-43200" text-anchor="middle" dominant-baseline="middle" fill="blue"> yes 5 </text>
<text x="720" y="-43220" text-anchor="middle" dominant-baseline="middle" fill="black"> d=1111110:6 </text>
<text x="720" y="-43560" text-anchor="middle" dominant-baseline="middle" fill="black"> 19:21 </text>
<text x="720" y="-43540" text-anchor="middle" dominant-baseline="middle" fill="black"> 1606 </text>
<text x="720" y="-43500" text-anchor="middle" dominant-baseline="middle" fill="orange"> w=0010010:2 </text>
<text x="720" y="-43480" text-anchor="middle" dominant-baseline="middle" fill="green"> i=0000010:1 </text>
<text x="360" y="-43560" text-anchor="middle" dominant-baseline="middle" fill="black"> 19:20 </text>
<text x="360" y="-43540" text-anchor="middle" dominant-baseline="middle" fill="black"> 1571 </text>
<text x="360" y="-43500" text-anchor="middle" dominant-baseline="middle" fill="orange"> w=0010000:1 </text>
<text x="360" y="-43440" text-anchor="middle" dominant-baseline="middle" fill="black"> 19:20 </text>
<text x="360" y="-43420" text-anchor="middle" dominant-baseline="middle" fill="black"> 1572 </text>
<text x="360" y="-43380" text-anchor="middle" dominant-baseline="middle" fill="orange"> w=0010000:1 </text>
<text x="840" y="-44160" text-anchor="middle" dominant-baseline="middle" fill="black"> 19:20 </text>
<text x="840" y="-44140" text-anchor="middle" dominant-baseline="middle" fill="black"> 1580 </text>
<text x="840" y="-44100" text-anchor="middle" dominant-baseline="middle" fill="orange"> w=0110011:4 </text>
<text x="840" y="-44080" text-anchor="middle" dominant-baseline="middle" fill="green"> i=0000001:1 </text>
<text x="840" y="-42840" text-anchor="middle" dominant-baseline="middle" fill="black"> 18:19 </text>
<text x="840" y="-42820" text-anchor="middle" dominant-baseline="middle" fill="black"> 1528 </text>
<text x="840" y="-42780" text-anchor="middle" dominant-baseline="middle" fill="orange"> w=1110101:5 </text>
<text x="840" y="-42760" text-anchor="middle" dominant-baseline="middle" fill="green"> i=1100101:4 </text>
<text x="360" y="-43200" text-anchor="middle" dominant-baseline="middle" fill="black"> 18:20 </text>
<text x="360" y="-43180" text-anchor="middle" dominant-baseline="middle" fill="black"> 1563 </text>
<text x="360" y="-43140" text-anchor="middle" dominant-baseline="middle" fill="orange"> w=1110111:6 </text>
<text x="360" y="-43120" text-anchor="middle" dominant-baseline="middle" fill="green"> i=0110110:4 </text>
<text x="240" y="-44160" text-anchor="middle" dominant-baseline="middle" fill="black"> 19:20 </text>
<text x="240" y="-44140" text-anchor="middle" dominant-baseline="middle" fill="black"> 1581 </text>
<text x="240" y="-44100" text-anchor="middle" dominant-baseline="middle" fill="orange"> w=0110011:4 </text>
<text x="240" y="-44080" text-anchor="middle" dominant-baseline="middle" fill="green"> i=0100001:2 </text>
<text x="360" y="-43080" text-anchor="middle" dominant-baseline="middle" fill="black"> 18:20 </text>
<text x="360" y="-43060" text-anchor="middle" dominant-baseline="middle" fill="black"> 1564 </text>
<text x="360" y="-43020" text-anchor="middle" dominant-baseline="middle" fill="orange"> w=1110111:6 </text>
<text x="360" y="-43000" text-anchor="middle" dominant-baseline="middle" fill="green"> i=0110110:4 </text>
<text x="360" y="-42960" text-anchor="middle" dominant-baseline="middle" fill="black"> 18:19 </text>
<text x="360" y="-42940" text-anchor="middle" dominant-baseline="middle" fill="black"> 1555 </text>
<text x="360" y="-42900" text-anchor="middle" dominant-baseline="middle" fill="orange"> w=1110111:6 </text>
<text x="360" y="-42880" text-anchor="middle" dominant-baseline="middle" fill="green"> i=0110110:4 </text>
<text x="840" y="-42960" text-anchor="middle" dominant-baseline="middle" fill="black"> 18:20 </text>
<text x="840" y="-42940" text-anchor="middle" dominant-baseline="middle" fill="black"> 1529 </text>
<text x="840" y="-42900" text-anchor="middle" dominant-baseline="middle" fill="orange"> w=1110101:5 </text>
<text x="840" y="-42880" text-anchor="middle" dominant-baseline="middle" fill="green"> i=1100101:4 </text>
<text x="120" y="-43560" text-anchor="middle" dominant-baseline="middle" fill="black"> 19:22 </text>
<text x="120" y="-43540" text-anchor="middle" dominant-baseline="middle" fill="black"> 1621 </text>
<text x="120" y="-43500" text-anchor="middle" dominant-baseline="middle" fill="orange"> w=1000000:1 </text>
<text x="840" y="-43800" text-anchor="middle" dominant-baseline="middle" fill="black"> 19:20 </text>
<text x="840" y="-43780" text-anchor="middle" dominant-baseline="middle" fill="black"> 1569 </text>
<text x="840" y="-43740" text-anchor="middle" dominant-baseline="middle" fill="orange"> w=0010011:3 </text>
<text x="840" y="-43720" text-anchor="middle" dominant-baseline="middle" fill="green"> i=0000001:1 </text>
<text x="600" y="-42840" text-anchor="middle" dominant-baseline="middle" fill="black"> 18:20 </text>
<text x="600" y="-42820" text-anchor="middle" dominant-baseline="middle" fill="black"> 1600 </text>
<text x="600" y="-42780" text-anchor="middle" dominant-baseline="middle" fill="orange"> w=1010101:4 </text>
<text x="600" y="-42760" text-anchor="middle" dominant-baseline="middle" fill="green"> i=1000100:2 </text>
<text x="240" y="-44040" text-anchor="middle" dominant-baseline="middle" fill="black"> 19:20 </text>
<text x="240" y="-44020" text-anchor="middle" dominant-baseline="middle" fill="black"> 1573 </text>
<text x="240" y="-43980" text-anchor="middle" dominant-baseline="middle" fill="orange"> w=0110000:2 </text>
<text x="600" y="-43920" text-anchor="middle" dominant-baseline="middle" fill="black"> 19:20 </text>
<text x="600" y="-43900" text-anchor="middle" dominant-baseline="middle" fill="black"> 1612 </text>
<text x="600" y="-43860" text-anchor="middle" dominant-baseline="middle" fill="orange"> w=0010100:2 </text>
<text x="120" y="-42960" text-anchor="middle" dominant-baseline="middle" fill="black"> 18:20 </text>
<text x="120" y="-42940" text-anchor="middle" dominant-baseline="middle" fill="black"> 1625 </text>
<text x="120" y="-42900" text-anchor="middle" dominant-baseline="middle" fill="orange"> w=1011101:5 </text>
<text x="120" y="-42880" text-anchor="middle" dominant-baseline="middle" fill="green"> i=1000100:2 </text>
<text x="360" y="-43920" text-anchor="middle" dominant-baseline="middle" fill="black"> 19:20 </text>
<text x="360" y="-43900" text-anchor="middle" dominant-baseline="middle" fill="black"> 1648 </text>
<text x="360" y="-43860" text-anchor="middle" dominant-baseline="middle" fill="orange"> w=0010011:3 </text>
<text x="360" y="-43840" text-anchor="middle" dominant-baseline="middle" fill="green"> i=0010000:1 </text>
<text x="480" y="-43680" text-anchor="middle" dominant-baseline="middle" fill="black"> 19:20 </text>
<text x="480" y="-43660" text-anchor="middle" dominant-baseline="middle" fill="black"> 1661 </text>
<text x="480" y="-43620" text-anchor="middle" dominant-baseline="middle" fill="orange"> w=1001000:2 </text>
<text x="720" y="-43320" text-anchor="middle" dominant-baseline="middle" fill="black"> 19:21 </text>
<text x="720" y="-43300" text-anchor="middle" dominant-baseline="middle" fill="black"> 1607 </text>
<text x="720" y="-43260" text-anchor="middle" dominant-baseline="middle" fill="orange"> w=0000010:1 </text>
<text x="720" y="-43680" text-anchor="middle" dominant-baseline="middle" fill="black"> 19:21 </text>
<text x="720" y="-43660" text-anchor="middle" dominant-baseline="middle" fill="black"> 1605 </text>
<text x="720" y="-43620" text-anchor="middle" dominant-baseline="middle" fill="orange"> w=0010010:2 </text>
<text x="720" y="-43600" text-anchor="middle" dominant-baseline="middle" fill="green"> i=0000010:1 </text>
<text x="840" y="-43320" text-anchor="middle" dominant-baseline="middle" fill="black"> 19:20 </text>
<text x="840" y="-43300" text-anchor="middle" dominant-baseline="middle" fill="black"> 1562 </text>
<text x="840" y="-43260" text-anchor="middle" dominant-baseline="middle" fill="orange"> w=0000011:2 </text>
<text x="840" y="-43240" text-anchor="middle" dominant-baseline="middle" fill="red"> s=1110111:6 </text>
<text x="840" y="-43220" text-anchor="middle" dominant-baseline="middle" fill="blue"> v=1111111:7 </text>
<text x="760" y="-43320" text-anchor="middle" dominant-baseline="middle" fill="blue"> yes 7 </text>
<text x="840" y="-43340" text-anchor="middle" dominant-baseline="middle" fill="black"> d=1111111:7 </text>
<text x="480" y="-43080" text-anchor="middle" dominant-baseline="middle" fill="black"> 18:20 </text>
<text x="480" y="-43060" text-anchor="middle" dominant-baseline="middle" fill="black"> 1598 </text>
<text x="480" y="-43020" text-anchor="middle" dominant-baseline="middle" fill="orange"> w=1111101:6 </text>
<text x="480" y="-43000" text-anchor="middle" dominant-baseline="middle" fill="green"> i=1101101:5 </text>
<text x="120" y="-43320" text-anchor="middle" dominant-baseline="middle" fill="black"> 19:20 </text>
<text x="120" y="-43300" text-anchor="middle" dominant-baseline="middle" fill="black"> 1623 </text>
<text x="120" y="-43260" text-anchor="middle" dominant-baseline="middle" fill="orange"> w=1000000:1 </text>
<text x="480" y="-43920" text-anchor="middle" dominant-baseline="middle" fill="black"> 19:20 </text>
<text x="480" y="-43900" text-anchor="middle" dominant-baseline="middle" fill="black"> 1659 </text>
<text x="480" y="-43860" text-anchor="middle" dominant-baseline="middle" fill="orange"> w=1001000:2 </text>
<text x="840" y="-43560" text-anchor="middle" dominant-baseline="middle" fill="black"> 19:20 </text>
<text x="840" y="-43540" text-anchor="middle" dominant-baseline="middle" fill="black"> 1567 </text>
<text x="840" y="-43500" text-anchor="middle" dominant-baseline="middle" fill="orange"> w=0010011:3 </text>
<text x="840" y="-43480" text-anchor="middle" dominant-baseline="middle" fill="green"> i=0000001:1 </text>
<text x="240" y="-42960" text-anchor="middle" dominant-baseline="middle" fill="black"> 18:20 </text>
<text x="240" y="-42940" text-anchor="middle" dominant-baseline="middle" fill="black"> 1576 </text>
<text x="240" y="-42900" text-anchor="middle" dominant-baseline="middle" fill="orange"> w=1110111:6 </text>
<text x="240" y="-42880" text-anchor="middle" dominant-baseline="middle" fill="green"> i=0110100:3 </text>
<text x="480" y="-43200" text-anchor="middle" dominant-baseline="middle" fill="black"> 18:20 </text>
<text x="480" y="-43180" text-anchor="middle" dominant-baseline="middle" fill="black"> 1602 </text>
<text x="480" y="-43140" text-anchor="middle" dominant-baseline="middle" fill="orange"> w=1111101:6 </text>
<text x="480" y="-43120" text-anchor="middle" dominant-baseline="middle" fill="green"> i=1101101:5 </text>
<text x="480" y="-43560" text-anchor="middle" dominant-baseline="middle" fill="black"> 19:20 </text>
<text x="480" y="-43540" text-anchor="middle" dominant-baseline="middle" fill="black"> 1662 </text>
<text x="480" y="-43500" text-anchor="middle" dominant-baseline="middle" fill="orange"> w=1001000:2 </text>
<text x="720" y="-43080" text-anchor="middle" dominant-baseline="middle" fill="black"> 18:20 </text>
<text x="720" y="-43060" text-anchor="middle" dominant-baseline="middle" fill="black"> 1559 </text>
<text x="720" y="-43020" text-anchor="middle" dominant-baseline="middle" fill="orange"> w=1110111:6 </text>
<text x="720" y="-43000" text-anchor="middle" dominant-baseline="middle" fill="green"> i=0110110:4 </text>
<text x="360" y="-44160" text-anchor="middle" dominant-baseline="middle" fill="black"> 19:20 </text>
<text x="360" y="-44140" text-anchor="middle" dominant-baseline="middle" fill="black"> 1653 </text>
<text x="360" y="-44100" text-anchor="middle" dominant-baseline="middle" fill="orange"> w=0010111:4 </text>
<text x="360" y="-44080" text-anchor="middle" dominant-baseline="middle" fill="green"> i=0010000:1 </text>
<text x="840" y="-43680" text-anchor="middle" dominant-baseline="middle" fill="black"> 19:20 </text>
<text x="840" y="-43660" text-anchor="middle" dominant-baseline="middle" fill="black"> 1568 </text>
<text x="840" y="-43620" text-anchor="middle" dominant-baseline="middle" fill="orange"> w=0010011:3 </text>
<text x="840" y="-43600" text-anchor="middle" dominant-baseline="middle" fill="green"> i=0000001:1 </text>
<text x="360" y="-43320" text-anchor="middle" dominant-baseline="middle" fill="black"> 19:20 </text>
<text x="360" y="-43300" text-anchor="middle" dominant-baseline="middle" fill="black"> 1566 </text>
<text x="360" y="-43260" text-anchor="middle" dominant-baseline="middle" fill="orange"> w=0010000:1 </text>
<text x="360" y="-43240" text-anchor="middle" dominant-baseline="middle" fill="red"> s=1110111:6 </text>
<text x="360" y="-43220" text-anchor="middle" dominant-baseline="middle" fill="blue"> v=1111111:7 </text>
<text x="280" y="-43320" text-anchor="middle" dominant-baseline="middle" fill="blue"> yes 7 </text>
<text x="360" y="-43340" text-anchor="middle" dominant-baseline="middle" fill="black"> d=1011011:5 </text>
<text x="480" y="-43440" text-anchor="middle" dominant-baseline="middle" fill="black"> 19:20 </text>
<text x="480" y="-43420" text-anchor="middle" dominant-baseline="middle" fill="black"> 1663 </text>
<text x="480" y="-43380" text-anchor="middle" dominant-baseline="middle" fill="orange"> w=1001000:2 </text>
<text x="480" y="-43360" text-anchor="middle" dominant-baseline="middle" fill="red"> s=1101101:5 </text>
<text x="480" y="-43340" text-anchor="middle" dominant-baseline="middle" fill="blue"> v=1101011:5 </text>
<text x="400" y="-43440" text-anchor="middle" dominant-baseline="middle" fill="blue"> yes 5 </text>
<text x="480" y="-43460" text-anchor="middle" dominant-baseline="middle" fill="black"> d=0011100:3 </text>
<text x="600" y="-44040" text-anchor="middle" dominant-baseline="middle" fill="black"> 19:20 </text>
<text x="600" y="-44020" text-anchor="middle" dominant-baseline="middle" fill="black"> 1611 </text>
<text x="600" y="-43980" text-anchor="middle" dominant-baseline="middle" fill="orange"> w=0010100:2 </text>
<text x="480" y="-43320" text-anchor="middle" dominant-baseline="middle" fill="black"> 18:20 </text>
<text x="480" y="-43300" text-anchor="middle" dominant-baseline="middle" fill="black"> 1627 </text>
<text x="480" y="-43260" text-anchor="middle" dominant-baseline="middle" fill="orange"> w=1111101:6 </text>
<text x="480" y="-43240" text-anchor="middle" dominant-baseline="middle" fill="green"> i=1101101:5 </text>
<text x="240" y="-43920" text-anchor="middle" dominant-baseline="middle" fill="black"> 19:20 </text>
<text x="240" y="-43900" text-anchor="middle" dominant-baseline="middle" fill="black"> 1574 </text>
<text x="240" y="-43860" text-anchor="middle" dominant-baseline="middle" fill="orange"> w=0110000:2 </text>
<text x="240" y="-43840" text-anchor="middle" dominant-baseline="middle" fill="red"> s=1110111:6 </text>
<text x="240" y="-43820" text-anchor="middle" dominant-baseline="middle" fill="blue"> v=1111111:7 </text>
<text x="160" y="-43920" text-anchor="middle" dominant-baseline="middle" fill="blue"> yes 7 </text>
<text x="240" y="-43940" text-anchor="middle" dominant-baseline="middle" fill="black"> d=1111111:7 </text>
<text x="240" y="-43080" text-anchor="middle" dominant-baseline="middle" fill="black"> 18:20 </text>
<text x="240" y="-43060" text-anchor="middle" dominant-baseline="middle" fill="black"> 1575 </text>
<text x="240" y="-43020" text-anchor="middle" dominant-baseline="middle" fill="orange"> w=1110111:6 </text>
<text x="240" y="-43000" text-anchor="middle" dominant-baseline="middle" fill="green"> i=0110100:3 </text>
<text x="600" y="-43800" text-anchor="middle" dominant-baseline="middle" fill="black"> 19:20 </text>
<text x="600" y="-43780" text-anchor="middle" dominant-baseline="middle" fill="black"> 1610 </text>
<text x="600" y="-43740" text-anchor="middle" dominant-baseline="middle" fill="orange"> w=0010100:2 </text>
<text x="600" y="-43720" text-anchor="middle" dominant-baseline="middle" fill="red"> s=1110111:6 </text>
<text x="600" y="-43700" text-anchor="middle" dominant-baseline="middle" fill="blue"> v=1111111:7 </text>
<text x="520" y="-43800" text-anchor="middle" dominant-baseline="middle" fill="blue"> yes 7 </text>
<text x="600" y="-43820" text-anchor="middle" dominant-baseline="middle" fill="black"> d=0111111:6 </text>
<text x="360" y="-42840" text-anchor="middle" dominant-baseline="middle" fill="black"> 18:19 </text>
<text x="360" y="-42820" text-anchor="middle" dominant-baseline="middle" fill="black"> 1552 </text>
<text x="360" y="-42780" text-anchor="middle" dominant-baseline="middle" fill="orange"> w=1110111:6 </text>
<text x="360" y="-42760" text-anchor="middle" dominant-baseline="middle" fill="green"> i=0110100:3 </text>
<text x="840" y="-43440" text-anchor="middle" dominant-baseline="middle" fill="black"> 19:20 </text>
<text x="840" y="-43420" text-anchor="middle" dominant-baseline="middle" fill="black"> 1565 </text>
<text x="840" y="-43380" text-anchor="middle" dominant-baseline="middle" fill="orange"> w=0000011:2 </text>
<text x="480" y="-43800" text-anchor="middle" dominant-baseline="middle" fill="black"> 19:20 </text>
<text x="480" y="-43780" text-anchor="middle" dominant-baseline="middle" fill="black"> 1660 </text>
<text x="480" y="-43740" text-anchor="middle" dominant-baseline="middle" fill="orange"> w=1001000:2 </text>
<text x="360" y="-44040" text-anchor="middle" dominant-baseline="middle" fill="black"> 19:20 </text>
<text x="360" y="-44020" text-anchor="middle" dominant-baseline="middle" fill="black"> 1647 </text>
<text x="360" y="-43980" text-anchor="middle" dominant-baseline="middle" fill="orange"> w=0010011:3 </text>
<text x="360" y="-43960" text-anchor="middle" dominant-baseline="middle" fill="green"> i=0010000:1 </text>
<text x="480" y="-42960" text-anchor="middle" dominant-baseline="middle" fill="black"> 18:20 </text>
<text x="480" y="-42940" text-anchor="middle" dominant-baseline="middle" fill="black"> 1599 </text>
<text x="480" y="-42900" text-anchor="middle" dominant-baseline="middle" fill="orange"> w=1111101:6 </text>
<text x="480" y="-42880" text-anchor="middle" dominant-baseline="middle" fill="green"> i=1101101:5 </text>
<text x="120" y="-42840" text-anchor="middle" dominant-baseline="middle" fill="black"> 18:20 </text>
<text x="120" y="-42820" text-anchor="middle" dominant-baseline="middle" fill="black"> 1626 </text>
<text x="120" y="-42780" text-anchor="middle" dominant-baseline="middle" fill="orange"> w=1011101:5 </text>
<text x="120" y="-42760" text-anchor="middle" dominant-baseline="middle" fill="green"> i=1000100:2 </text>
<text x="360" y="-43800" text-anchor="middle" dominant-baseline="middle" fill="black"> 19:20 </text>
<text x="360" y="-43780" text-anchor="middle" dominant-baseline="middle" fill="black"> 1579 </text>
<text x="360" y="-43740" text-anchor="middle" dominant-baseline="middle" fill="orange"> w=0010000:1 </text>
<text x="240" y="-42840" text-anchor="middle" dominant-baseline="middle" fill="black"> 18:20 </text>
<text x="240" y="-42820" text-anchor="middle" dominant-baseline="middle" fill="black"> 1577 </text>
<text x="240" y="-42780" text-anchor="middle" dominant-baseline="middle" fill="orange"> w=1110111:6 </text>
<text x="240" y="-42760" text-anchor="middle" dominant-baseline="middle" fill="green"> i=0110100:3 </text>
<text x="120" y="-43440" text-anchor="middle" dominant-baseline="middle" fill="black"> 19:20 </text>
<text x="120" y="-43420" text-anchor="middle" dominant-baseline="middle" fill="black"> 1622 </text>
<text x="120" y="-43380" text-anchor="middle" dominant-baseline="middle" fill="orange"> w=1000000:1 </text>
<text x="600" y="-44160" text-anchor="middle" dominant-baseline="middle" fill="black"> 19:20 </text>
<text x="600" y="-44140" text-anchor="middle" dominant-baseline="middle" fill="black"> 1615 </text>
<text x="600" y="-44100" text-anchor="middle" dominant-baseline="middle" fill="orange"> w=0010100:2 </text>
<text x="120" y="-43200" text-anchor="middle" dominant-baseline="middle" fill="black"> 19:20 </text>
<text x="120" y="-43180" text-anchor="middle" dominant-baseline="middle" fill="black"> 1624 </text>
<text x="120" y="-43140" text-anchor="middle" dominant-baseline="middle" fill="orange"> w=1000000:1 </text>
<text x="120" y="-43120" text-anchor="middle" dominant-baseline="middle" fill="red"> s=1101101:5 </text>
<text x="120" y="-43100" text-anchor="middle" dominant-baseline="middle" fill="blue"> v=1000001:2 </text>
<text x="40" y="-43200" text-anchor="middle" dominant-baseline="middle" fill="blue"> yes 2 </text>
<text x="120" y="-43220" text-anchor="middle" dominant-baseline="middle" fill="black"> d=1010101:4 </text>
<text x="360" y="-43680" text-anchor="middle" dominant-baseline="middle" fill="black"> 19:20 </text>
<text x="360" y="-43660" text-anchor="middle" dominant-baseline="middle" fill="black"> 1570 </text>
<text x="360" y="-43620" text-anchor="middle" dominant-baseline="middle" fill="orange"> w=0010000:1 </text>
</g>
</svg>
