<svg id="hashgraph" width="960" height="1800" xmlns="http://www.w3.org/2000/svg">
<g transform="translate(0,44400)">
<line x1="120" y1="-43440" x2="240" y2="-43080" style="stroke: #4caf50; stroke-width: 10"/>
<line x1="120" y1="-43440" x2="120" y2="-43320" style="stroke: #f06292; stroke-width: 10"/>
<line x1="240" y1="-44040" x2="240" y2="-43920" style="stroke: #4caf50; stroke-width: 10"/>
<line x1="840" y1="-43200" x2="600" y2="-43080" style="stroke: #ffeb3b; stroke-width: 10"/>
<line x1="600" y1="-43800" x2="600" y2="-43680" style="stroke: #ffeb3b; stroke-width: 10"/>
<line x1="600" y1="-44040" x2="480" y2="-43920" style="stroke: #ff9800; stroke-width: 10"/>
<line x1="600" y1="-44040" x2="600" y2="-43920" style="stroke: #ffeb3b; stroke-width: 10"/>
<line x1="600" y1="-43560" x2="600" y2="-43440" style="stroke: red; stroke-width: 10"/>
<line x1="600" y1="-44160" x2="240" y2="-44040" style="stroke: #4caf50; stroke-width: 10"/>
<line x1="600" y1="-44160" x2="600" y2="-44040" style="stroke: #ffeb3b; stroke-width: 10"/>
<line x1="120" y1="-44040" x2="840" y2="-43920" style="stroke: #e91e63; stroke-width: 10"/>
<line x1="120" y1="-44040" x2="120" y2="-43800" style="stroke: #f06292; stroke-width: 10"/>
<line x1="120" y1="-44160" x2="120" y2="-44040" style="stroke: red; stroke-width: 10"/>
<line x1="720" y1="-43320" x2="600" y2="-42960" style="stroke: #ffeb3b; stroke-width: 10"/>
<line x1="720" y1="-43320" x2="720" y2="-43200" style="stroke: #795548; stroke-width: 10"/>
<line x1="240" y1="-43800" x2="720" y2="-43680" style="stroke: #795548; stroke-width: 10"/>
<line x1="240" y1="-43800" x2="240" y2="-43680" style="stroke: #4caf50; stroke-width: 10"/>
<line x1="840" y1="-43440" x2="840" y2="-43320" style="stroke: #e91e63; stroke-width: 10"/>
<line x1="240" y1="-43200" x2="240" y2="-43080" style="stroke: #4caf50; stroke-width: 10"/>
<line x1="600" y1="-43440" x2="720" y2="-43080" style="stroke: #795548; stroke-width: 10"/>
<line x1="600" y1="-43440" x2="600" y2="-43320" style="stroke: #ffeb3b; stroke-width: 10"/>
<line x1="720" y1="-44160" x2="720" y2="-44040" style="stroke: #795548; stroke-width: 10"/>
<line x1="120" y1="-43080" x2="120" y2="-42960" style="stroke: #f06292; stroke-width: 10"/>
<line x1="600" y1="-43680" x2="600" y2="-43560" style="stroke: #ffeb3b; stroke-width: 10"/>
<line x1="360" y1="-43800" x2="120" y2="-43680" style="stroke: #f06292; stroke-width: 10"/>
<line x1="360" y1="-43800" x2="360" y2="-43320" style="stroke: #9c27b0; stroke-width: 10"/>
<line x1="120" y1="-43320" x2="120" y2="-43200" style="stroke: #f06292; stroke-width: 10"/>
<line x1="240" y1="-43680" x2="840" y2="-43320" style="stroke: #e91e63; stroke-width: 10"/>
<line x1="240" y1="-43680" x2="240" y2="-43560" style="stroke: #4caf50; stroke-width: 10"/>
<line x1="600" y1="-43080" x2="600" y2="-42960" style="stroke: #ffeb3b; stroke-width: 10"/>
<line x1="720" y1="-43800" x2="720" y2="-43680" style="stroke: #795548; stroke-width: 10"/>
<line x1="240" y1="-43560" x2="120" y2="-43440" style="stroke: #f06292; stroke-width: 10"/>
<line x1="240" y1="-43560" x2="240" y2="-43440" style="stroke: #4caf50; stroke-width: 10"/>
<line x1="720" y1="-43080" x2="720" y2="-42960" style="stroke: red; stroke-width: 10"/>
<line x1="480" y1="-43920" x2="600" y2="-43800" style="stroke: #ffeb3b; stroke-width: 10"/>
<line x1="480" y1="-43920" x2="480" y2="-42960" style="stroke: #ff9800; stroke-width: 10"/>
<line x1="600" y1="-43920" x2="600" y2="-43800" style="stroke: #ffeb3b; stroke-width: 10"/>
<line x1="480" y1="-44160" x2="480" y2="-44040" style="stroke: #ff9800; stroke-width: 10"/>
<line x1="720" y1="-43920" x2="240" y2="-43800" style="stroke: #4caf50; stroke-width: 10"/>
<line x1="720" y1="-43920" x2="720" y2="-43800" style="stroke: #795548; stroke-width: 10"/>
<line x1="120" y1="-43200" x2="120" y2="-43080" style="stroke: #f06292; stroke-width: 10"/>
<line x1="120" y1="-43800" x2="240" y2="-43440" style="stroke: #4caf50; stroke-width: 10"/>
<line x1="120" y1="-43800" x2="120" y2="-43680" style="stroke: #f06292; stroke-width: 10"/>
<line x1="720" y1="-44040" x2="720" y2="-43920" style="stroke: #795548; stroke-width: 10"/>
<line x1="360" y1="-44160" x2="360" y2="-44040" style="stroke: red; stroke-width: 10"/>
<line x1="720" y1="-43560" x2="600" y2="-43440" style="stroke: #ffeb3b; stroke-width: 10"/>
<line x1="720" y1="-43560" x2="720" y2="-43320" style="stroke: #795548; stroke-width: 10"/>
<line x1="360" y1="-44040" x2="720" y2="-43800" style="stroke: #795548; stroke-width: 10"/>
<line x1="360" y1="-44040" x2="360" y2="-43920" style="stroke: #9c27b0; stroke-width: 10"/>
<line x1="720" y1="-43680" x2="720" y2="-43560" style="stroke: #795548; stroke-width: 10"/>
<line x1="840" y1="-43920" x2="840" y2="-43800" style="stroke: red; stroke-width: 10"/>
<line x1="240" y1="-42960" x2="120" y2="-42840" style="stroke: #f06292; stroke-width: 10"/>
<line x1="240" y1="-42960" x2="240" y2="-42840" style="stroke: #4caf50; stroke-width: 10"/>
<line x1="360" y1="-43320" x2="360" y2="-43200" style="stroke: #9c27b0; stroke-width: 10"/>
<line x1="120" y1="-43680" x2="120" y2="-43560" style="stroke: #f06292; stroke-width: 10"/>
<line x1="360" y1="-43200" x2="120" y2="-43080" style="stroke: #f06292; stroke-width: 10"/>
<line x1="840" y1="-44040" x2="840" y2="-43920" style="stroke: #e91e63; stroke-width: 10"/>
<line x1="600" y1="-42960" x2="720" y2="-42840" style="stroke: #795548; stroke-width: 10"/>
<line x1="360" y1="-43920" x2="360" y2="-43800" style="stroke: #9c27b0; stroke-width: 10"/>
<line x1="120" y1="-42960" x2="120" y2="-42840" style="stroke: #f06292; stroke-width: 10"/>
<line x1="480" y1="-42960" x2="480" y2="-42840" style="stroke: #ff9800; stroke-width: 10"/>
<line x1="480" y1="-44040" x2="480" y2="-43920" style="stroke: red; stroke-width: 10"/>
<line x1="120" y1="-43560" x2="120" y2="-43440" style="stroke: #f06292; stroke-width: 10"/>
<line x1="240" y1="-43320" x2="240" y2="-43200" style="stroke: #4caf50; stroke-width: 10"/>
<line x1="600" y1="-43320" x2="840" y2="-43200" style="stroke: #e91e63; stroke-width: 10"/>
<line x1="600" y1="-43320" x2="600" y2="-43080" style="stroke: #ffeb3b; stroke-width: 10"/>
<line x1="840" y1="-43800" x2="240" y2="-43680" style="stroke: #4caf50; stroke-width: 10"/>
<line x1="840" y1="-43800" x2="840" y2="-43440" style="stroke: #e91e63; stroke-width: 10"/>
<line x1="240" y1="-43080" x2="240" y2="-42960" style="stroke: #4caf50; stroke-width: 10"/>
<line x1="840" y1="-43320" x2="840" y2="-43200" style="stroke: red; stroke-width: 10"/>
<line x1="240" y1="-43920" x2="120" y2="-43800" style="stroke: #f06292; stroke-width: 10"/>
<line x1="240" y1="-43920" x2="240" y2="-43800" style="stroke: red; stroke-width: 10"/>
<line x1="720" y1="-43200" x2="720" y2="-43080" style="stroke: #795548; stroke-width: 10"/>
<line x1="240" y1="-44160" x2="600" y2="-43680" style="stroke: #ffeb3b; stroke-width: 10"/>
<line x1="240" y1="-44160" x2="240" y2="-44040" style="stroke: #4caf50; stroke-width: 10"/>
<line x1="240" y1="-43440" x2="240" y2="-43320" style="stroke: #4caf50; stroke-width: 10"/>
<line x1="720" y1="-42960" x2="720" y2="-42840" style="stroke: #795548; stroke-width: 10"/>
<rect x="550" y="-44090" width="100" height="100" fill="" fill-opacity="0.000000" stroke="darkblue" stroke-width="4" stroke-dasharray="10,10" />
<rect x="550" y="-44210" width="100" height="100" fill="" fill-opacity="0.000000" stroke="darkblue" stroke-width="4" stroke-dasharray="10,10" />
<rect x="430" y="-42890" width="100" height="100" fill="" fill-opacity="0.000000" stroke="darkblue" stroke-width="4" stroke-dasharray="10,10" />
<rect x="190" y="-43730" width="100" height="100" fill="" fill-opacity="0.000000" stroke="darkblue" stroke-width="4" stroke-dasharray="10,10" />
<rect x="670" y="-43970" width="100" height="100" fill="" fill-opacity="0.000000" stroke="darkblue" stroke-width="4" stroke-dasharray="10,10" />
<rect x="670" y="-43610" width="100" height="100" fill="" fill-opacity="0.000000" stroke="darkblue" stroke-width="4" stroke-dasharray="10,10" />
<rect x="310" y="-43250" width="100" height="100" fill="" fill-opacity="0.000000" stroke="darkblue" stroke-width="4" stroke-dasharray="10,10" />
<rect x="550" y="-43370" width="100" height="100" fill="" fill-opacity="0.000000" stroke="darkblue" stroke-width="4" stroke-dasharray="10,10" />
<circle cx="120" cy="-43440" r="40" fill="#e5d8bd" stroke="black" stroke-width="4" stroke-dasharray="" />
<circle cx="240" cy="-44040" r="40" fill="#e5d8bd" stroke="black" stroke-width="4" stroke-dasharray="" />
<circle cx="840" cy="-43200" r="50" fill="#9c27b0" stroke="red" stroke-width="10" stroke-dasharray="" />
<circle cx="600" cy="-43800" r="40" fill="#e5d8bd" stroke="black" stroke-width="4" stroke-dasharray="" />
<circle cx="600" cy="-44040" r="40" fill="#e5d8bd" stroke="black" stroke-width="4" stroke-dasharray="" />
<circle cx="600" cy="-43560" r="40" fill="#e5d8bd" stroke="black" stroke-width="4" stroke-dasharray="" />
<circle cx="600" cy="-44160" r="40" fill="#e5d8bd" stroke="black" stroke-width="4" stroke-dasharray="" />
<circle cx="120" cy="-44040" r="50" fill="#ff9800" stroke="red" stroke-width="10" stroke-dasharray="" />
<circle cx="120" cy="-44160" r="40" fill="#e5d8bd" stroke="black" stroke-width="4" stroke-dasharray="" />
<circle cx="720" cy="-43320" r="40" fill="#e5d8bd" stroke="black" stroke-width="4" stroke-dasharray="" />
<circle cx="240" cy="-43800" r="50" fill="#ff9800" stroke="red" stroke-width="10" stroke-dasharray="" />
<circle cx="840" cy="-43440" r="40" fill="#e5d8bd" stroke="black" stroke-width="4" stroke-dasharray="" />
<circle cx="240" cy="-43200" r="40" fill="#e5d8bd" stroke="black" stroke-width="4" stroke-dasharray="" />
<circle cx="600" cy="-43440" r="50" fill="#ff9800" stroke="green" stroke-width="10" stroke-dasharray="" />
<circle cx="720" cy="-44160" r="40" fill="#e5d8bd" stroke="black" stroke-width="4" stroke-dasharray="" />
<circle cx="120" cy="-43080" r="40" fill="#e5d8bd" stroke="black" stroke-width="4" stroke-dasharray="" />
<circle cx="480" cy="-42840" r="40" fill="#e5d8bd" stroke="black" stroke-width="4" stroke-dasharray="" />
<circle cx="600" cy="-43680" r="40" fill="#e5d8bd" stroke="black" stroke-width="4" stroke-dasharray="" />
<circle cx="360" cy="-43800" r="40" fill="#e5d8bd" stroke="black" stroke-width="4" stroke-dasharray="" />
<circle cx="120" cy="-43320" r="40" fill="#e5d8bd" stroke="black" stroke-width="4" stroke-dasharray="" />
<circle cx="240" cy="-43680" r="40" fill="#e5d8bd" stroke="black" stroke-width="4" stroke-dasharray="" />
<circle cx="600" cy="-43080" r="40" fill="#e5d8bd" stroke="black" stroke-width="4" stroke-dasharray="" />
<circle cx="720" cy="-42840" r="40" fill="#e5d8bd" stroke="black" stroke-width="4" stroke-dasharray="" />
<circle cx="720" cy="-43800" r="40" fill="#e5d8bd" stroke="black" stroke-width="4" stroke-dasharray="" />
<circle cx="240" cy="-43560" r="40" fill="#e5d8bd" stroke="black" stroke-width="4" stroke-dasharray="" />
<circle cx="720" cy="-43080" r="40" fill="#e5d8bd" stroke="black" stroke-width="4" stroke-dasharray="" />
<circle cx="480" cy="-43920" r="50" fill="#ff9800" stroke="green" stroke-width="10" stroke-dasharray="" />
<circle cx="600" cy="-43920" r="40" fill="#e5d8bd" stroke="black" stroke-width="4" stroke-dasharray="" />
<circle cx="480" cy="-44160" r="40" fill="#e5d8bd" stroke="black" stroke-width="4" stroke-dasharray="" />
<circle cx="120" cy="-42840" r="40" fill="#e5d8bd" stroke="black" stroke-width="4" stroke-dasharray="" />
<circle cx="720" cy="-43920" r="40" fill="#e5d8bd" stroke="black" stroke-width="4" stroke-dasharray="" />
<circle cx="120" cy="-43200" r="40" fill="#e5d8bd" stroke="black" stroke-width="4" stroke-dasharray="" />
<circle cx="120" cy="-43800" r="40" fill="#e5d8bd" stroke="black" stroke-width="4" stroke-dasharray="" />
<circle cx="720" cy="-44040" r="40" fill="#e5d8bd" stroke="black" stroke-width="4" stroke-dasharray="" />
<circle cx="360" cy="-44160" r="40" fill="#e5d8bd" stroke="black" stroke-width="4" stroke-dasharray="" />
<circle cx="720" cy="-43560" r="40" fill="#e5d8bd" stroke="black" stroke-width="4" stroke-dasharray="" />
<circle cx="360" cy="-44040" r="50" fill="#ff9800" stroke="green" stroke-width="10" stroke-dasharray="" />
<circle cx="720" cy="-43680" r="40" fill="#e5d8bd" stroke="black" stroke-width="4" stroke-dasharray="" />
<circle cx="840" cy="-43920" r="40" fill="#e5d8bd" stroke="black" stroke-width="4" stroke-dasharray="" />
<circle cx="240" cy="-42960" r="40" fill="#e5d8bd" stroke="black" stroke-width="4" stroke-dasharray="" />
<circle cx="360" cy="-43320" r="40" fill="#e5d8bd" stroke="black" stroke-width="4" stroke-dasharray="" />
<circle cx="240" cy="-42840" r="40" fill="#e5d8bd" stroke="black" stroke-width="4" stroke-dasharray="" />
<circle cx="120" cy="-43680" r="40" fill="#e5d8bd" stroke="black" stroke-width="4" stroke-dasharray="" />
<circle cx="360" cy="-43200" r="40" fill="#e5d8bd" stroke="black" stroke-width="4" stroke-dasharray="" />
<circle cx="840" cy="-44040" r="40" fill="#e5d8bd" stroke="black" stroke-width="4" stroke-dasharray="" />
<circle cx="600" cy="-42960" r="40" fill="#e5d8bd" stroke="black" stroke-width="4" stroke-dasharray="" />
<circle cx="360" cy="-43920" r="40" fill="#e5d8bd" stroke="black" stroke-width="4" stroke-dasharray="" />
<circle cx="120" cy="-42960" r="40" fill="#e5d8bd" stroke="black" stroke-width="4" stroke-dasharray="" />
<circle cx="480" cy="-42960" r="40" fill="#e5d8bd" stroke="black" stroke-width="4" stroke-dasharray="" />
<circle cx="480" cy="-44040" r="40" fill="#e5d8bd" stroke="black" stroke-width="4" stroke-dasharray="" />
<circle cx="120" cy="-43560" r="40" fill="#e5d8bd" stroke="black" stroke-width="4" stroke-dasharray="" />
<circle cx="240" cy="-43320" r="40" fill="#e5d8bd" stroke="black" stroke-width="4" stroke-dasharray="" />
<circle cx="600" cy="-43320" r="40" fill="#e5d8bd" stroke="black" stroke-width="4" stroke-dasharray="" />
<circle cx="840" cy="-43800" r="50" fill="#ff9800" stroke="red" stroke-width="10" stroke-dasharray="" />
<circle cx="240" cy="-43080" r="40" fill="#e5d8bd" stroke="black" stroke-width="4" stroke-dasharray="" />
<circle cx="840" cy="-43320" r="40" fill="#e5d8bd" stroke="black" stroke-width="4" stroke-dasharray="" />
<circle cx="240" cy="-43920" r="40" fill="#e5d8bd" stroke="black" stroke-width="4" stroke-dasharray="" />
<circle cx="720" cy="-43200" r="40" fill="#e5d8bd" stroke="black" stroke-width="4" stroke-dasharray="" />
<circle cx="240" cy="-44160" r="40" fill="#e5d8bd" stroke="black" stroke-width="4" stroke-dasharray="" />
<circle cx="240" cy="-43440" r="40" fill="#e5d8bd" stroke="black" stroke-width="4" stroke-dasharray="" />
<circle cx="720" cy="-42960" r="50" fill="#ff9800" stroke="green" stroke-width="10" stroke-dasharray="" />
<text x="120" y="-43440" text-anchor="middle" dominant-baseline="middle" fill="black"> 19:22 </text>
<text x="120" y="-43420" text-anchor="middle" dominant-baseline="middle" fill="black"> 1606 </text>
<text x="120" y="-43380" text-anchor="middle" dominant-baseline="middle" fill="orange"> 1110010:4 </text>
<text x="120" y="-43360" text-anchor="middle" dominant-baseline="middle" fill="green"> 1110010:4 </text>
<text x="240" y="-44040" text-anchor="middle" dominant-baseline="middle" fill="black"> 20:22 </text>
<text x="240" y="-44020" text-anchor="middle" dominant-baseline="middle" fill="black"> 1632 </text>
<text x="240" y="-43980" text-anchor="middle" dominant-baseline="middle" fill="orange"> 0100110:3 </text>
<text x="840" y="-43200" text-anchor="middle" dominant-baseline="middle" fill="black"> 19:22 </text>
<text x="840" y="-43180" text-anchor="middle" dominant-baseline="middle" fill="black"> 1589 </text>
<text x="840" y="-43140" text-anchor="middle" dominant-baseline="middle" fill="orange"> 1010111:5 </text>
<text x="840" y="-43120" text-anchor="middle" dominant-baseline="middle" fill="red"> 1111111:7 </text>
<text x="840" y="-43100" text-anchor="middle" dominant-baseline="middle" fill="blue"> 1000001:2 </text>
<text x="760" y="-43200" text-anchor="middle" dominant-baseline="middle" fill="blue"> yes 2 </text>
<text x="840" y="-43220" text-anchor="middle" dominant-baseline="middle" fill="black"> 1000001:2 </text>
<text x="600" y="-43800" text-anchor="middle" dominant-baseline="middle" fill="black"> 20:22 </text>
<text x="600" y="-43780" text-anchor="middle" dominant-baseline="middle" fill="black"> 1649 </text>
<text x="600" y="-43740" text-anchor="middle" dominant-baseline="middle" fill="orange"> 0000110:2 </text>
<text x="600" y="-44040" text-anchor="middle" dominant-baseline="middle" fill="black"> 20:22 </text>
<text x="600" y="-44020" text-anchor="middle" dominant-baseline="middle" fill="black"> 1658 </text>
<text x="600" y="-43980" text-anchor="middle" dominant-baseline="middle" fill="orange"> 0001110:3 </text>
<text x="600" y="-43960" text-anchor="middle" dominant-baseline="middle" fill="green"> 0000100:1 </text>
<text x="600" y="-43560" text-anchor="middle" dominant-baseline="middle" fill="black"> 20:22 </text>
<text x="600" y="-43540" text-anchor="middle" dominant-baseline="middle" fill="black"> 1640 </text>
<text x="600" y="-43500" text-anchor="middle" dominant-baseline="middle" fill="orange"> 0000110:2 </text>
<text x="600" y="-44160" text-anchor="middle" dominant-baseline="middle" fill="black"> 20:22 </text>
<text x="600" y="-44140" text-anchor="middle" dominant-baseline="middle" fill="black"> 1657 </text>
<text x="600" y="-44100" text-anchor="middle" dominant-baseline="middle" fill="orange"> 0101110:4 </text>
<text x="600" y="-44080" text-anchor="middle" dominant-baseline="middle" fill="green"> 0000100:1 </text>
<text x="120" y="-44040" text-anchor="middle" dominant-baseline="middle" fill="black"> 20:22 </text>
<text x="120" y="-44020" text-anchor="middle" dominant-baseline="middle" fill="black"> 1665 </text>
<text x="120" y="-43980" text-anchor="middle" dominant-baseline="middle" fill="orange"> 1000001:2 </text>
<text x="120" y="-43960" text-anchor="middle" dominant-baseline="middle" fill="red"> 1110011:5 </text>
<text x="120" y="-43940" text-anchor="middle" dominant-baseline="middle" fill="blue"> 1000000:1 </text>
<text x="40" y="-44040" text-anchor="middle" dominant-baseline="middle" fill="blue"> yes 1 </text>
<text x="120" y="-44060" text-anchor="middle" dominant-baseline="middle" fill="black"> 1000000:1 </text>
<text x="120" y="-44160" text-anchor="middle" dominant-baseline="middle" fill="black"> 20:22 </text>
<text x="120" y="-44140" text-anchor="middle" dominant-baseline="middle" fill="black"> 1709 </text>
<text x="120" y="-44100" text-anchor="middle" dominant-baseline="middle" fill="orange"> 1000001:2 </text>
<text x="720" y="-43320" text-anchor="middle" dominant-baseline="middle" fill="black"> 20:22 </text>
<text x="720" y="-43300" text-anchor="middle" dominant-baseline="middle" fill="black"> 1621 </text>
<text x="720" y="-43260" text-anchor="middle" dominant-baseline="middle" fill="orange"> 0000010:1 </text>
<text x="240" y="-43800" text-anchor="middle" dominant-baseline="middle" fill="black"> 20:22 </text>
<text x="240" y="-43780" text-anchor="middle" dominant-baseline="middle" fill="black"> 1634 </text>
<text x="240" y="-43740" text-anchor="middle" dominant-baseline="middle" fill="orange"> 0100110:3 </text>
<text x="240" y="-43720" text-anchor="middle" dominant-baseline="middle" fill="red"> 1110110:5 </text>
<text x="240" y="-43700" text-anchor="middle" dominant-baseline="middle" fill="blue"> 0111100:4 </text>
<text x="160" y="-43800" text-anchor="middle" dominant-baseline="middle" fill="blue"> yes 4 </text>
<text x="240" y="-43820" text-anchor="middle" dominant-baseline="middle" fill="black"> 0111100:4 </text>
<text x="840" y="-43440" text-anchor="middle" dominant-baseline="middle" fill="black"> 19:22 </text>
<text x="840" y="-43420" text-anchor="middle" dominant-baseline="middle" fill="black"> 1591 </text>
<text x="840" y="-43380" text-anchor="middle" dominant-baseline="middle" fill="orange"> 1010111:5 </text>
<text x="240" y="-43200" text-anchor="middle" dominant-baseline="middle" fill="black"> 19:22 </text>
<text x="240" y="-43180" text-anchor="middle" dominant-baseline="middle" fill="black"> 1612 </text>
<text x="240" y="-43140" text-anchor="middle" dominant-baseline="middle" fill="orange"> 1110010:4 </text>
<text x="240" y="-43120" text-anchor="middle" dominant-baseline="middle" fill="green"> 1110010:4 </text>
<text x="600" y="-43440" text-anchor="middle" dominant-baseline="middle" fill="black"> 20:22 </text>
<text x="600" y="-43420" text-anchor="middle" dominant-baseline="middle" fill="black"> 1625 </text>
<text x="600" y="-43380" text-anchor="middle" dominant-baseline="middle" fill="orange"> 0000110:2 </text>
<text x="600" y="-43360" text-anchor="middle" dominant-baseline="middle" fill="red"> 1110110:5 </text>
<text x="600" y="-43340" text-anchor="middle" dominant-baseline="middle" fill="blue"> 1111111:7 </text>
<text x="520" y="-43440" text-anchor="middle" dominant-baseline="middle" fill="blue"> yes 7 </text>
<text x="600" y="-43460" text-anchor="middle" dominant-baseline="middle" fill="black"> 1111111:7 </text>
<text x="720" y="-44160" text-anchor="middle" dominant-baseline="middle" fill="black"> 20:22 </text>
<text x="720" y="-44140" text-anchor="middle" dominant-baseline="middle" fill="black"> 1643 </text>
<text x="720" y="-44100" text-anchor="middle" dominant-baseline="middle" fill="orange"> 0100110:3 </text>
<text x="720" y="-44080" text-anchor="middle" dominant-baseline="middle" fill="green"> 0000010:1 </text>
<text x="120" y="-43080" text-anchor="middle" dominant-baseline="middle" fill="black"> 19:22 </text>
<text x="120" y="-43060" text-anchor="middle" dominant-baseline="middle" fill="black"> 1603 </text>
<text x="120" y="-43020" text-anchor="middle" dominant-baseline="middle" fill="orange"> 1110010:4 </text>
<text x="120" y="-43000" text-anchor="middle" dominant-baseline="middle" fill="green"> 1110010:4 </text>
<text x="480" y="-42840" text-anchor="middle" dominant-baseline="middle" fill="black"> 19:22 </text>
<text x="480" y="-42820" text-anchor="middle" dominant-baseline="middle" fill="black"> 1652 </text>
<text x="480" y="-42780" text-anchor="middle" dominant-baseline="middle" fill="orange"> 1111110:6 </text>
<text x="480" y="-42760" text-anchor="middle" dominant-baseline="middle" fill="green"> 0101000:2 </text>
<text x="600" y="-43680" text-anchor="middle" dominant-baseline="middle" fill="black"> 20:22 </text>
<text x="600" y="-43660" text-anchor="middle" dominant-baseline="middle" fill="black"> 1639 </text>
<text x="600" y="-43620" text-anchor="middle" dominant-baseline="middle" fill="orange"> 0000110:2 </text>
<text x="360" y="-43800" text-anchor="middle" dominant-baseline="middle" fill="black"> 19:22 </text>
<text x="360" y="-43780" text-anchor="middle" dominant-baseline="middle" fill="black"> 1648 </text>
<text x="360" y="-43740" text-anchor="middle" dominant-baseline="middle" fill="orange"> 1110010:4 </text>
<text x="360" y="-43720" text-anchor="middle" dominant-baseline="middle" fill="green"> 1110010:4 </text>
<text x="120" y="-43320" text-anchor="middle" dominant-baseline="middle" fill="black"> 19:22 </text>
<text x="120" y="-43300" text-anchor="middle" dominant-baseline="middle" fill="black"> 1607 </text>
<text x="120" y="-43260" text-anchor="middle" dominant-baseline="middle" fill="orange"> 1110010:4 </text>
<text x="120" y="-43240" text-anchor="middle" dominant-baseline="middle" fill="green"> 1110010:4 </text>
<text x="240" y="-43680" text-anchor="middle" dominant-baseline="middle" fill="black"> 19:22 </text>
<text x="240" y="-43660" text-anchor="middle" dominant-baseline="middle" fill="black"> 1616 </text>
<text x="240" y="-43620" text-anchor="middle" dominant-baseline="middle" fill="orange"> 1110111:6 </text>
<text x="240" y="-43600" text-anchor="middle" dominant-baseline="middle" fill="green"> 1110010:4 </text>
<text x="600" y="-43080" text-anchor="middle" dominant-baseline="middle" fill="black"> 19:22 </text>
<text x="600" y="-43060" text-anchor="middle" dominant-baseline="middle" fill="black"> 1551 </text>
<text x="600" y="-43020" text-anchor="middle" dominant-baseline="middle" fill="orange"> 1010110:4 </text>
<text x="600" y="-43000" text-anchor="middle" dominant-baseline="middle" fill="green"> 1010110:4 </text>
<text x="720" y="-42840" text-anchor="middle" dominant-baseline="middle" fill="black"> 19:22 </text>
<text x="720" y="-42820" text-anchor="middle" dominant-baseline="middle" fill="black"> 1587 </text>
<text x="720" y="-42780" text-anchor="middle" dominant-baseline="middle" fill="orange"> 1010110:4 </text>
<text x="720" y="-42760" text-anchor="middle" dominant-baseline="middle" fill="green"> 1010110:4 </text>
<text x="720" y="-43800" text-anchor="middle" dominant-baseline="middle" fill="black"> 20:22 </text>
<text x="720" y="-43780" text-anchor="middle" dominant-baseline="middle" fill="black"> 1641 </text>
<text x="720" y="-43740" text-anchor="middle" dominant-baseline="middle" fill="orange"> 0000110:2 </text>
<text x="720" y="-43720" text-anchor="middle" dominant-baseline="middle" fill="green"> 0000010:1 </text>
<text x="240" y="-43560" text-anchor="middle" dominant-baseline="middle" fill="black"> 19:22 </text>
<text x="240" y="-43540" text-anchor="middle" dominant-baseline="middle" fill="black"> 1614 </text>
<text x="240" y="-43500" text-anchor="middle" dominant-baseline="middle" fill="orange"> 1110010:4 </text>
<text x="240" y="-43480" text-anchor="middle" dominant-baseline="middle" fill="green"> 1110010:4 </text>
<text x="720" y="-43080" text-anchor="middle" dominant-baseline="middle" fill="black"> 20:22 </text>
<text x="720" y="-43060" text-anchor="middle" dominant-baseline="middle" fill="black"> 1623 </text>
<text x="720" y="-43020" text-anchor="middle" dominant-baseline="middle" fill="orange"> 0000010:1 </text>
<text x="480" y="-43920" text-anchor="middle" dominant-baseline="middle" fill="black"> 20:22 </text>
<text x="480" y="-43900" text-anchor="middle" dominant-baseline="middle" fill="black"> 1650 </text>
<text x="480" y="-43860" text-anchor="middle" dominant-baseline="middle" fill="orange"> 0001110:3 </text>
<text x="480" y="-43840" text-anchor="middle" dominant-baseline="middle" fill="red"> 1111110:6 </text>
<text x="480" y="-43820" text-anchor="middle" dominant-baseline="middle" fill="blue"> 1111111:7 </text>
<text x="400" y="-43920" text-anchor="middle" dominant-baseline="middle" fill="blue"> yes 7 </text>
<text x="480" y="-43940" text-anchor="middle" dominant-baseline="middle" fill="black"> 1111111:7 </text>
<text x="600" y="-43920" text-anchor="middle" dominant-baseline="middle" fill="black"> 20:22 </text>
<text x="600" y="-43900" text-anchor="middle" dominant-baseline="middle" fill="black"> 1659 </text>
<text x="600" y="-43860" text-anchor="middle" dominant-baseline="middle" fill="orange"> 0000110:2 </text>
<text x="480" y="-44160" text-anchor="middle" dominant-baseline="middle" fill="black"> 20:22 </text>
<text x="480" y="-44140" text-anchor="middle" dominant-baseline="middle" fill="black"> 1668 </text>
<text x="480" y="-44100" text-anchor="middle" dominant-baseline="middle" fill="orange"> 0001110:3 </text>
<text x="120" y="-42840" text-anchor="middle" dominant-baseline="middle" fill="black"> 19:22 </text>
<text x="120" y="-42820" text-anchor="middle" dominant-baseline="middle" fill="black"> 1593 </text>
<text x="120" y="-42780" text-anchor="middle" dominant-baseline="middle" fill="orange"> 1110010:4 </text>
<text x="120" y="-42760" text-anchor="middle" dominant-baseline="middle" fill="green"> 1110010:4 </text>
<text x="720" y="-43920" text-anchor="middle" dominant-baseline="middle" fill="black"> 20:22 </text>
<text x="720" y="-43900" text-anchor="middle" dominant-baseline="middle" fill="black"> 1645 </text>
<text x="720" y="-43860" text-anchor="middle" dominant-baseline="middle" fill="orange"> 0100110:3 </text>
<text x="720" y="-43840" text-anchor="middle" dominant-baseline="middle" fill="green"> 0000010:1 </text>
<text x="120" y="-43200" text-anchor="middle" dominant-baseline="middle" fill="black"> 19:22 </text>
<text x="120" y="-43180" text-anchor="middle" dominant-baseline="middle" fill="black"> 1602 </text>
<text x="120" y="-43140" text-anchor="middle" dominant-baseline="middle" fill="orange"> 1110010:4 </text>
<text x="120" y="-43120" text-anchor="middle" dominant-baseline="middle" fill="green"> 1110010:4 </text>
<text x="120" y="-43800" text-anchor="middle" dominant-baseline="middle" fill="black"> 19:22 </text>
<text x="120" y="-43780" text-anchor="middle" dominant-baseline="middle" fill="black"> 1636 </text>
<text x="120" y="-43740" text-anchor="middle" dominant-baseline="middle" fill="orange"> 1110010:4 </text>
<text x="120" y="-43720" text-anchor="middle" dominant-baseline="middle" fill="green"> 1110010:4 </text>
<text x="720" y="-44040" text-anchor="middle" dominant-baseline="middle" fill="black"> 20:22 </text>
<text x="720" y="-44020" text-anchor="middle" dominant-baseline="middle" fill="black"> 1644 </text>
<text x="720" y="-43980" text-anchor="middle" dominant-baseline="middle" fill="orange"> 0100110:3 </text>
<text x="720" y="-43960" text-anchor="middle" dominant-baseline="middle" fill="green"> 0000010:1 </text>
<text x="360" y="-44160" text-anchor="middle" dominant-baseline="middle" fill="black"> 20:22 </text>
<text x="360" y="-44140" text-anchor="middle" dominant-baseline="middle" fill="black"> 1670 </text>
<text x="360" y="-44100" text-anchor="middle" dominant-baseline="middle" fill="orange"> 0010110:3 </text>
<text x="720" y="-43560" text-anchor="middle" dominant-baseline="middle" fill="black"> 20:22 </text>
<text x="720" y="-43540" text-anchor="middle" dominant-baseline="middle" fill="black"> 1620 </text>
<text x="720" y="-43500" text-anchor="middle" dominant-baseline="middle" fill="orange"> 0000110:2 </text>
<text x="720" y="-43480" text-anchor="middle" dominant-baseline="middle" fill="green"> 0000010:1 </text>
<text x="360" y="-44040" text-anchor="middle" dominant-baseline="middle" fill="black"> 20:22 </text>
<text x="360" y="-44020" text-anchor="middle" dominant-baseline="middle" fill="black"> 1646 </text>
<text x="360" y="-43980" text-anchor="middle" dominant-baseline="middle" fill="orange"> 0010110:3 </text>
<text x="360" y="-43960" text-anchor="middle" dominant-baseline="middle" fill="red"> 1110110:5 </text>
<text x="360" y="-43940" text-anchor="middle" dominant-baseline="middle" fill="blue"> 0111011:5 </text>
<text x="280" y="-44040" text-anchor="middle" dominant-baseline="middle" fill="blue"> yes 5 </text>
<text x="360" y="-44060" text-anchor="middle" dominant-baseline="middle" fill="black"> 0111011:5 </text>
<text x="720" y="-43680" text-anchor="middle" dominant-baseline="middle" fill="black"> 20:22 </text>
<text x="720" y="-43660" text-anchor="middle" dominant-baseline="middle" fill="black"> 1635 </text>
<text x="720" y="-43620" text-anchor="middle" dominant-baseline="middle" fill="orange"> 0000110:2 </text>
<text x="720" y="-43600" text-anchor="middle" dominant-baseline="middle" fill="green"> 0000010:1 </text>
<text x="840" y="-43920" text-anchor="middle" dominant-baseline="middle" fill="black"> 20:22 </text>
<text x="840" y="-43900" text-anchor="middle" dominant-baseline="middle" fill="black"> 1618 </text>
<text x="840" y="-43860" text-anchor="middle" dominant-baseline="middle" fill="orange"> 0000001:1 </text>
<text x="240" y="-42960" text-anchor="middle" dominant-baseline="middle" fill="black"> 19:22 </text>
<text x="240" y="-42940" text-anchor="middle" dominant-baseline="middle" fill="black"> 1609 </text>
<text x="240" y="-42900" text-anchor="middle" dominant-baseline="middle" fill="orange"> 1110010:4 </text>
<text x="240" y="-42880" text-anchor="middle" dominant-baseline="middle" fill="green"> 1110010:4 </text>
<text x="360" y="-43320" text-anchor="middle" dominant-baseline="middle" fill="black"> 19:22 </text>
<text x="360" y="-43300" text-anchor="middle" dominant-baseline="middle" fill="black"> 1627 </text>
<text x="360" y="-43260" text-anchor="middle" dominant-baseline="middle" fill="orange"> 1110010:4 </text>
<text x="360" y="-43240" text-anchor="middle" dominant-baseline="middle" fill="green"> 1110010:4 </text>
<text x="240" y="-42840" text-anchor="middle" dominant-baseline="middle" fill="black"> 19:22 </text>
<text x="240" y="-42820" text-anchor="middle" dominant-baseline="middle" fill="black"> 1610 </text>
<text x="240" y="-42780" text-anchor="middle" dominant-baseline="middle" fill="orange"> 1110010:4 </text>
<text x="240" y="-42760" text-anchor="middle" dominant-baseline="middle" fill="green"> 1110010:4 </text>
<text x="120" y="-43680" text-anchor="middle" dominant-baseline="middle" fill="black"> 19:22 </text>
<text x="120" y="-43660" text-anchor="middle" dominant-baseline="middle" fill="black"> 1637 </text>
<text x="120" y="-43620" text-anchor="middle" dominant-baseline="middle" fill="orange"> 1110010:4 </text>
<text x="120" y="-43600" text-anchor="middle" dominant-baseline="middle" fill="green"> 1110010:4 </text>
<text x="360" y="-43200" text-anchor="middle" dominant-baseline="middle" fill="black"> 19:22 </text>
<text x="360" y="-43180" text-anchor="middle" dominant-baseline="middle" fill="black"> 1628 </text>
<text x="360" y="-43140" text-anchor="middle" dominant-baseline="middle" fill="orange"> 1110010:4 </text>
<text x="360" y="-43120" text-anchor="middle" dominant-baseline="middle" fill="green"> 1110010:4 </text>
<text x="840" y="-44040" text-anchor="middle" dominant-baseline="middle" fill="black"> 20:22 </text>
<text x="840" y="-44020" text-anchor="middle" dominant-baseline="middle" fill="black"> 1619 </text>
<text x="840" y="-43980" text-anchor="middle" dominant-baseline="middle" fill="orange"> 0000001:1 </text>
<text x="600" y="-42960" text-anchor="middle" dominant-baseline="middle" fill="black"> 19:22 </text>
<text x="600" y="-42940" text-anchor="middle" dominant-baseline="middle" fill="black"> 1552 </text>
<text x="600" y="-42900" text-anchor="middle" dominant-baseline="middle" fill="orange"> 1010110:4 </text>
<text x="600" y="-42880" text-anchor="middle" dominant-baseline="middle" fill="green"> 1010110:4 </text>
<text x="360" y="-43920" text-anchor="middle" dominant-baseline="middle" fill="black"> 19:22 </text>
<text x="360" y="-43900" text-anchor="middle" dominant-baseline="middle" fill="black"> 1647 </text>
<text x="360" y="-43860" text-anchor="middle" dominant-baseline="middle" fill="orange"> 1110010:4 </text>
<text x="360" y="-43840" text-anchor="middle" dominant-baseline="middle" fill="green"> 1110010:4 </text>
<text x="120" y="-42960" text-anchor="middle" dominant-baseline="middle" fill="black"> 19:22 </text>
<text x="120" y="-42940" text-anchor="middle" dominant-baseline="middle" fill="black"> 1604 </text>
<text x="120" y="-42900" text-anchor="middle" dominant-baseline="middle" fill="orange"> 1110010:4 </text>
<text x="120" y="-42880" text-anchor="middle" dominant-baseline="middle" fill="green"> 1110010:4 </text>
<text x="480" y="-42960" text-anchor="middle" dominant-baseline="middle" fill="black"> 19:22 </text>
<text x="480" y="-42940" text-anchor="middle" dominant-baseline="middle" fill="black"> 1651 </text>
<text x="480" y="-42900" text-anchor="middle" dominant-baseline="middle" fill="orange"> 1111110:6 </text>
<text x="480" y="-42880" text-anchor="middle" dominant-baseline="middle" fill="green"> 0101000:2 </text>
<text x="480" y="-44040" text-anchor="middle" dominant-baseline="middle" fill="black"> 20:22 </text>
<text x="480" y="-44020" text-anchor="middle" dominant-baseline="middle" fill="black"> 1669 </text>
<text x="480" y="-43980" text-anchor="middle" dominant-baseline="middle" fill="orange"> 0001110:3 </text>
<text x="120" y="-43560" text-anchor="middle" dominant-baseline="middle" fill="black"> 19:22 </text>
<text x="120" y="-43540" text-anchor="middle" dominant-baseline="middle" fill="black"> 1638 </text>
<text x="120" y="-43500" text-anchor="middle" dominant-baseline="middle" fill="orange"> 1110010:4 </text>
<text x="120" y="-43480" text-anchor="middle" dominant-baseline="middle" fill="green"> 1110010:4 </text>
<text x="240" y="-43320" text-anchor="middle" dominant-baseline="middle" fill="black"> 19:22 </text>
<text x="240" y="-43300" text-anchor="middle" dominant-baseline="middle" fill="black"> 1613 </text>
<text x="240" y="-43260" text-anchor="middle" dominant-baseline="middle" fill="orange"> 1110010:4 </text>
<text x="240" y="-43240" text-anchor="middle" dominant-baseline="middle" fill="green"> 1110010:4 </text>
<text x="600" y="-43320" text-anchor="middle" dominant-baseline="middle" fill="black"> 19:22 </text>
<text x="600" y="-43300" text-anchor="middle" dominant-baseline="middle" fill="black"> 1626 </text>
<text x="600" y="-43260" text-anchor="middle" dominant-baseline="middle" fill="orange"> 1010111:5 </text>
<text x="600" y="-43240" text-anchor="middle" dominant-baseline="middle" fill="green"> 1010110:4 </text>
<text x="840" y="-43800" text-anchor="middle" dominant-baseline="middle" fill="black"> 20:22 </text>
<text x="840" y="-43780" text-anchor="middle" dominant-baseline="middle" fill="black"> 1617 </text>
<text x="840" y="-43740" text-anchor="middle" dominant-baseline="middle" fill="orange"> 0000001:1 </text>
<text x="840" y="-43720" text-anchor="middle" dominant-baseline="middle" fill="red"> 1110011:5 </text>
<text x="840" y="-43700" text-anchor="middle" dominant-baseline="middle" fill="blue"> 1000111:4 </text>
<text x="760" y="-43800" text-anchor="middle" dominant-baseline="middle" fill="blue"> yes 4 </text>
<text x="840" y="-43820" text-anchor="middle" dominant-baseline="middle" fill="black"> 1000111:4 </text>
<text x="240" y="-43080" text-anchor="middle" dominant-baseline="middle" fill="black"> 19:22 </text>
<text x="240" y="-43060" text-anchor="middle" dominant-baseline="middle" fill="black"> 1608 </text>
<text x="240" y="-43020" text-anchor="middle" dominant-baseline="middle" fill="orange"> 1110010:4 </text>
<text x="240" y="-43000" text-anchor="middle" dominant-baseline="middle" fill="green"> 1110010:4 </text>
<text x="840" y="-43320" text-anchor="middle" dominant-baseline="middle" fill="black"> 19:22 </text>
<text x="840" y="-43300" text-anchor="middle" dominant-baseline="middle" fill="black"> 1590 </text>
<text x="840" y="-43260" text-anchor="middle" dominant-baseline="middle" fill="orange"> 1010111:5 </text>
<text x="240" y="-43920" text-anchor="middle" dominant-baseline="middle" fill="black"> 20:22 </text>
<text x="240" y="-43900" text-anchor="middle" dominant-baseline="middle" fill="black"> 1633 </text>
<text x="240" y="-43860" text-anchor="middle" dominant-baseline="middle" fill="orange"> 0100110:3 </text>
<text x="720" y="-43200" text-anchor="middle" dominant-baseline="middle" fill="black"> 20:22 </text>
<text x="720" y="-43180" text-anchor="middle" dominant-baseline="middle" fill="black"> 1622 </text>
<text x="720" y="-43140" text-anchor="middle" dominant-baseline="middle" fill="orange"> 0000010:1 </text>
<text x="240" y="-44160" text-anchor="middle" dominant-baseline="middle" fill="black"> 20:22 </text>
<text x="240" y="-44140" text-anchor="middle" dominant-baseline="middle" fill="black"> 1631 </text>
<text x="240" y="-44100" text-anchor="middle" dominant-baseline="middle" fill="orange"> 0100110:3 </text>
<text x="240" y="-43440" text-anchor="middle" dominant-baseline="middle" fill="black"> 19:22 </text>
<text x="240" y="-43420" text-anchor="middle" dominant-baseline="middle" fill="black"> 1615 </text>
<text x="240" y="-43380" text-anchor="middle" dominant-baseline="middle" fill="orange"> 1110010:4 </text>
<text x="240" y="-43360" text-anchor="middle" dominant-baseline="middle" fill="green"> 1110010:4 </text>
<text x="720" y="-42960" text-anchor="middle" dominant-baseline="middle" fill="black"> 20:22 </text>
<text x="720" y="-42940" text-anchor="middle" dominant-baseline="middle" fill="black"> 1624 </text>
<text x="720" y="-42900" text-anchor="middle" dominant-baseline="middle" fill="orange"> 0000010:1 </text>
<text x="720" y="-42880" text-anchor="middle" dominant-baseline="middle" fill="red"> 1110110:5 </text>
<text x="720" y="-42860" text-anchor="middle" dominant-baseline="middle" fill="blue"> 1111111:7 </text>
<text x="640" y="-42960" text-anchor="middle" dominant-baseline="middle" fill="blue"> yes 7 </text>
<text x="720" y="-42980" text-anchor="middle" dominant-baseline="middle" fill="black"> 1111111:7 </text>
</g>
</svg>
