<svg id="hashgraph" width="880" height="1870" xmlns="http://www.w3.org/2000/svg">
<g transform="translate(0,622380)">
<line x1="330" y1="-621830" x2="660" y2="-621720" style="stroke: #795548; stroke-width: 10"/>
<line x1="330" y1="-621830" x2="330" y2="-621060" style="stroke: #9c27b0; stroke-width: 10"/>
<line x1="770" y1="-622050" x2="770" y2="-621940" style="stroke: #e91e63; stroke-width: 10"/>
<line x1="220" y1="-620950" x2="550" y2="-620840" style="stroke: #ffeb3b; stroke-width: 10"/>
<line x1="110" y1="-621060" x2="110" y2="-620950" style="stroke: #f06292; stroke-width: 10"/>
<line x1="110" y1="-621610" x2="440" y2="-620950" style="stroke: #ff9800; stroke-width: 10"/>
<line x1="110" y1="-621610" x2="110" y2="-621500" style="stroke: #f06292; stroke-width: 10"/>
<line x1="550" y1="-622050" x2="770" y2="-621940" style="stroke: #e91e63; stroke-width: 10"/>
<line x1="550" y1="-622050" x2="550" y2="-621610" style="stroke: #ffeb3b; stroke-width: 10"/>
<line x1="660" y1="-620840" x2="660" y2="-620730" style="stroke: #795548; stroke-width: 10"/>
<line x1="330" y1="-620950" x2="330" y2="-620840" style="stroke: #9c27b0; stroke-width: 10"/>
<line x1="440" y1="-621720" x2="110" y2="-621610" style="stroke: #f06292; stroke-width: 10"/>
<line x1="440" y1="-621720" x2="440" y2="-621170" style="stroke: #ff9800; stroke-width: 10"/>
<line x1="550" y1="-620950" x2="550" y2="-620840" style="stroke: #ffeb3b; stroke-width: 10"/>
<line x1="770" y1="-621170" x2="220" y2="-621060" style="stroke: #4caf50; stroke-width: 10"/>
<line x1="110" y1="-620840" x2="110" y2="-620730" style="stroke: #f06292; stroke-width: 10"/>
<line x1="110" y1="-621500" x2="440" y2="-620840" style="stroke: #ff9800; stroke-width: 10"/>
<line x1="110" y1="-621500" x2="110" y2="-621390" style="stroke: red; stroke-width: 10"/>
<line x1="550" y1="-621390" x2="660" y2="-620730" style="stroke: #795548; stroke-width: 10"/>
<line x1="550" y1="-621390" x2="550" y2="-621280" style="stroke: #ffeb3b; stroke-width: 10"/>
<line x1="770" y1="-621280" x2="770" y2="-621170" style="stroke: red; stroke-width: 10"/>
<line x1="770" y1="-622160" x2="770" y2="-622050" style="stroke: #e91e63; stroke-width: 10"/>
<line x1="220" y1="-621390" x2="220" y2="-621280" style="stroke: #4caf50; stroke-width: 10"/>
<line x1="660" y1="-621940" x2="330" y2="-621830" style="stroke: #9c27b0; stroke-width: 10"/>
<line x1="660" y1="-621940" x2="660" y2="-621830" style="stroke: #795548; stroke-width: 10"/>
<line x1="330" y1="-620840" x2="330" y2="-620730" style="stroke: #9c27b0; stroke-width: 10"/>
<line x1="110" y1="-620950" x2="110" y2="-620840" style="stroke: #f06292; stroke-width: 10"/>
<line x1="550" y1="-621610" x2="550" y2="-621500" style="stroke: #ffeb3b; stroke-width: 10"/>
<line x1="660" y1="-622050" x2="660" y2="-621940" style="stroke: #795548; stroke-width: 10"/>
<line x1="220" y1="-621500" x2="220" y2="-621390" style="stroke: #4caf50; stroke-width: 10"/>
<line x1="440" y1="-621830" x2="770" y2="-621610" style="stroke: #e91e63; stroke-width: 10"/>
<line x1="440" y1="-621830" x2="440" y2="-621720" style="stroke: #ff9800; stroke-width: 10"/>
<line x1="550" y1="-621500" x2="550" y2="-621390" style="stroke: #ffeb3b; stroke-width: 10"/>
<line x1="110" y1="-622050" x2="110" y2="-621940" style="stroke: #f06292; stroke-width: 10"/>
<line x1="440" y1="-621170" x2="440" y2="-621060" style="stroke: #ff9800; stroke-width: 10"/>
<line x1="550" y1="-620840" x2="550" y2="-620730" style="stroke: red; stroke-width: 10"/>
<line x1="770" y1="-621720" x2="660" y2="-621610" style="stroke: #795548; stroke-width: 10"/>
<line x1="770" y1="-621720" x2="770" y2="-621610" style="stroke: #e91e63; stroke-width: 10"/>
<line x1="660" y1="-622160" x2="660" y2="-622050" style="stroke: #795548; stroke-width: 10"/>
<line x1="110" y1="-621720" x2="110" y2="-621610" style="stroke: #f06292; stroke-width: 10"/>
<line x1="550" y1="-621060" x2="550" y2="-620950" style="stroke: #ffeb3b; stroke-width: 10"/>
<line x1="440" y1="-621060" x2="440" y2="-620950" style="stroke: #ff9800; stroke-width: 10"/>
<line x1="220" y1="-621060" x2="220" y2="-620950" style="stroke: red; stroke-width: 10"/>
<line x1="770" y1="-621610" x2="440" y2="-621060" style="stroke: #ff9800; stroke-width: 10"/>
<line x1="770" y1="-621610" x2="770" y2="-621500" style="stroke: #e91e63; stroke-width: 10"/>
<line x1="440" y1="-620840" x2="110" y2="-620730" style="stroke: #f06292; stroke-width: 10"/>
<line x1="440" y1="-620840" x2="440" y2="-620730" style="stroke: #ff9800; stroke-width: 10"/>
<line x1="770" y1="-621830" x2="110" y2="-621390" style="stroke: #f06292; stroke-width: 10"/>
<line x1="770" y1="-621830" x2="770" y2="-621720" style="stroke: #e91e63; stroke-width: 10"/>
<line x1="660" y1="-621500" x2="550" y2="-621390" style="stroke: #ffeb3b; stroke-width: 10"/>
<line x1="660" y1="-621500" x2="660" y2="-621390" style="stroke: red; stroke-width: 10"/>
<line x1="110" y1="-621830" x2="330" y2="-620950" style="stroke: #9c27b0; stroke-width: 10"/>
<line x1="110" y1="-621830" x2="110" y2="-621720" style="stroke: #f06292; stroke-width: 10"/>
<line x1="440" y1="-622160" x2="770" y2="-622050" style="stroke: #e91e63; stroke-width: 10"/>
<line x1="440" y1="-622160" x2="440" y2="-621830" style="stroke: #ff9800; stroke-width: 10"/>
<line x1="770" y1="-621500" x2="770" y2="-621390" style="stroke: #e91e63; stroke-width: 10"/>
<line x1="110" y1="-621170" x2="110" y2="-621060" style="stroke: #f06292; stroke-width: 10"/>
<line x1="660" y1="-621390" x2="550" y2="-621280" style="stroke: #ffeb3b; stroke-width: 10"/>
<line x1="660" y1="-621390" x2="660" y2="-620840" style="stroke: #795548; stroke-width: 10"/>
<line x1="110" y1="-621390" x2="770" y2="-621280" style="stroke: #e91e63; stroke-width: 10"/>
<line x1="110" y1="-621390" x2="110" y2="-621170" style="stroke: #f06292; stroke-width: 10"/>
<line x1="770" y1="-621390" x2="770" y2="-621280" style="stroke: #e91e63; stroke-width: 10"/>
<line x1="110" y1="-621940" x2="110" y2="-621830" style="stroke: #f06292; stroke-width: 10"/>
<line x1="660" y1="-621830" x2="660" y2="-621720" style="stroke: #795548; stroke-width: 10"/>
<line x1="550" y1="-621280" x2="550" y2="-621170" style="stroke: #ffeb3b; stroke-width: 10"/>
<line x1="330" y1="-621060" x2="330" y2="-620950" style="stroke: #9c27b0; stroke-width: 10"/>
<line x1="550" y1="-622160" x2="550" y2="-622050" style="stroke: #ffeb3b; stroke-width: 10"/>
<line x1="220" y1="-621280" x2="770" y2="-621170" style="stroke: #e91e63; stroke-width: 10"/>
<line x1="220" y1="-621280" x2="220" y2="-621060" style="stroke: #4caf50; stroke-width: 10"/>
<line x1="660" y1="-621720" x2="660" y2="-621610" style="stroke: #795548; stroke-width: 10"/>
<line x1="770" y1="-621940" x2="550" y2="-621500" style="stroke: #ffeb3b; stroke-width: 10"/>
<line x1="770" y1="-621940" x2="770" y2="-621830" style="stroke: #e91e63; stroke-width: 10"/>
<line x1="660" y1="-621610" x2="770" y2="-621500" style="stroke: #e91e63; stroke-width: 10"/>
<line x1="660" y1="-621610" x2="660" y2="-621500" style="stroke: #795548; stroke-width: 10"/>
<line x1="440" y1="-620950" x2="440" y2="-620840" style="stroke: red; stroke-width: 10"/>
<line x1="550" y1="-621170" x2="220" y2="-620950" style="stroke: #4caf50; stroke-width: 10"/>
<line x1="550" y1="-621170" x2="550" y2="-621060" style="stroke: #ffeb3b; stroke-width: 10"/>
<rect x="500" y="-622100" width="100" height="100" fill="" fill-opacity="0.000000" stroke="#b9f6ca" stroke-width="6"  />
<rect x="390" y="-621770" width="100" height="100" fill="" fill-opacity="0.000000" stroke="#b9f6ca" stroke-width="6"  />
<rect x="60" y="-621550" width="100" height="100" fill="" fill-opacity="0.000000" stroke="#b9f6ca" stroke-width="6"  />
<rect x="500" y="-621440" width="100" height="100" fill="" fill-opacity="0.000000" stroke="#ffcccc" stroke-width="6"  />
<rect x="280" y="-620780" width="100" height="100" fill="" fill-opacity="0.000000" stroke="#b9f6ca" stroke-width="6"  />
<rect x="610" y="-621990" width="100" height="100" fill="" fill-opacity="0.000000" stroke="#b9f6ca" stroke-width="6"  />
<rect x="390" y="-621880" width="100" height="100" fill="" fill-opacity="0.000000" stroke="#b9f6ca" stroke-width="6"  />
<rect x="720" y="-621770" width="100" height="100" fill="" fill-opacity="0.000000" stroke="#ffcccc" stroke-width="6"  />
<rect x="500" y="-621110" width="100" height="100" fill="" fill-opacity="0.000000" stroke="#ffcccc" stroke-width="6"  />
<rect x="720" y="-621660" width="100" height="100" fill="" fill-opacity="0.000000" stroke="#ffcccc" stroke-width="6"  />
<rect x="720" y="-621880" width="100" height="100" fill="" fill-opacity="0.000000" stroke="#ffcccc" stroke-width="6"  />
<rect x="610" y="-621550" width="100" height="100" fill="" fill-opacity="0.000000" stroke="#ffcccc" stroke-width="6"  />
<rect x="60" y="-621880" width="100" height="100" fill="" fill-opacity="0.000000" stroke="#b9f6ca" stroke-width="6"  />
<rect x="500" y="-621330" width="100" height="100" fill="" fill-opacity="0.000000" stroke="#ffcccc" stroke-width="6"  />
<rect x="170" y="-621330" width="100" height="100" fill="" fill-opacity="0.000000" stroke="#b9f6ca" stroke-width="6"  />
<rect x="610" y="-621660" width="100" height="100" fill="" fill-opacity="0.000000" stroke="#ffcccc" stroke-width="6"  />
<rect x="500" y="-621220" width="100" height="100" fill="" fill-opacity="0.000000" stroke="#ffcccc" stroke-width="6"  />
<circle cx="330" cy="-621830" r="50" fill="#9e9e9e" stroke="red" stroke-width="10"  />
<circle cx="770" cy="-622050" r="40" fill="#ffcccc" stroke="#9e9e9e" stroke-width="10"  />
<circle cx="220" cy="-620950" r="50" fill="#9e9e9e" stroke="yellow" stroke-width="10"  />
<circle cx="110" cy="-621060" r="40" fill="#ffcccc" stroke="black" stroke-width="4"  />
<circle cx="110" cy="-621610" r="40" fill="#b9f6ca" stroke="black" stroke-width="4"  />
<circle cx="550" cy="-622050" r="40" fill="#b9f6ca" stroke="black" stroke-width="4"  />
<circle cx="660" cy="-620840" r="40" fill="#ffcccc" stroke="black" stroke-width="4"  />
<circle cx="330" cy="-620950" r="40" fill="#b9f6ca" stroke="black" stroke-width="4"  />
<circle cx="440" cy="-621720" r="40" fill="#b9f6ca" stroke="black" stroke-width="4"  />
<circle cx="550" cy="-620950" r="40" fill="#ffcccc" stroke="black" stroke-width="4"  />
<circle cx="770" cy="-621170" r="50" fill="#9e9e9e" stroke="green" stroke-width="10"  />
<circle cx="110" cy="-620840" r="40" fill="#ffcccc" stroke="black" stroke-width="4"  />
<circle cx="110" cy="-621500" r="40" fill="#b9f6ca" stroke="black" stroke-width="4"  />
<circle cx="550" cy="-621390" r="40" fill="#ffcccc" stroke="black" stroke-width="4"  />
<circle cx="770" cy="-621280" r="40" fill="#ffcccc" stroke="black" stroke-width="4"  />
<circle cx="770" cy="-622160" r="40" fill="#b9f6ca" stroke="black" stroke-width="4"  />
<circle cx="220" cy="-621390" r="40" fill="#b9f6ca" stroke="black" stroke-width="4"  />
<circle cx="660" cy="-620730" r="40" fill="#ffcccc" stroke="black" stroke-width="4"  />
<circle cx="330" cy="-620730" r="40" fill="#b9f6ca" stroke="black" stroke-width="4"  />
<circle cx="660" cy="-621940" r="40" fill="#b9f6ca" stroke="black" stroke-width="4"  />
<circle cx="330" cy="-620840" r="40" fill="#b9f6ca" stroke="black" stroke-width="4"  />
<circle cx="110" cy="-620950" r="40" fill="#ffcccc" stroke="black" stroke-width="4"  />
<circle cx="550" cy="-621610" r="40" fill="#b9f6ca" stroke="black" stroke-width="4"  />
<circle cx="660" cy="-622050" r="40" fill="#b9f6ca" stroke="black" stroke-width="4"  />
<circle cx="220" cy="-621500" r="40" fill="#b9f6ca" stroke="black" stroke-width="4"  />
<circle cx="440" cy="-621830" r="40" fill="#b9f6ca" stroke="black" stroke-width="4"  />
<circle cx="550" cy="-621500" r="40" fill="#ffcccc" stroke="#9e9e9e" stroke-width="10"  />
<circle cx="110" cy="-622050" r="40" fill="#b9f6ca" stroke="black" stroke-width="4"  />
<circle cx="440" cy="-621170" r="40" fill="#b9f6ca" stroke="black" stroke-width="4"  />
<circle cx="550" cy="-620840" r="40" fill="#ffcccc" stroke="black" stroke-width="4"  />
<circle cx="770" cy="-621720" r="40" fill="#ffcccc" stroke="black" stroke-width="4"  />
<circle cx="660" cy="-622160" r="40" fill="#b9f6ca" stroke="black" stroke-width="4"  />
<circle cx="110" cy="-621720" r="40" fill="#b9f6ca" stroke="black" stroke-width="4"  />
<circle cx="550" cy="-621060" r="40" fill="#ffcccc" stroke="black" stroke-width="4"  />
<circle cx="440" cy="-621060" r="40" fill="#ffcccc" stroke="#9e9e9e" stroke-width="10"  />
<circle cx="220" cy="-621060" r="40" fill="#ffcccc" stroke="#9e9e9e" stroke-width="10"  />
<circle cx="770" cy="-621610" r="40" fill="#ffcccc" stroke="black" stroke-width="4"  />
<circle cx="440" cy="-620840" r="50" fill="#9e9e9e" stroke="green" stroke-width="10"  />
<circle cx="770" cy="-621830" r="40" fill="#ffcccc" stroke="black" stroke-width="4"  />
<circle cx="660" cy="-621500" r="40" fill="#ffcccc" stroke="black" stroke-width="4"  />
<circle cx="110" cy="-621830" r="40" fill="#b9f6ca" stroke="black" stroke-width="4"  />
<circle cx="440" cy="-622160" r="50" fill="#f44336" stroke="green" stroke-width="10"  />
<circle cx="770" cy="-621500" r="40" fill="#ffcccc" stroke="black" stroke-width="4"  />
<circle cx="110" cy="-621170" r="40" fill="#ffcccc" stroke="black" stroke-width="4"  />
<circle cx="660" cy="-621390" r="50" fill="#9e9e9e" stroke="green" stroke-width="10"  />
<circle cx="550" cy="-620730" r="50" fill="#9e9e9e" stroke="green" stroke-width="10"  />
<circle cx="110" cy="-621390" r="50" fill="#9e9e9e" stroke="#9e9e9e" stroke-width="16"  />
<circle cx="770" cy="-621390" r="40" fill="#ffcccc" stroke="black" stroke-width="4"  />
<circle cx="110" cy="-621940" r="40" fill="#b9f6ca" stroke="black" stroke-width="4"  />
<circle cx="660" cy="-621830" r="40" fill="#b9f6ca" stroke="black" stroke-width="4"  />
<circle cx="110" cy="-620730" r="40" fill="#ffcccc" stroke="black" stroke-width="4"  />
<circle cx="550" cy="-621280" r="40" fill="#ffcccc" stroke="black" stroke-width="4"  />
<circle cx="330" cy="-621060" r="40" fill="#b9f6ca" stroke="black" stroke-width="4"  />
<circle cx="550" cy="-622160" r="40" fill="#b9f6ca" stroke="black" stroke-width="4"  />
<circle cx="220" cy="-621280" r="40" fill="#b9f6ca" stroke="black" stroke-width="4"  />
<circle cx="660" cy="-621720" r="40" fill="#b9f6ca" stroke="black" stroke-width="4"  />
<circle cx="770" cy="-621940" r="40" fill="#ffcccc" stroke="black" stroke-width="4"  />
<circle cx="660" cy="-621610" r="40" fill="#ffcccc" stroke="#9e9e9e" stroke-width="10"  />
<circle cx="440" cy="-620730" r="40" fill="#ffcccc" stroke="black" stroke-width="4"  />
<circle cx="440" cy="-620950" r="40" fill="#ffcccc" stroke="black" stroke-width="4"  />
<circle cx="550" cy="-621170" r="40" fill="#ffcccc" stroke="black" stroke-width="4"  />
<text x="330" y="-621830" text-anchor="middle" dominant-baseline="middle" fill="black"> 347:349 </text>
<text x="330" y="-621810" text-anchor="middle" dominant-baseline="middle" fill="black"> 24907 </text>
<text x="330" y="-621770" text-anchor="middle" dominant-baseline="middle" fill="black"> 0010000:1 </text>
<text x="330" y="-621750" text-anchor="middle" dominant-baseline="middle" fill="red"> 1011110:5 </text>
<text x="330" y="-621730" text-anchor="middle" dominant-baseline="middle" fill="blue"> 0010111:4 </text>
<text x="250" y="-621830" text-anchor="middle" dominant-baseline="middle" fill="blue"> yes 4 </text>
<text x="770" y="-622050" text-anchor="middle" dominant-baseline="middle" fill="black"> 347:348 </text>
<text x="770" y="-622030" text-anchor="middle" dominant-baseline="middle" fill="black"> 24902 </text>
<text x="770" y="-621990" text-anchor="middle" dominant-baseline="middle" fill="black"> 1101111:6 </text>
<text x="770" y="-621970" text-anchor="middle" dominant-baseline="middle" fill="green"> 0000111:3 </text>
<text x="220" y="-620950" text-anchor="middle" dominant-baseline="middle" fill="black"> 347:348 </text>
<text x="220" y="-620930" text-anchor="middle" dominant-baseline="middle" fill="black"> 24857 </text>
<text x="220" y="-620890" text-anchor="middle" dominant-baseline="middle" fill="black"> 0100000:1 </text>
<text x="220" y="-620870" text-anchor="middle" dominant-baseline="middle" fill="red"> 1111110:6 </text>
<text x="220" y="-620850" text-anchor="middle" dominant-baseline="middle" fill="blue"> 0000010:1 </text>
<text x="140" y="-620950" text-anchor="middle" dominant-baseline="middle" fill="blue"> yes 1 </text>
<text x="110" y="-621060" text-anchor="middle" dominant-baseline="middle" fill="black"> 346:348 </text>
<text x="110" y="-621040" text-anchor="middle" dominant-baseline="middle" fill="black"> 24895 </text>
<text x="110" y="-621000" text-anchor="middle" dominant-baseline="middle" fill="black"> 1010110:4 </text>
<text x="110" y="-620980" text-anchor="middle" dominant-baseline="middle" fill="green"> 1010110:4 </text>
<text x="110" y="-621610" text-anchor="middle" dominant-baseline="middle" fill="black"> 347:349 </text>
<text x="110" y="-621590" text-anchor="middle" dominant-baseline="middle" fill="black"> 24917 </text>
<text x="110" y="-621550" text-anchor="middle" dominant-baseline="middle" fill="black"> 1001000:2 </text>
<text x="110" y="-621530" text-anchor="middle" dominant-baseline="middle" fill="green"> 1000000:1 </text>
<text x="550" y="-622050" text-anchor="middle" dominant-baseline="middle" fill="black"> 347:349 </text>
<text x="550" y="-622030" text-anchor="middle" dominant-baseline="middle" fill="black"> 24924 </text>
<text x="550" y="-621990" text-anchor="middle" dominant-baseline="middle" fill="black"> 1101111:6 </text>
<text x="550" y="-621970" text-anchor="middle" dominant-baseline="middle" fill="green"> 0000111:3 </text>
<text x="660" y="-620840" text-anchor="middle" dominant-baseline="middle" fill="black"> 346:348 </text>
<text x="660" y="-620820" text-anchor="middle" dominant-baseline="middle" fill="black"> 24880 </text>
<text x="660" y="-620780" text-anchor="middle" dominant-baseline="middle" fill="black"> 1000110:3 </text>
<text x="660" y="-620760" text-anchor="middle" dominant-baseline="middle" fill="green"> 1000110:3 </text>
<text x="330" y="-620950" text-anchor="middle" dominant-baseline="middle" fill="black"> 346:349 </text>
<text x="330" y="-620930" text-anchor="middle" dominant-baseline="middle" fill="black"> 24909 </text>
<text x="330" y="-620890" text-anchor="middle" dominant-baseline="middle" fill="black"> 1010110:4 </text>
<text x="330" y="-620870" text-anchor="middle" dominant-baseline="middle" fill="green"> 1010110:4 </text>
<text x="440" y="-621720" text-anchor="middle" dominant-baseline="middle" fill="black"> 347:349 </text>
<text x="440" y="-621700" text-anchor="middle" dominant-baseline="middle" fill="black"> 24916 </text>
<text x="440" y="-621660" text-anchor="middle" dominant-baseline="middle" fill="black"> 1001000:2 </text>
<text x="440" y="-621640" text-anchor="middle" dominant-baseline="middle" fill="green"> 1001000:2 </text>
<text x="550" y="-620950" text-anchor="middle" dominant-baseline="middle" fill="black"> 347:348 </text>
<text x="550" y="-620930" text-anchor="middle" dominant-baseline="middle" fill="black"> 24887 </text>
<text x="550" y="-620890" text-anchor="middle" dominant-baseline="middle" fill="black"> 0000100:1 </text>
<text x="770" y="-621170" text-anchor="middle" dominant-baseline="middle" fill="black"> 347:348 </text>
<text x="770" y="-621150" text-anchor="middle" dominant-baseline="middle" fill="black"> 24865 </text>
<text x="770" y="-621110" text-anchor="middle" dominant-baseline="middle" fill="black"> 0000001:1 </text>
<text x="770" y="-621090" text-anchor="middle" dominant-baseline="middle" fill="red"> 1111110:6 </text>
<text x="770" y="-621070" text-anchor="middle" dominant-baseline="middle" fill="blue"> 1011111:6 </text>
<text x="690" y="-621170" text-anchor="middle" dominant-baseline="middle" fill="blue"> yes 6 </text>
<text x="110" y="-620840" text-anchor="middle" dominant-baseline="middle" fill="black"> 346:348 </text>
<text x="110" y="-620820" text-anchor="middle" dominant-baseline="middle" fill="black"> 24894 </text>
<text x="110" y="-620780" text-anchor="middle" dominant-baseline="middle" fill="black"> 1010110:4 </text>
<text x="110" y="-620760" text-anchor="middle" dominant-baseline="middle" fill="green"> 1010110:4 </text>
<text x="110" y="-621500" text-anchor="middle" dominant-baseline="middle" fill="black"> 347:349 </text>
<text x="110" y="-621480" text-anchor="middle" dominant-baseline="middle" fill="black"> 24918 </text>
<text x="110" y="-621440" text-anchor="middle" dominant-baseline="middle" fill="black"> 1001000:2 </text>
<text x="110" y="-621420" text-anchor="middle" dominant-baseline="middle" fill="green"> 1000000:1 </text>
<text x="550" y="-621390" text-anchor="middle" dominant-baseline="middle" fill="black"> 347:348 </text>
<text x="550" y="-621370" text-anchor="middle" dominant-baseline="middle" fill="black"> 24888 </text>
<text x="550" y="-621330" text-anchor="middle" dominant-baseline="middle" fill="black"> 0100100:2 </text>
<text x="550" y="-621310" text-anchor="middle" dominant-baseline="middle" fill="green"> 0000100:1 </text>
<text x="770" y="-621280" text-anchor="middle" dominant-baseline="middle" fill="black"> 347:348 </text>
<text x="770" y="-621260" text-anchor="middle" dominant-baseline="middle" fill="black"> 24866 </text>
<text x="770" y="-621220" text-anchor="middle" dominant-baseline="middle" fill="black"> 0000001:1 </text>
<text x="770" y="-622160" text-anchor="middle" dominant-baseline="middle" fill="black"> 347:349 </text>
<text x="770" y="-622140" text-anchor="middle" dominant-baseline="middle" fill="black"> 24903 </text>
<text x="770" y="-622100" text-anchor="middle" dominant-baseline="middle" fill="black"> 1101111:6 </text>
<text x="770" y="-622080" text-anchor="middle" dominant-baseline="middle" fill="green"> 0000111:3 </text>
<text x="220" y="-621390" text-anchor="middle" dominant-baseline="middle" fill="black"> 347:349 </text>
<text x="220" y="-621370" text-anchor="middle" dominant-baseline="middle" fill="black"> 24933 </text>
<text x="220" y="-621330" text-anchor="middle" dominant-baseline="middle" fill="black"> 0100001:2 </text>
<text x="220" y="-621310" text-anchor="middle" dominant-baseline="middle" fill="green"> 0100000:1 </text>
<text x="660" y="-620730" text-anchor="middle" dominant-baseline="middle" fill="black"> 346:348 </text>
<text x="660" y="-620710" text-anchor="middle" dominant-baseline="middle" fill="black"> 24881 </text>
<text x="660" y="-620670" text-anchor="middle" dominant-baseline="middle" fill="black"> 1000110:3 </text>
<text x="660" y="-620650" text-anchor="middle" dominant-baseline="middle" fill="green"> 1000110:3 </text>
<text x="330" y="-620730" text-anchor="middle" dominant-baseline="middle" fill="black"> 346:349 </text>
<text x="330" y="-620710" text-anchor="middle" dominant-baseline="middle" fill="black"> 24911 </text>
<text x="330" y="-620670" text-anchor="middle" dominant-baseline="middle" fill="black"> 1010110:4 </text>
<text x="330" y="-620650" text-anchor="middle" dominant-baseline="middle" fill="green"> 1010110:4 </text>
<text x="660" y="-621940" text-anchor="middle" dominant-baseline="middle" fill="black"> 347:349 </text>
<text x="660" y="-621920" text-anchor="middle" dominant-baseline="middle" fill="black"> 24940 </text>
<text x="660" y="-621880" text-anchor="middle" dominant-baseline="middle" fill="black"> 0110111:5 </text>
<text x="660" y="-621860" text-anchor="middle" dominant-baseline="middle" fill="green"> 0000110:2 </text>
<text x="330" y="-620840" text-anchor="middle" dominant-baseline="middle" fill="black"> 346:349 </text>
<text x="330" y="-620820" text-anchor="middle" dominant-baseline="middle" fill="black"> 24910 </text>
<text x="330" y="-620780" text-anchor="middle" dominant-baseline="middle" fill="black"> 1010110:4 </text>
<text x="330" y="-620760" text-anchor="middle" dominant-baseline="middle" fill="green"> 1010110:4 </text>
<text x="110" y="-620950" text-anchor="middle" dominant-baseline="middle" fill="black"> 346:348 </text>
<text x="110" y="-620930" text-anchor="middle" dominant-baseline="middle" fill="black"> 24896 </text>
<text x="110" y="-620890" text-anchor="middle" dominant-baseline="middle" fill="black"> 1010110:4 </text>
<text x="110" y="-620870" text-anchor="middle" dominant-baseline="middle" fill="green"> 1010110:4 </text>
<text x="550" y="-621610" text-anchor="middle" dominant-baseline="middle" fill="black"> 347:349 </text>
<text x="550" y="-621590" text-anchor="middle" dominant-baseline="middle" fill="black"> 24925 </text>
<text x="550" y="-621550" text-anchor="middle" dominant-baseline="middle" fill="black"> 0100100:2 </text>
<text x="550" y="-621530" text-anchor="middle" dominant-baseline="middle" fill="green"> 0000100:1 </text>
<text x="660" y="-622050" text-anchor="middle" dominant-baseline="middle" fill="black"> 347:349 </text>
<text x="660" y="-622030" text-anchor="middle" dominant-baseline="middle" fill="black"> 24939 </text>
<text x="660" y="-621990" text-anchor="middle" dominant-baseline="middle" fill="black"> 0110111:5 </text>
<text x="660" y="-621970" text-anchor="middle" dominant-baseline="middle" fill="green"> 0000110:2 </text>
<text x="220" y="-621500" text-anchor="middle" dominant-baseline="middle" fill="black"> 347:349 </text>
<text x="220" y="-621480" text-anchor="middle" dominant-baseline="middle" fill="black"> 24932 </text>
<text x="220" y="-621440" text-anchor="middle" dominant-baseline="middle" fill="black"> 0100001:2 </text>
<text x="220" y="-621420" text-anchor="middle" dominant-baseline="middle" fill="green"> 0100000:1 </text>
<text x="440" y="-621830" text-anchor="middle" dominant-baseline="middle" fill="black"> 347:349 </text>
<text x="440" y="-621810" text-anchor="middle" dominant-baseline="middle" fill="black"> 24919 </text>
<text x="440" y="-621770" text-anchor="middle" dominant-baseline="middle" fill="black"> 1001001:3 </text>
<text x="440" y="-621750" text-anchor="middle" dominant-baseline="middle" fill="green"> 1001001:3 </text>
<text x="550" y="-621500" text-anchor="middle" dominant-baseline="middle" fill="black"> 347:348 </text>
<text x="550" y="-621480" text-anchor="middle" dominant-baseline="middle" fill="black"> 24900 </text>
<text x="550" y="-621440" text-anchor="middle" dominant-baseline="middle" fill="black"> 0100100:2 </text>
<text x="550" y="-621420" text-anchor="middle" dominant-baseline="middle" fill="green"> 0000100:1 </text>
<text x="110" y="-622050" text-anchor="middle" dominant-baseline="middle" fill="black"> 347:349 </text>
<text x="110" y="-622030" text-anchor="middle" dominant-baseline="middle" fill="black"> 24971 </text>
<text x="110" y="-621990" text-anchor="middle" dominant-baseline="middle" fill="black"> 1001000:2 </text>
<text x="110" y="-621970" text-anchor="middle" dominant-baseline="middle" fill="green"> 1000000:1 </text>
<text x="440" y="-621170" text-anchor="middle" dominant-baseline="middle" fill="black"> 347:349 </text>
<text x="440" y="-621150" text-anchor="middle" dominant-baseline="middle" fill="black"> 24915 </text>
<text x="440" y="-621110" text-anchor="middle" dominant-baseline="middle" fill="black"> 0001000:1 </text>
<text x="550" y="-620840" text-anchor="middle" dominant-baseline="middle" fill="black"> 347:348 </text>
<text x="550" y="-620820" text-anchor="middle" dominant-baseline="middle" fill="black"> 24859 </text>
<text x="550" y="-620780" text-anchor="middle" dominant-baseline="middle" fill="black"> 0000100:1 </text>
<text x="770" y="-621720" text-anchor="middle" dominant-baseline="middle" fill="black"> 347:348 </text>
<text x="770" y="-621700" text-anchor="middle" dominant-baseline="middle" fill="black"> 24893 </text>
<text x="770" y="-621660" text-anchor="middle" dominant-baseline="middle" fill="black"> 0101111:5 </text>
<text x="770" y="-621640" text-anchor="middle" dominant-baseline="middle" fill="green"> 0000111:3 </text>
<text x="660" y="-622160" text-anchor="middle" dominant-baseline="middle" fill="black"> 347:349 </text>
<text x="660" y="-622140" text-anchor="middle" dominant-baseline="middle" fill="black"> 24938 </text>
<text x="660" y="-622100" text-anchor="middle" dominant-baseline="middle" fill="black"> 0110111:5 </text>
<text x="660" y="-622080" text-anchor="middle" dominant-baseline="middle" fill="green"> 0000110:2 </text>
<text x="110" y="-621720" text-anchor="middle" dominant-baseline="middle" fill="black"> 347:349 </text>
<text x="110" y="-621700" text-anchor="middle" dominant-baseline="middle" fill="black"> 24929 </text>
<text x="110" y="-621660" text-anchor="middle" dominant-baseline="middle" fill="black"> 1001000:2 </text>
<text x="110" y="-621640" text-anchor="middle" dominant-baseline="middle" fill="green"> 1000000:1 </text>
<text x="550" y="-621060" text-anchor="middle" dominant-baseline="middle" fill="black"> 347:348 </text>
<text x="550" y="-621040" text-anchor="middle" dominant-baseline="middle" fill="black"> 24886 </text>
<text x="550" y="-621000" text-anchor="middle" dominant-baseline="middle" fill="black"> 0000100:1 </text>
<text x="550" y="-620980" text-anchor="middle" dominant-baseline="middle" fill="green"> 0000100:1 </text>
<text x="440" y="-621060" text-anchor="middle" dominant-baseline="middle" fill="black"> 347:348 </text>
<text x="440" y="-621040" text-anchor="middle" dominant-baseline="middle" fill="black"> 24877 </text>
<text x="440" y="-621000" text-anchor="middle" dominant-baseline="middle" fill="black"> 0001000:1 </text>
<text x="220" y="-621060" text-anchor="middle" dominant-baseline="middle" fill="black"> 347:348 </text>
<text x="220" y="-621040" text-anchor="middle" dominant-baseline="middle" fill="black"> 24864 </text>
<text x="220" y="-621000" text-anchor="middle" dominant-baseline="middle" fill="black"> 0100000:1 </text>
<text x="770" y="-621610" text-anchor="middle" dominant-baseline="middle" fill="black"> 347:348 </text>
<text x="770" y="-621590" text-anchor="middle" dominant-baseline="middle" fill="black"> 24879 </text>
<text x="770" y="-621550" text-anchor="middle" dominant-baseline="middle" fill="black"> 0001001:2 </text>
<text x="770" y="-621530" text-anchor="middle" dominant-baseline="middle" fill="green"> 0000001:1 </text>
<text x="440" y="-620840" text-anchor="middle" dominant-baseline="middle" fill="black"> 347:348 </text>
<text x="440" y="-620820" text-anchor="middle" dominant-baseline="middle" fill="black"> 24870 </text>
<text x="440" y="-620780" text-anchor="middle" dominant-baseline="middle" fill="black"> 0001000:1 </text>
<text x="440" y="-620760" text-anchor="middle" dominant-baseline="middle" fill="red"> 1011110:5 </text>
<text x="440" y="-620740" text-anchor="middle" dominant-baseline="middle" fill="blue"> 1011111:6 </text>
<text x="360" y="-620840" text-anchor="middle" dominant-baseline="middle" fill="blue"> yes 6 </text>
<text x="770" y="-621830" text-anchor="middle" dominant-baseline="middle" fill="black"> 347:348 </text>
<text x="770" y="-621810" text-anchor="middle" dominant-baseline="middle" fill="black"> 24899 </text>
<text x="770" y="-621770" text-anchor="middle" dominant-baseline="middle" fill="black"> 1101111:6 </text>
<text x="770" y="-621750" text-anchor="middle" dominant-baseline="middle" fill="green"> 0000111:3 </text>
<text x="660" y="-621500" text-anchor="middle" dominant-baseline="middle" fill="black"> 347:348 </text>
<text x="660" y="-621480" text-anchor="middle" dominant-baseline="middle" fill="black"> 24891 </text>
<text x="660" y="-621440" text-anchor="middle" dominant-baseline="middle" fill="black"> 0100110:3 </text>
<text x="660" y="-621420" text-anchor="middle" dominant-baseline="middle" fill="green"> 0000110:2 </text>
<text x="110" y="-621830" text-anchor="middle" dominant-baseline="middle" fill="black"> 347:349 </text>
<text x="110" y="-621810" text-anchor="middle" dominant-baseline="middle" fill="black"> 24928 </text>
<text x="110" y="-621770" text-anchor="middle" dominant-baseline="middle" fill="black"> 1001000:2 </text>
<text x="110" y="-621750" text-anchor="middle" dominant-baseline="middle" fill="green"> 1000000:1 </text>
<text x="440" y="-622160" text-anchor="middle" dominant-baseline="middle" fill="black"> 348:349 </text>
<text x="440" y="-622140" text-anchor="middle" dominant-baseline="middle" fill="black"> 24920 </text>
<text x="440" y="-622100" text-anchor="middle" dominant-baseline="middle" fill="black"> 0001000:1 </text>
<text x="440" y="-622080" text-anchor="middle" dominant-baseline="middle" fill="red"> 1001111:5 </text>
<text x="440" y="-622060" text-anchor="middle" dominant-baseline="middle" fill="blue"> 1111111:7 </text>
<text x="360" y="-622160" text-anchor="middle" dominant-baseline="middle" fill="blue"> yes 7 </text>
<text x="770" y="-621500" text-anchor="middle" dominant-baseline="middle" fill="black"> 347:348 </text>
<text x="770" y="-621480" text-anchor="middle" dominant-baseline="middle" fill="black"> 24868 </text>
<text x="770" y="-621440" text-anchor="middle" dominant-baseline="middle" fill="black"> 0000001:1 </text>
<text x="110" y="-621170" text-anchor="middle" dominant-baseline="middle" fill="black"> 346:348 </text>
<text x="110" y="-621150" text-anchor="middle" dominant-baseline="middle" fill="black"> 24898 </text>
<text x="110" y="-621110" text-anchor="middle" dominant-baseline="middle" fill="black"> 1010110:4 </text>
<text x="110" y="-621090" text-anchor="middle" dominant-baseline="middle" fill="green"> 1010110:4 </text>
<text x="660" y="-621390" text-anchor="middle" dominant-baseline="middle" fill="black"> 347:348 </text>
<text x="660" y="-621370" text-anchor="middle" dominant-baseline="middle" fill="black"> 24890 </text>
<text x="660" y="-621330" text-anchor="middle" dominant-baseline="middle" fill="black"> 0000010:1 </text>
<text x="660" y="-621310" text-anchor="middle" dominant-baseline="middle" fill="red"> 1011110:5 </text>
<text x="660" y="-621290" text-anchor="middle" dominant-baseline="middle" fill="blue"> 1011111:6 </text>
<text x="580" y="-621390" text-anchor="middle" dominant-baseline="middle" fill="blue"> yes 6 </text>
<text x="550" y="-620730" text-anchor="middle" dominant-baseline="middle" fill="black"> 347:348 </text>
<text x="550" y="-620710" text-anchor="middle" dominant-baseline="middle" fill="black"> 24860 </text>
<text x="550" y="-620670" text-anchor="middle" dominant-baseline="middle" fill="black"> 0000100:1 </text>
<text x="550" y="-620650" text-anchor="middle" dominant-baseline="middle" fill="red"> 1011110:5 </text>
<text x="550" y="-620630" text-anchor="middle" dominant-baseline="middle" fill="blue"> 1011111:6 </text>
<text x="470" y="-620730" text-anchor="middle" dominant-baseline="middle" fill="blue"> yes 6 </text>
<text x="110" y="-621390" text-anchor="middle" dominant-baseline="middle" fill="black"> 347:348 </text>
<text x="110" y="-621370" text-anchor="middle" dominant-baseline="middle" fill="black"> 24897 </text>
<text x="110" y="-621330" text-anchor="middle" dominant-baseline="middle" fill="black"> 1000000:1 </text>
<text x="110" y="-621310" text-anchor="middle" dominant-baseline="middle" fill="red"> 1111110:6 </text>
<text x="110" y="-621290" text-anchor="middle" dominant-baseline="middle" fill="blue"> 1011111:6 </text>
<text x="30" y="-621390" text-anchor="middle" dominant-baseline="middle" fill="blue"> yes 6 </text>
<text x="770" y="-621390" text-anchor="middle" dominant-baseline="middle" fill="black"> 347:348 </text>
<text x="770" y="-621370" text-anchor="middle" dominant-baseline="middle" fill="black"> 24867 </text>
<text x="770" y="-621330" text-anchor="middle" dominant-baseline="middle" fill="black"> 0000001:1 </text>
<text x="110" y="-621940" text-anchor="middle" dominant-baseline="middle" fill="black"> 347:349 </text>
<text x="110" y="-621920" text-anchor="middle" dominant-baseline="middle" fill="black"> 24930 </text>
<text x="110" y="-621880" text-anchor="middle" dominant-baseline="middle" fill="black"> 1001000:2 </text>
<text x="110" y="-621860" text-anchor="middle" dominant-baseline="middle" fill="green"> 1000000:1 </text>
<text x="660" y="-621830" text-anchor="middle" dominant-baseline="middle" fill="black"> 347:349 </text>
<text x="660" y="-621810" text-anchor="middle" dominant-baseline="middle" fill="black"> 24941 </text>
<text x="660" y="-621770" text-anchor="middle" dominant-baseline="middle" fill="black"> 0100111:4 </text>
<text x="660" y="-621750" text-anchor="middle" dominant-baseline="middle" fill="green"> 0000110:2 </text>
<text x="110" y="-620730" text-anchor="middle" dominant-baseline="middle" fill="black"> 346:348 </text>
<text x="110" y="-620710" text-anchor="middle" dominant-baseline="middle" fill="black"> 24874 </text>
<text x="110" y="-620670" text-anchor="middle" dominant-baseline="middle" fill="black"> 1010110:4 </text>
<text x="110" y="-620650" text-anchor="middle" dominant-baseline="middle" fill="green"> 1010110:4 </text>
<text x="550" y="-621280" text-anchor="middle" dominant-baseline="middle" fill="black"> 347:348 </text>
<text x="550" y="-621260" text-anchor="middle" dominant-baseline="middle" fill="black"> 24889 </text>
<text x="550" y="-621220" text-anchor="middle" dominant-baseline="middle" fill="black"> 0100100:2 </text>
<text x="550" y="-621200" text-anchor="middle" dominant-baseline="middle" fill="green"> 0000100:1 </text>
<text x="330" y="-621060" text-anchor="middle" dominant-baseline="middle" fill="black"> 346:349 </text>
<text x="330" y="-621040" text-anchor="middle" dominant-baseline="middle" fill="black"> 24908 </text>
<text x="330" y="-621000" text-anchor="middle" dominant-baseline="middle" fill="black"> 1010110:4 </text>
<text x="330" y="-620980" text-anchor="middle" dominant-baseline="middle" fill="green"> 1010110:4 </text>
<text x="550" y="-622160" text-anchor="middle" dominant-baseline="middle" fill="black"> 347:349 </text>
<text x="550" y="-622140" text-anchor="middle" dominant-baseline="middle" fill="black"> 24923 </text>
<text x="550" y="-622100" text-anchor="middle" dominant-baseline="middle" fill="black"> 1101111:6 </text>
<text x="550" y="-622080" text-anchor="middle" dominant-baseline="middle" fill="green"> 0000111:3 </text>
<text x="220" y="-621280" text-anchor="middle" dominant-baseline="middle" fill="black"> 347:349 </text>
<text x="220" y="-621260" text-anchor="middle" dominant-baseline="middle" fill="black"> 24934 </text>
<text x="220" y="-621220" text-anchor="middle" dominant-baseline="middle" fill="black"> 0100001:2 </text>
<text x="220" y="-621200" text-anchor="middle" dominant-baseline="middle" fill="green"> 0100000:1 </text>
<text x="660" y="-621720" text-anchor="middle" dominant-baseline="middle" fill="black"> 347:349 </text>
<text x="660" y="-621700" text-anchor="middle" dominant-baseline="middle" fill="black"> 24912 </text>
<text x="660" y="-621660" text-anchor="middle" dominant-baseline="middle" fill="black"> 0100111:4 </text>
<text x="660" y="-621640" text-anchor="middle" dominant-baseline="middle" fill="green"> 0000110:2 </text>
<text x="770" y="-621940" text-anchor="middle" dominant-baseline="middle" fill="black"> 347:348 </text>
<text x="770" y="-621920" text-anchor="middle" dominant-baseline="middle" fill="black"> 24901 </text>
<text x="770" y="-621880" text-anchor="middle" dominant-baseline="middle" fill="black"> 1101111:6 </text>
<text x="770" y="-621860" text-anchor="middle" dominant-baseline="middle" fill="green"> 0000111:3 </text>
<text x="660" y="-621610" text-anchor="middle" dominant-baseline="middle" fill="black"> 347:348 </text>
<text x="660" y="-621590" text-anchor="middle" dominant-baseline="middle" fill="black"> 24892 </text>
<text x="660" y="-621550" text-anchor="middle" dominant-baseline="middle" fill="black"> 0100111:4 </text>
<text x="660" y="-621530" text-anchor="middle" dominant-baseline="middle" fill="green"> 0000110:2 </text>
<text x="440" y="-620730" text-anchor="middle" dominant-baseline="middle" fill="black"> 346:348 </text>
<text x="440" y="-620710" text-anchor="middle" dominant-baseline="middle" fill="black"> 24871 </text>
<text x="440" y="-620670" text-anchor="middle" dominant-baseline="middle" fill="black"> 1011100:4 </text>
<text x="440" y="-620650" text-anchor="middle" dominant-baseline="middle" fill="green"> 0011100:3 </text>
<text x="440" y="-620950" text-anchor="middle" dominant-baseline="middle" fill="black"> 347:348 </text>
<text x="440" y="-620930" text-anchor="middle" dominant-baseline="middle" fill="black"> 24878 </text>
<text x="440" y="-620890" text-anchor="middle" dominant-baseline="middle" fill="black"> 0001000:1 </text>
<text x="550" y="-621170" text-anchor="middle" dominant-baseline="middle" fill="black"> 347:348 </text>
<text x="550" y="-621150" text-anchor="middle" dominant-baseline="middle" fill="black"> 24885 </text>
<text x="550" y="-621110" text-anchor="middle" dominant-baseline="middle" fill="black"> 0100100:2 </text>
<text x="550" y="-621090" text-anchor="middle" dominant-baseline="middle" fill="green"> 0000100:1 </text>
</g>
</svg>
