<?xml version="1.0" encoding="UTF-8" standalone="no"?>
<!DOCTYPE svg PUBLIC "-//W3C//DTD SVG 1.1//EN"
 "http://www.w3.org/Graphics/SVG/1.1/DTD/svg11.dtd">
<!-- Generated by graphviz version 2.43.0 (0)
 -->
<!-- Title: tagion_hierarchy Pages: 1 -->
<svg width="576pt" height="356pt"
 viewBox="0.00 0.00 576.00 356.18" xmlns="http://www.w3.org/2000/svg" xmlns:xlink="http://www.w3.org/1999/xlink">
<g id="graph0" class="graph" transform="scale(1.16 1.16) rotate(0) translate(4 410)">
<title>tagion_hierarchy</title>
<polygon fill="white" stroke="transparent" points="-4,4 -4,-410 665.5,-410 665.5,4 -4,4"/>
<!-- Tagionwave -->
<g id="node1" class="node">
<title>Tagionwave</title>
<polygon fill="blue" stroke="blue" points="547,-406 446,-406 446,-370 547,-370 547,-406"/>
<text text-anchor="middle" x="496.5" y="-384.3" font-family="Times,serif" font-size="14.00">Tagionwave</text>
</g>
<!-- TagionFactory -->
<g id="node2" class="node">
<title>TagionFactory</title>
<polygon fill="lightgrey" stroke="black" points="441,-334 370,-334 370,-296 441,-296 441,-334"/>
<text text-anchor="middle" x="405.5" y="-318.8" font-family="Times,serif" font-size="14.00">Tagion</text>
<text text-anchor="middle" x="405.5" y="-303.8" font-family="Times,serif" font-size="14.00">Factory</text>
</g>
<!-- Tagionwave&#45;&gt;TagionFactory -->
<g id="edge3" class="edge">
<title>Tagionwave&#45;&gt;TagionFactory</title>
<path fill="none" stroke="black" d="M474.47,-369.81C463.08,-360.93 448.99,-349.93 436.51,-340.2"/>
<polygon fill="black" stroke="black" points="438.63,-337.41 428.6,-334.02 434.33,-342.93 438.63,-337.41"/>
</g>
<!-- Logger -->
<g id="node13" class="node">
<title>Logger</title>
<polygon fill="lightgrey" stroke="black" points="530,-333 463,-333 463,-297 530,-297 530,-333"/>
<text text-anchor="middle" x="496.5" y="-311.3" font-family="Times,serif" font-size="14.00">Logger</text>
</g>
<!-- Tagionwave&#45;&gt;Logger -->
<g id="edge1" class="edge">
<title>Tagionwave&#45;&gt;Logger</title>
<path fill="none" stroke="black" d="M496.5,-369.81C496.5,-361.79 496.5,-352.05 496.5,-343.07"/>
<polygon fill="black" stroke="black" points="500,-343.03 496.5,-333.03 493,-343.03 500,-343.03"/>
</g>
<!-- Registration -->
<g id="node14" class="node">
<title>Registration</title>
<polygon fill="lightgrey" stroke="black" points="653,-333 548,-333 548,-297 653,-297 653,-333"/>
<text text-anchor="middle" x="600.5" y="-311.3" font-family="Times,serif" font-size="14.00">Registration</text>
</g>
<!-- Tagionwave&#45;&gt;Registration -->
<g id="edge4" class="edge">
<title>Tagionwave&#45;&gt;Registration</title>
<path fill="none" stroke="black" d="M521.41,-369.99C535.07,-360.67 552.2,-348.97 567.02,-338.86"/>
<polygon fill="black" stroke="black" points="569.15,-341.64 575.43,-333.11 565.2,-335.86 569.15,-341.64"/>
</g>
<!-- Tagion -->
<g id="node15" class="node">
<title>Tagion</title>
<polygon fill="lightgrey" stroke="black" points="429.5,-259 365.5,-259 365.5,-223 429.5,-223 429.5,-259"/>
<text text-anchor="middle" x="397.5" y="-237.3" font-family="Times,serif" font-size="14.00">Tagion</text>
</g>
<!-- TagionFactory&#45;&gt;Tagion -->
<g id="edge5" class="edge">
<title>TagionFactory&#45;&gt;Tagion</title>
<path fill="none" stroke="black" d="M403.48,-295.83C402.6,-287.89 401.55,-278.41 400.57,-269.63"/>
<polygon fill="black" stroke="black" points="404.02,-268.97 399.44,-259.42 397.06,-269.74 404.02,-268.97"/>
</g>
<!-- DART -->
<g id="node3" class="node">
<title>DART</title>
<path fill="lightgrey" stroke="black" d="M173,-181.73C173,-183.53 160.23,-185 144.5,-185 128.77,-185 116,-183.53 116,-181.73 116,-181.73 116,-152.27 116,-152.27 116,-150.47 128.77,-149 144.5,-149 160.23,-149 173,-150.47 173,-152.27 173,-152.27 173,-181.73 173,-181.73"/>
<path fill="none" stroke="black" d="M173,-181.73C173,-179.92 160.23,-178.45 144.5,-178.45 128.77,-178.45 116,-179.92 116,-181.73"/>
<text text-anchor="middle" x="144.5" y="-163.3" font-family="Times,serif" font-size="14.00">DART</text>
</g>
<!-- DARTInterface -->
<g id="node4" class="node">
<title>DARTInterface</title>
<polygon fill="lightgrey" stroke="black" points="81,-112 0,-112 0,-74 81,-74 81,-112"/>
<text text-anchor="middle" x="40.5" y="-96.8" font-family="Times,serif" font-size="14.00">DART</text>
<text text-anchor="middle" x="40.5" y="-81.8" font-family="Times,serif" font-size="14.00">Interface</text>
</g>
<!-- DART&#45;&gt;DARTInterface -->
<g id="edge10" class="edge">
<title>DART&#45;&gt;DARTInterface</title>
<path fill="none" stroke="black" d="M121.16,-149.84C107.64,-140.48 90.37,-128.52 75.28,-118.08"/>
<polygon fill="black" stroke="black" points="76.9,-114.94 66.69,-112.13 72.92,-120.7 76.9,-114.94"/>
</g>
<!-- Replicator -->
<g id="node17" class="node">
<title>Replicator</title>
<polygon fill="lightgrey" stroke="black" points="189.5,-111 99.5,-111 99.5,-75 189.5,-75 189.5,-111"/>
<text text-anchor="middle" x="144.5" y="-89.3" font-family="Times,serif" font-size="14.00">Replicator</text>
</g>
<!-- DART&#45;&gt;Replicator -->
<g id="edge8" class="edge">
<title>DART&#45;&gt;Replicator</title>
<path fill="none" stroke="black" d="M144.5,-148.94C144.5,-140.81 144.5,-130.88 144.5,-121.7"/>
<polygon fill="black" stroke="black" points="148,-121.44 144.5,-111.44 141,-121.44 148,-121.44"/>
</g>
<!-- ContractInterface -->
<g id="node5" class="node">
<title>ContractInterface</title>
<polygon fill="lightgrey" stroke="black" points="289,-112 208,-112 208,-74 289,-74 289,-112"/>
<text text-anchor="middle" x="248.5" y="-96.8" font-family="Times,serif" font-size="14.00">Contract</text>
<text text-anchor="middle" x="248.5" y="-81.8" font-family="Times,serif" font-size="14.00">Interface</text>
</g>
<!-- TLS -->
<g id="node12" class="node">
<title>TLS</title>
<polygon fill="green" stroke="green" points="275.5,-37 221.5,-37 221.5,-1 275.5,-1 275.5,-37"/>
<text text-anchor="middle" x="248.5" y="-15.3" font-family="Times,serif" font-size="14.00">TLS</text>
</g>
<!-- ContractInterface&#45;&gt;TLS -->
<g id="edge18" class="edge">
<title>ContractInterface&#45;&gt;TLS</title>
<path fill="none" stroke="black" d="M248.5,-73.83C248.5,-65.89 248.5,-56.41 248.5,-47.63"/>
<polygon fill="black" stroke="black" points="252,-47.42 248.5,-37.42 245,-47.42 252,-47.42"/>
</g>
<!-- Transcript -->
<g id="node6" class="node">
<title>Transcript</title>
<polygon fill="lightgrey" stroke="black" points="392,-111 307,-111 307,-75 398,-75 398,-105 392,-111"/>
<polyline fill="none" stroke="black" points="392,-111 392,-105 "/>
<polyline fill="none" stroke="black" points="398,-105 392,-105 "/>
<text text-anchor="middle" x="352.5" y="-89.3" font-family="Times,serif" font-size="14.00">Transcript</text>
</g>
<!-- EpochDump -->
<g id="node9" class="node">
<title>EpochDump</title>
<polygon fill="lightgrey" stroke="black" points="383,-38 322,-38 322,0 383,0 383,-38"/>
<text text-anchor="middle" x="352.5" y="-22.8" font-family="Times,serif" font-size="14.00">Epoch</text>
<text text-anchor="middle" x="352.5" y="-7.8" font-family="Times,serif" font-size="14.00">Dump</text>
</g>
<!-- Transcript&#45;&gt;EpochDump -->
<g id="edge15" class="edge">
<title>Transcript&#45;&gt;EpochDump</title>
<path fill="none" stroke="black" d="M352.5,-74.94C352.5,-66.99 352.5,-57.31 352.5,-48.31"/>
<polygon fill="black" stroke="black" points="356,-48.2 352.5,-38.2 349,-48.2 356,-48.2"/>
</g>
<!-- Collector -->
<g id="node7" class="node">
<title>Collector</title>
<polygon fill="lightgrey" stroke="black" points="497,-111 416,-111 416,-75 497,-75 497,-111"/>
<text text-anchor="middle" x="456.5" y="-89.3" font-family="Times,serif" font-size="14.00">Collector</text>
</g>
<!-- TVM -->
<g id="node19" class="node">
<title>TVM</title>
<polygon fill="lightgrey" stroke="black" points="483.5,-37 429.5,-37 429.5,-1 483.5,-1 483.5,-37"/>
<text text-anchor="middle" x="456.5" y="-15.3" font-family="Times,serif" font-size="14.00">TVM</text>
</g>
<!-- Collector&#45;&gt;TVM -->
<g id="edge17" class="edge">
<title>Collector&#45;&gt;TVM</title>
<path fill="none" stroke="black" d="M456.5,-74.94C456.5,-66.81 456.5,-56.88 456.5,-47.7"/>
<polygon fill="black" stroke="black" points="460,-47.44 456.5,-37.44 453,-47.44 460,-47.44"/>
</g>
<!-- EpochConsensus -->
<g id="node8" class="node">
<title>EpochConsensus</title>
<polygon fill="lightgrey" stroke="black" points="433,-186 362,-186 362,-148 433,-148 433,-186"/>
<text text-anchor="middle" x="397.5" y="-170.8" font-family="Times,serif" font-size="14.00">Epoch</text>
<text text-anchor="middle" x="397.5" y="-155.8" font-family="Times,serif" font-size="14.00">Creator</text>
</g>
<!-- EpochConsensus&#45;&gt;ContractInterface -->
<g id="edge12" class="edge">
<title>EpochConsensus&#45;&gt;ContractInterface</title>
<path fill="none" stroke="black" d="M361.81,-148.75C341.86,-139.11 316.76,-126.99 295.26,-116.59"/>
<polygon fill="black" stroke="black" points="296.5,-113.31 285.98,-112.11 293.46,-119.61 296.5,-113.31"/>
</g>
<!-- EpochConsensus&#45;&gt;Transcript -->
<g id="edge13" class="edge">
<title>EpochConsensus&#45;&gt;Transcript</title>
<path fill="none" stroke="black" d="M386.14,-147.83C380.86,-139.37 374.47,-129.15 368.69,-119.9"/>
<polygon fill="black" stroke="black" points="371.65,-118.04 363.39,-111.42 365.72,-121.75 371.65,-118.04"/>
</g>
<!-- EpochConsensus&#45;&gt;Collector -->
<g id="edge14" class="edge">
<title>EpochConsensus&#45;&gt;Collector</title>
<path fill="none" stroke="black" d="M412.39,-147.83C419.46,-139.2 428.04,-128.73 435.74,-119.33"/>
<polygon fill="black" stroke="black" points="438.6,-121.37 442.23,-111.42 433.18,-116.93 438.6,-121.37"/>
</g>
<!-- Monitor -->
<g id="node18" class="node">
<title>Monitor</title>
<polygon fill="lightgrey" stroke="black" points="589.5,-111 515.5,-111 515.5,-75 589.5,-75 589.5,-111"/>
<text text-anchor="middle" x="552.5" y="-89.3" font-family="Times,serif" font-size="14.00">Monitor</text>
</g>
<!-- EpochConsensus&#45;&gt;Monitor -->
<g id="edge16" class="edge">
<title>EpochConsensus&#45;&gt;Monitor</title>
<path fill="none" stroke="black" d="M433.06,-149.48C454.92,-139.33 483.14,-126.22 506.67,-115.29"/>
<polygon fill="black" stroke="black" points="508.16,-118.45 515.76,-111.07 505.21,-112.11 508.16,-118.45"/>
</g>
<!-- ConsensusInterface -->
<g id="node10" class="node">
<title>ConsensusInterface</title>
<polygon fill="lightgrey" stroke="black" points="635,-186 542,-186 542,-148 635,-148 635,-186"/>
<text text-anchor="middle" x="588.5" y="-170.8" font-family="Times,serif" font-size="14.00">Consensus</text>
<text text-anchor="middle" x="588.5" y="-155.8" font-family="Times,serif" font-size="14.00">Interface</text>
</g>
<!-- P2P -->
<g id="node16" class="node">
<title>P2P</title>
<polygon fill="lightgrey" stroke="black" points="661.5,-111 607.5,-111 607.5,-75 661.5,-75 661.5,-111"/>
<text text-anchor="middle" x="634.5" y="-89.3" font-family="Times,serif" font-size="14.00">P2P</text>
</g>
<!-- ConsensusInterface&#45;&gt;P2P -->
<g id="edge7" class="edge">
<title>ConsensusInterface&#45;&gt;P2P</title>
<path fill="none" stroke="black" d="M600.11,-147.83C605.51,-139.37 612.04,-129.15 617.95,-119.9"/>
<polygon fill="black" stroke="black" points="620.94,-121.73 623.37,-111.42 615.04,-117.96 620.94,-121.73"/>
</g>
<!-- LoggerSubscription -->
<g id="node11" class="node">
<title>LoggerSubscription</title>
<polygon fill="lightgrey" stroke="black" points="555,-260 448,-260 448,-222 555,-222 555,-260"/>
<text text-anchor="middle" x="501.5" y="-244.8" font-family="Times,serif" font-size="14.00">Logger</text>
<text text-anchor="middle" x="501.5" y="-229.8" font-family="Times,serif" font-size="14.00">Subscription</text>
</g>
<!-- Logger&#45;&gt;LoggerSubscription -->
<g id="edge2" class="edge">
<title>Logger&#45;&gt;LoggerSubscription</title>
<path fill="none" stroke="black" d="M497.68,-296.94C498.24,-288.99 498.91,-279.31 499.53,-270.31"/>
<polygon fill="black" stroke="black" points="503.03,-270.42 500.24,-260.2 496.05,-269.93 503.03,-270.42"/>
</g>
<!-- Tagion&#45;&gt;DART -->
<g id="edge9" class="edge">
<title>Tagion&#45;&gt;DART</title>
<path fill="none" stroke="black" d="M365.46,-230.88C318.93,-217.64 232.81,-193.13 182.93,-178.94"/>
<polygon fill="black" stroke="black" points="183.74,-175.53 173.16,-176.16 181.82,-182.26 183.74,-175.53"/>
</g>
<!-- Tagion&#45;&gt;EpochConsensus -->
<g id="edge11" class="edge">
<title>Tagion&#45;&gt;EpochConsensus</title>
<path fill="none" stroke="black" d="M397.5,-222.94C397.5,-214.99 397.5,-205.31 397.5,-196.31"/>
<polygon fill="black" stroke="black" points="401,-196.2 397.5,-186.2 394,-196.2 401,-196.2"/>
</g>
<!-- Tagion&#45;&gt;ConsensusInterface -->
<g id="edge6" class="edge">
<title>Tagion&#45;&gt;ConsensusInterface</title>
<path fill="none" stroke="black" d="M429.64,-225.64C432.63,-224.38 435.61,-223.15 438.5,-222 469.2,-209.75 503.9,-197.18 532.19,-187.25"/>
<polygon fill="black" stroke="black" points="533.62,-190.46 541.91,-183.86 531.31,-183.85 533.62,-190.46"/>
</g>
</g>
</svg>
