<svg width="31" height="33" viewBox="0 0 31 33" fill="none" xmlns="http://www.w3.org/2000/svg">
<path d="M19.5839 19.7364H24.7044C25.0958 19.7364 25.4219 19.449 25.4871 19.0977L26.4982 13.5408C26.7917 11.8482 25.8785 10.1876 24.2804 9.51691L13.648 5.04588C13.3219 4.91814 13.1262 4.5349 13.1914 4.18361L13.7785 0.92614C13.8763 0.447101 13.4849 0 12.9957 0H9.89733C9.63641 0 9.37549 0.127746 9.21242 0.351297L6.44017 4.63071C6.01618 5.30136 5.33128 5.78041 4.58114 5.97202L0.993533 6.9301C0.700001 7.02591 0.471693 7.24946 0.406463 7.53688L0.0150936 9.67659C-0.0827504 10.1556 0.308623 10.6027 0.797843 10.6027H17.6922C19.062 10.6027 20.0731 11.8163 19.8448 13.1257L18.8337 18.7783C18.7033 19.3212 19.0947 19.7364 19.5839 19.7364Z" fill="#fefefe"/>
<path d="M10.7774 12.2656H5.65693C5.26555 12.2656 4.93941 12.553 4.87418 12.9043L3.86312 18.4612C3.56959 20.1538 4.4828 21.8145 6.08091 22.4851L16.7133 26.9562C17.0394 27.0839 17.2351 27.4671 17.1699 27.8184L16.5828 31.0759C16.485 31.5549 16.8764 32.002 17.3656 32.002H20.464C20.7249 32.002 20.9858 31.8743 21.1489 31.6507L23.9211 27.3713C24.3451 26.7007 25.03 26.2216 25.7802 26.03L29.3678 25.0719C29.6613 24.9761 29.8896 24.7526 29.9548 24.4652L30.3462 22.3254C30.4441 21.8464 30.0527 21.3993 29.5635 21.3993H12.6691C11.2993 21.3993 10.2882 20.1857 10.5165 18.8764L11.5276 13.2237C11.6254 12.6808 11.2667 12.2656 10.7774 12.2656Z" fill="#fefefe"/>
</svg>
