<svg width="3486" height="1457" viewBox="0 0 3486 1457" fill="none" xmlns="http://www.w3.org/2000/svg">
<rect width="3485.38" height="1456.22" fill="none"/>
<path d="M850.721 806.162H957.681C965.857 806.162 972.669 800.159 974.032 792.82L995.151 676.745C1001.28 641.389 982.207 606.7 948.825 592.691L726.729 499.298C719.916 496.629 715.829 488.624 717.191 481.286L729.454 413.242C731.498 403.235 723.323 393.896 713.104 393.896H648.382C642.932 393.896 637.482 396.564 634.076 401.234L576.167 490.625C567.311 504.634 553.004 514.641 537.335 518.643L462.394 538.656C456.263 540.658 451.494 545.327 450.131 551.331L441.956 596.027C439.912 606.033 448.088 615.372 458.307 615.372H811.207C839.821 615.372 860.94 640.722 856.171 668.073L835.052 786.15C832.327 797.49 840.502 806.162 850.721 806.162Z" fill="#121113"/>
<path d="M666.77 650.059H559.81C551.635 650.059 544.822 656.063 543.459 663.401L522.34 779.476C516.208 814.832 535.284 849.521 568.666 863.53L790.762 956.924C797.575 959.592 801.663 967.597 800.3 974.935L788.037 1042.98C785.993 1052.99 794.169 1062.33 804.388 1062.33H869.109C874.559 1062.33 880.009 1059.66 883.416 1054.99L941.324 965.596C950.181 951.587 964.487 941.581 980.157 937.578L1055.1 917.565C1061.23 915.564 1066 910.894 1067.36 904.89L1075.54 860.195C1077.58 850.188 1069.4 840.849 1059.18 840.849H706.284C677.671 840.849 656.551 815.499 661.32 788.148L682.439 670.072C684.483 658.731 676.989 650.059 666.77 650.059Z" fill="#121113"/>
<path d="M1287.77 600.701H1175.36C1170.59 600.701 1167.18 596.699 1167.18 591.362V558.007C1167.18 552.671 1170.59 548.668 1175.36 548.668H1527.58C1532.35 548.668 1535.75 552.671 1535.75 558.007V591.362C1535.75 596.699 1532.35 600.701 1527.58 600.701H1415.85C1411.08 600.701 1407.67 604.704 1407.67 610.041V843.525C1407.67 848.862 1404.27 852.865 1399.5 852.865H1303.44C1298.67 852.865 1295.26 848.862 1295.26 843.525V610.041C1295.94 605.371 1292.54 600.701 1287.77 600.701Z" fill="#121113"/>
<path d="M1504.43 851.536C1490.12 847.533 1479.9 840.862 1474.45 830.188C1469 820.182 1465.59 804.839 1465.59 784.826C1465.59 766.814 1469 752.805 1475.13 742.132C1481.26 732.125 1491.48 724.12 1505.11 720.117C1518.73 715.448 1550.07 713.446 1574.6 713.446H1672.02C1676.79 713.446 1680.19 709.444 1680.19 704.107V698.103C1680.19 688.764 1678.15 681.426 1674.74 676.756C1671.34 672.086 1664.53 668.751 1654.99 666.75C1645.45 664.748 1631.14 664.081 1611.39 664.081C1586.18 664.081 1542.58 665.415 1498.98 668.751C1494.21 669.418 1490.12 664.748 1490.12 659.412V634.729C1490.12 630.059 1493.53 626.057 1497.61 625.39C1531 622.721 1578.68 621.387 1620.92 621.387C1660.44 621.387 1703.36 623.388 1725.16 628.058C1746.96 632.728 1761.95 640.066 1771.49 650.739C1781.02 661.413 1785.79 676.756 1785.79 696.769V843.53C1785.79 848.867 1782.39 852.87 1777.62 852.87H1689.73C1684.96 852.87 1681.56 848.867 1681.56 843.53V837.527C1681.56 835.525 1679.51 834.191 1677.47 835.525C1670.66 841.529 1653.62 853.537 1633.87 854.871C1620.92 856.205 1603.21 857.539 1580.73 857.539C1552.11 857.539 1518.73 855.538 1504.43 851.536ZM1658.39 813.511C1664.53 812.844 1668.61 812.177 1670.66 810.843C1672.7 809.508 1674.74 807.507 1676.79 804.839C1678.83 802.837 1679.51 799.502 1679.51 794.832V761.477C1679.51 755.474 1675.43 750.804 1669.98 750.804H1614.79C1600.49 750.804 1590.27 751.471 1584.13 752.805C1578 754.139 1573.92 756.808 1571.87 761.477C1569.83 765.48 1568.47 772.818 1568.47 783.492C1568.47 793.498 1569.83 800.836 1571.87 804.839C1573.92 808.841 1578 811.51 1584.13 812.844C1590.27 814.178 1601.17 814.845 1617.52 814.845C1636.59 814.845 1650.22 814.178 1658.39 813.511Z" fill="#121113"/>
<path d="M1840.27 943.592V916.241C1840.27 910.904 1844.36 906.901 1849.13 906.901C1887.28 910.237 1932.24 912.238 1964.94 912.238C1996.28 912.238 2019.45 908.236 2033.07 900.898C2046.7 893.559 2053.51 880.885 2053.51 863.54V832.854C2053.51 830.185 2050.78 829.518 2049.42 830.852C2043.29 836.856 2037.16 841.526 2031.03 845.529C2023.53 849.531 2014 852.867 2002.41 854.201C1990.83 856.202 1974.48 856.869 1954.04 856.869C1923.39 856.869 1887.28 854.868 1869.56 850.865C1851.85 846.863 1838.23 839.525 1830.73 829.518C1822.56 819.512 1818.47 806.17 1818.47 788.825V700.101C1818.47 679.421 1821.88 663.411 1829.37 652.07C1836.86 640.73 1849.81 632.724 1868.2 628.055C1886.6 623.385 1924.75 620.717 1958.81 620.717C1981.29 620.717 1998.33 621.384 2009.91 623.385C2021.49 625.386 2030.35 628.055 2036.48 632.057C2041.25 635.393 2046.7 640.062 2052.83 646.733C2054.19 648.735 2056.92 647.4 2056.92 644.732V634.726C2056.92 629.389 2060.32 625.386 2065.09 625.386H2151.61C2156.38 625.386 2159.79 629.389 2159.79 634.726V864.207C2159.79 896.228 2144.8 919.576 2114.82 933.585C2084.85 947.594 2026.94 954.932 1965.62 954.932C1919.98 954.932 1875.02 954.265 1849.13 952.264C1843 952.931 1840.27 948.929 1840.27 943.592ZM2028.3 812.174C2037.84 810.172 2043.97 807.504 2047.38 802.834C2050.78 798.832 2052.83 792.828 2052.83 784.823V693.43C2052.83 684.758 2050.78 678.754 2047.38 674.751C2043.97 670.749 2037.16 667.414 2027.62 666.079C2018.08 664.745 2002.41 663.411 1981.29 663.411C1964.26 663.411 1951.32 664.078 1943.14 666.079C1934.97 668.081 1929.52 671.416 1926.79 675.419C1924.07 680.088 1922.7 686.759 1922.7 695.432V782.154C1922.7 791.494 1924.07 798.832 1926.79 802.834C1929.52 806.837 1934.97 810.172 1943.82 811.507C1952.68 813.508 1966.31 814.175 1986.06 814.175C2005.14 814.842 2018.76 814.175 2028.3 812.174Z" fill="#121113"/>
<path d="M2205.45 544.67H2294.69C2299.46 544.67 2302.87 548.672 2302.87 554.009V590.699C2302.87 596.036 2299.46 600.039 2294.69 600.039H2205.45C2200.68 600.039 2197.27 596.036 2197.27 590.699V554.009C2197.27 548.672 2201.36 544.67 2205.45 544.67ZM2205.45 626.056H2294.69C2299.46 626.056 2302.87 630.058 2302.87 635.395V843.529C2302.87 848.866 2299.46 852.869 2294.69 852.869H2205.45C2200.68 852.869 2197.27 848.866 2197.27 843.529V635.395C2197.27 630.058 2201.36 626.056 2205.45 626.056Z" fill="#121113"/>
<path d="M2458.86 856.226C2446.6 855.559 2421.39 853.558 2407.09 850.889C2391.42 847.554 2379.15 843.551 2369.62 837.547C2360.08 831.543 2352.58 823.538 2345.77 812.865C2339.64 802.858 2336.23 790.183 2336.23 775.507V708.797C2336.23 694.121 2339.64 680.779 2345.77 669.439C2351.9 658.098 2360.76 649.426 2370.98 643.422C2379.84 638.085 2392.1 633.415 2406.4 630.08C2421.39 626.744 2447.28 624.076 2461.59 623.409C2477.94 622.742 2492.93 622.742 2505.87 622.742C2525.63 622.742 2541.3 623.409 2552.88 624.076C2564.46 624.743 2589.67 626.744 2603.97 630.08C2619.64 633.415 2631.91 638.085 2641.44 644.089C2650.98 650.093 2659.16 658.765 2665.97 669.439C2672.1 680.779 2675.51 694.121 2675.51 709.465V776.174C2675.51 790.183 2672.1 802.858 2665.97 812.865C2659.84 823.538 2651.66 831.543 2642.13 837.547C2633.27 842.884 2621.69 846.887 2607.38 850.222C2592.39 853.558 2566.5 855.559 2552.2 856.226C2539.25 856.893 2524.27 857.56 2505.87 857.56C2487.48 857.56 2471.13 856.893 2458.86 856.226ZM2546.07 811.53C2554.92 809.529 2561.05 806.194 2565.14 802.191C2568.55 797.521 2570.59 791.518 2570.59 782.845V697.457C2570.59 684.782 2565.82 676.11 2556.97 671.44C2548.11 666.77 2531.08 664.102 2506.55 664.102C2482.03 664.102 2464.99 666.77 2456.14 671.44C2447.28 676.11 2442.51 685.449 2442.51 697.457V782.845C2442.51 791.518 2444.56 797.521 2447.96 802.191C2451.37 806.861 2458.18 809.529 2467.04 811.53C2475.89 813.532 2489.52 814.866 2506.55 814.866C2524.27 814.866 2537.21 814.199 2546.07 811.53Z" fill="#121113"/>
<path d="M2715.72 626.057H2804.28C2809.05 626.057 2812.46 630.059 2812.46 635.396V644.068C2812.46 646.737 2815.19 648.071 2816.55 646.07C2828.81 630.059 2860.83 621.387 2911.93 621.387C2951.44 621.387 2991.64 626.724 3007.99 636.73C3024.34 647.404 3031.83 663.414 3031.83 686.096V842.863C3031.83 848.2 3028.42 852.203 3023.66 852.203H2934.41C2929.64 852.203 2926.23 848.2 2926.23 842.863V694.768C2926.23 686.095 2924.87 679.425 2922.83 675.422C2920.78 670.752 2916.01 668.084 2908.52 666.083C2901.71 664.081 2890.81 663.414 2875.82 663.414C2857.42 663.414 2843.8 664.081 2835.62 666.083C2826.77 668.084 2821.32 670.752 2818.59 675.422C2815.87 680.092 2813.82 686.763 2813.82 695.435V843.53C2813.82 848.867 2810.42 852.87 2805.65 852.87H2716.4C2711.63 852.87 2708.22 848.867 2708.22 843.53V635.396C2707.54 630.059 2710.95 626.057 2715.72 626.057Z" fill="#121113"/>
</svg>
