<?xml version="1.0" encoding="UTF-8" standalone="no"?>
<svg
   width="2598.2251"
   height="676"
   viewBox="0 0 2598.218 676"
   fill="none"
   version="1.1"
   id="svg18"
   sodipodi:docname="logo-dark.svg"
   inkscape:version="1.2.2 (b0a8486541, 2022-12-01)"
   xmlns:inkscape="http://www.inkscape.org/namespaces/inkscape"
   xmlns:sodipodi="http://sodipodi.sourceforge.net/DTD/sodipodi-0.dtd"
   xmlns="http://www.w3.org/2000/svg"
   xmlns:svg="http://www.w3.org/2000/svg">
  <defs
     id="defs22" />
  <sodipodi:namedview
     id="namedview20"
     pagecolor="#000000"
     bordercolor="#000000"
     borderopacity="0.25"
     inkscape:showpageshadow="2"
     inkscape:pageopacity="1"
     inkscape:pagecheckerboard="0"
     inkscape:deskcolor="#d1d1d1"
     showgrid="false"
     inkscape:zoom="0.38927137"
     inkscape:cx="1689.0531"
     inkscape:cy="287.71702"
     inkscape:window-width="1920"
     inkscape:window-height="1011"
     inkscape:window-x="0"
     inkscape:window-y="0"
     inkscape:window-maximized="1"
     inkscape:current-layer="svg18" />
  <path
     d="m 410.8166,415.54841 h 106.96 c 8.176,0 14.988,-6.003 16.351,-13.342 l 21.119,-116.075 c 6.129,-35.356 -12.944,-70.045 -46.326,-84.054 l -222.096,-93.393 c -6.813,-2.669 -10.9,-10.674001 -9.538,-18.012001 l 12.263,-68.043998 c 2.044,-10.007 -6.131,-19.3460002 -16.35,-19.3460002 h -64.722 c -5.45,0 -10.9,2.668 -14.306,7.3380002 l -57.909,89.390999 c -8.856,14.009 -23.163,24.016 -38.831999,28.018 l -74.940997,20.013 c -6.131,2.002 -10.9,6.671 -12.263,12.675 l -8.1750001,44.696 c -2.04399995,10.006 6.132,19.345 16.3510001,19.345 H 371.3026 c 28.614,0 49.733,25.35 44.964,52.701 l -21.119,118.077 c -2.725,11.34 5.45,20.012 15.669,20.012 z"
     fill="#121113"
     id="path2"
     style="fill:#ffffff" />
  <path
     d="m 226.8656,259.44541 h -106.96 c -8.175,0 -14.988,6.004 -16.351,13.342 l -21.118999,116.075 c -6.132,35.356 12.944,70.045 46.325999,84.054 l 222.096,93.394 c 6.813,2.668 10.901,10.673 9.538,18.011 l -12.263,68.045 c -2.044,10.01 6.132,19.35 16.351,19.35 h 64.721 c 5.45,0 10.9,-2.67 14.307,-7.34 l 57.908,-89.394 c 8.857,-14.009 23.163,-24.015 38.833,-28.018 l 74.943,-20.013 c 6.13,-2.001 10.9,-6.671 12.26,-12.675 l 8.18,-44.695 c 2.04,-10.007 -6.14,-19.346 -16.36,-19.346 h -352.896 c -28.613,0 -49.733,-25.35 -44.964,-52.701 l 21.119,-118.076 c 2.044,-11.341 -5.45,-20.013 -15.669,-20.013 z"
     fill="#121113"
     id="path4"
     style="fill:#ffffff" />
  <path
     d="m 847.8656,210.08741 h -112.41 c -4.77,0 -8.18,-4.002 -8.18,-9.339 v -33.355 c 0,-5.336 3.41,-9.339 8.18,-9.339 h 352.22 c 4.77,0 8.17,4.003 8.17,9.339 v 33.355 c 0,5.337 -3.4,9.339 -8.17,9.339 h -111.73 c -4.77,0 -8.18,4.003 -8.18,9.34 v 233.484 c 0,5.337 -3.4,9.34 -8.17,9.34 h -96.06 c -4.77,0 -8.18,-4.003 -8.18,-9.34 v -233.484 c 0.68,-4.67 -2.72,-9.34 -7.49,-9.34 z"
     fill="#121113"
     id="path6"
     style="fill:#ffffff" />
  <path
     d="m 1064.5256,460.92241 c -14.31,-4.003 -24.53,-10.674 -29.98,-21.348 -5.45,-10.006 -8.86,-25.349 -8.86,-45.362 0,-18.012 3.41,-32.021 9.54,-42.694 6.13,-10.007 16.35,-18.012 29.98,-22.015 13.62,-4.669 44.96,-6.671 69.49,-6.671 h 97.42 c 4.77,0 8.17,-4.002 8.17,-9.339 v -6.004 c 0,-9.339 -2.04,-16.677 -5.45,-21.347 -3.4,-4.67 -10.21,-8.005 -19.75,-10.006 -9.54,-2.002 -23.85,-2.669 -43.6,-2.669 -25.21,0 -68.81,1.334 -112.41,4.67 -4.77,0.667 -8.86,-4.003 -8.86,-9.339 v -24.683 c 0,-4.67 3.41,-8.672 7.49,-9.339 33.39,-2.669 81.07,-4.003 123.31,-4.003 39.52,0 82.44,2.001 104.24,6.671 21.8,4.67 36.79,12.008 46.33,22.681 9.53,10.674 14.3,26.017 14.3,46.03 v 146.761 c 0,5.337 -3.4,9.34 -8.17,9.34 h -87.89 c -4.77,0 -8.17,-4.003 -8.17,-9.34 v -6.003 c 0,-2.002 -2.05,-3.336 -4.09,-2.002 -6.81,6.004 -23.85,18.012 -43.6,19.346 -12.95,1.334 -30.66,2.668 -53.14,2.668 -28.62,0 -62,-2.001 -76.3,-6.003 z m 153.96,-38.025 c 6.14,-0.667 10.22,-1.334 12.27,-2.668 2.04,-1.335 4.08,-3.336 6.13,-6.004 2.04,-2.002 2.72,-5.337 2.72,-10.007 v -33.355 c 0,-6.003 -4.08,-10.673 -9.53,-10.673 h -55.19 c -14.3,0 -24.52,0.667 -30.66,2.001 -6.13,1.334 -10.21,4.003 -12.26,8.672 -2.04,4.003 -3.4,11.341 -3.4,22.015 0,10.006 1.36,17.344 3.4,21.347 2.05,4.002 6.13,6.671 12.26,8.005 6.14,1.334 17.04,2.001 33.39,2.001 19.07,0 32.7,-0.667 40.87,-1.334 z"
     fill="#121113"
     id="path8"
     style="fill:#ffffff" />
  <path
     d="m 1400.3656,552.97841 v -27.351 c 0,-5.337 4.09,-9.34 8.86,-9.34 38.15,3.336 83.11,5.337 115.81,5.337 31.34,0 54.51,-4.002 68.13,-11.34 13.63,-7.339 20.44,-20.013 20.44,-37.358 v -30.686 c 0,-2.669 -2.73,-3.336 -4.09,-2.002 -6.13,6.004 -12.26,10.674 -18.39,14.677 -7.5,4.002 -17.03,7.338 -28.62,8.672 -11.58,2.001 -27.93,2.668 -48.37,2.668 -30.65,0 -66.76,-2.001 -84.48,-6.004 -17.71,-4.002 -31.33,-11.34 -38.83,-21.347 -8.17,-10.006 -12.26,-23.348 -12.26,-40.693 v -88.724 c 0,-20.68 3.41,-36.69 10.9,-48.031 7.49,-11.34 20.44,-19.346 38.83,-24.015 18.4,-4.67 56.55,-7.338 90.61,-7.338 22.48,0 39.52,0.667 51.1,2.668 11.58,2.001 20.44,4.67 26.57,8.672 4.77,3.336 10.22,8.005 16.35,14.676 1.36,2.002 4.09,0.667 4.09,-2.001 v -10.006 c 0,-5.337 3.4,-9.34 8.17,-9.34 h 86.52 c 4.77,0 8.18,4.003 8.18,9.34 v 229.481 c 0,32.021 -14.99,55.369 -44.97,69.378 -29.97,14.009 -87.88,21.347 -149.2,21.347 -45.64,0 -90.6,-0.667 -116.49,-2.668 -6.13,0.667 -8.86,-3.335 -8.86,-8.672 z m 188.03,-131.418 c 9.54,-2.002 15.67,-4.67 19.08,-9.34 3.4,-4.002 5.45,-10.006 5.45,-18.011 v -91.393 c 0,-8.672 -2.05,-14.676 -5.45,-18.679 -3.41,-4.002 -10.22,-7.337 -19.76,-8.672 -9.54,-1.334 -25.21,-2.668 -46.33,-2.668 -17.03,0 -29.97,0.667 -38.15,2.668 -8.17,2.002 -13.62,5.337 -16.35,9.34 -2.72,4.669 -4.09,11.34 -4.09,20.013 v 86.722 c 0,9.34 1.37,16.678 4.09,20.68 2.73,4.003 8.18,7.338 17.03,8.673 8.86,2.001 22.49,2.668 42.24,2.668 19.08,0.667 32.7,0 42.24,-2.001 z"
     fill="#121113"
     id="path10"
     style="fill:#ffffff" />
  <path
     d="m 1765.5456,154.05641 h 89.24 c 4.77,0 8.18,4.002 8.18,9.339 v 36.69 c 0,5.337 -3.41,9.34 -8.18,9.34 h -89.24 c -4.77,0 -8.18,-4.003 -8.18,-9.34 v -36.69 c 0,-5.337 4.09,-9.339 8.18,-9.339 z m 0,81.386 h 89.24 c 4.77,0 8.18,4.002 8.18,9.339 v 208.134 c 0,5.337 -3.41,9.34 -8.18,9.34 h -89.24 c -4.77,0 -8.18,-4.003 -8.18,-9.34 v -208.134 c 0,-5.337 4.09,-9.339 8.18,-9.339 z"
     fill="#121113"
     id="path12"
     style="fill:#ffffff" />
  <path
     d="m 2018.9556,465.61241 c -12.26,-0.667 -37.47,-2.668 -51.77,-5.337 -15.67,-3.335 -27.94,-7.338 -37.47,-13.342 -9.54,-6.004 -17.04,-14.009 -23.85,-24.682 -6.13,-10.007 -9.54,-22.682 -9.54,-37.358 v -66.71 c 0,-14.676 3.41,-28.018 9.54,-39.358 6.13,-11.341 14.99,-20.013 25.21,-26.017 8.86,-5.337 21.12,-10.007 35.42,-13.342 14.99,-3.336 40.88,-6.004 55.19,-6.671 16.35,-0.667 31.34,-0.667 44.28,-0.667 19.76,0 35.43,0.667 47.01,1.334 11.58,0.667 36.79,2.668 51.09,6.004 15.67,3.335 27.94,8.005 37.47,14.009 9.54,6.004 17.72,14.676 24.53,25.35 6.13,11.34 9.54,24.682 9.54,40.026 v 66.709 c 0,14.009 -3.41,26.684 -9.54,36.691 -6.13,10.673 -14.31,18.678 -23.84,24.682 -8.86,5.337 -20.44,9.34 -34.75,12.675 -14.99,3.336 -40.88,5.337 -55.18,6.004 -12.95,0.667 -27.93,1.334 -46.33,1.334 -18.39,0 -34.74,-0.667 -47.01,-1.334 z m 87.21,-44.696 c 8.85,-2.001 14.98,-5.336 19.07,-9.339 3.41,-4.67 5.45,-10.673 5.45,-19.346 v -85.388 c 0,-12.675 -4.77,-21.347 -13.62,-26.017 -8.86,-4.67 -25.89,-7.338 -50.42,-7.338 -24.52,0 -41.56,2.668 -50.41,7.338 -8.86,4.67 -13.63,14.009 -13.63,26.017 v 85.388 c 0,8.673 2.05,14.676 5.45,19.346 3.41,4.67 10.22,7.338 19.08,9.339 8.85,2.002 22.48,3.336 39.51,3.336 17.72,0 30.66,-0.667 39.52,-3.336 z"
     fill="#121113"
     id="path14"
     style="fill:#ffffff" />
  <path
     d="m 2275.8156,235.44341 h 88.56 c 4.77,0 8.18,4.002 8.18,9.339 v 8.672 c 0,2.669 2.73,4.003 4.09,2.002 12.26,-16.011 44.28,-24.683 95.38,-24.683 39.51,0 79.71,5.337 96.06,15.343 16.35,10.674 23.84,26.684 23.84,49.366 v 156.767 c 0,5.337 -3.41,9.34 -8.17,9.34 h -89.25 c -4.77,0 -8.18,-4.003 -8.18,-9.34 v -148.095 c 0,-8.673 -1.36,-15.343 -3.4,-19.346 -2.05,-4.67 -6.82,-7.338 -14.31,-9.339 -6.81,-2.002 -17.71,-2.669 -32.7,-2.669 -18.4,0 -32.02,0.667 -40.2,2.669 -8.85,2.001 -14.3,4.669 -17.03,9.339 -2.72,4.67 -4.77,11.341 -4.77,20.013 v 148.095 c 0,5.337 -3.4,9.34 -8.17,9.34 h -89.25 c -4.77,0 -8.18,-4.003 -8.18,-9.34 v -208.134 c -0.68,-5.337 2.73,-9.339 7.5,-9.339 z"
     fill="#121113"
     id="path16"
     style="fill:#ffffff" />
</svg>
