<?xml version="1.0" encoding="UTF-8" standalone="no"?>
<!DOCTYPE svg PUBLIC "-//W3C//DTD SVG 1.1//EN"
 "http://www.w3.org/Graphics/SVG/1.1/DTD/svg11.dtd">
<!-- Generated by graphviz version 7.0.6 (0)
 -->
<!-- Title: G Pages: 1 -->
<svg width="474pt" height="600pt"
 viewBox="0.00 0.00 474.00 600.00" xmlns="http://www.w3.org/2000/svg" xmlns:xlink="http://www.w3.org/1999/xlink">
<g id="graph0" class="graph" transform="scale(1 1) rotate(0) translate(4 596)">
<title>G</title>
<polygon fill="white" stroke="none" points="-4,4 -4,-596 470,-596 470,4 -4,4"/>
<g id="clust1" class="cluster">
<title>cluster_1</title>
</g>
<g id="clust2" class="cluster">
<title>cluster_2</title>
</g>
<g id="clust3" class="cluster">
<title>cluster_3</title>
</g>
<!-- DART -->
<g id="node1" class="node">
<title>DART</title>
<path fill="lightgrey" stroke="black" d="M290.5,-311.73C290.5,-313.53 277.73,-315 262,-315 246.27,-315 233.5,-313.53 233.5,-311.73 233.5,-311.73 233.5,-282.27 233.5,-282.27 233.5,-280.47 246.27,-279 262,-279 277.73,-279 290.5,-280.47 290.5,-282.27 290.5,-282.27 290.5,-311.73 290.5,-311.73"/>
<path fill="none" stroke="black" d="M290.5,-311.73C290.5,-309.92 277.73,-308.45 262,-308.45 246.27,-308.45 233.5,-309.92 233.5,-311.73"/>
<text text-anchor="middle" x="262" y="-293.3" font-family="Times,serif" font-size="14.00">DART</text>
</g>
<!-- Collector -->
<g id="node7" class="node">
<title>Collector</title>
<polygon fill="lightgrey" stroke="black" points="181.5,-402 100.5,-402 100.5,-366 181.5,-366 181.5,-402"/>
<text text-anchor="middle" x="141" y="-380.3" font-family="Times,serif" font-size="14.00">Collector</text>
</g>
<!-- DART&#45;&gt;Collector -->
<g id="edge12" class="edge">
<title>DART&#45;&gt;Collector</title>
<path fill="none" stroke="red" d="M243.2,-311.21C225.06,-323.95 197.19,-343.53 175.14,-359.02"/>
<polygon fill="red" stroke="red" points="173.19,-356.11 167.02,-364.72 177.21,-361.84 173.19,-356.11"/>
<text text-anchor="middle" x="238.5" y="-336.8" font-family="Times,serif" font-size="14.00">archives</text>
</g>
<!-- DARTSync -->
<g id="node10" class="node">
<title>DARTSync</title>
<polygon fill="lightgrey" stroke="black" points="437,-227 345,-227 345,-191 437,-191 437,-227"/>
<text text-anchor="middle" x="391" y="-205.3" font-family="Times,serif" font-size="14.00">DARTSync</text>
</g>
<!-- DART&#45;&gt;DARTSync -->
<g id="edge11" class="edge">
<title>DART&#45;&gt;DARTSync</title>
<path fill="none" stroke="magenta" d="M278.14,-269.31C284.18,-260.99 291.63,-252.35 300,-246 310.26,-238.22 322.42,-231.89 334.46,-226.83"/>
<polygon fill="magenta" stroke="magenta" points="275.3,-267.28 272.58,-277.52 281.09,-271.2 275.3,-267.28"/>
<polygon fill="magenta" stroke="magenta" points="335.52,-230.18 343.55,-223.27 332.96,-223.66 335.52,-230.18"/>
<text text-anchor="middle" x="342" y="-249.8" font-family="Times,serif" font-size="14.00">DART(crud)</text>
</g>
<!-- TLS -->
<g id="node2" class="node">
<title>TLS</title>
<polygon fill="green" stroke="black" points="118,-576 64,-576 64,-540 118,-540 118,-576"/>
<text text-anchor="middle" x="91" y="-554.3" font-family="Times,serif" font-size="14.00">TLS</text>
</g>
<!-- Transaction -->
<g id="node4" class="node">
<title>Transaction</title>
<polygon fill="lightgrey" stroke="black" points="170.5,-483 69.5,-483 69.5,-459 170.5,-459 170.5,-483"/>
<polyline fill="none" stroke="black" points="72.5,-472.5 75.5,-469.5"/>
<polyline fill="none" stroke="black" points="72.5,-469.5 75.5,-472.5"/>
<polyline fill="none" stroke="black" points="72.5,-462 167.5,-462"/>
<text text-anchor="middle" x="120" y="-467.3" font-family="Times,serif" font-size="14.00">Transaction</text>
</g>
<!-- TLS&#45;&gt;Transaction -->
<g id="edge1" class="edge">
<title>TLS&#45;&gt;Transaction</title>
<path fill="none" stroke="green" d="M96.87,-539.8C100.73,-528.47 105.89,-513.36 110.35,-500.29"/>
<polygon fill="green" stroke="green" points="113.64,-501.49 113.55,-490.9 107.01,-499.23 113.64,-501.49"/>
<text text-anchor="middle" x="167" y="-510.8" font-family="Times,serif" font-size="14.00">HiRPC(contract)</text>
</g>
<!-- Network -->
<g id="node3" class="node">
<title>Network</title>
<polygon fill="red" stroke="black" points="423,-52 345,-52 345,-16 423,-16 423,-52"/>
<text text-anchor="middle" x="384" y="-30.3" font-family="Times,serif" font-size="14.00">Network</text>
</g>
<!-- Transaction&#45;&gt;Collector -->
<g id="edge2" class="edge">
<title>Transaction&#45;&gt;Collector</title>
<path fill="none" stroke="green" d="M124.25,-452.8C127.05,-441.47 130.78,-426.36 134.01,-413.29"/>
<polygon fill="green" stroke="green" points="137.32,-414.48 136.32,-403.94 130.53,-412.81 137.32,-414.48"/>
<text text-anchor="middle" x="162" y="-423.8" font-family="Times,serif" font-size="14.00">contract</text>
</g>
<!-- Transcript -->
<g id="node5" class="node">
<title>Transcript</title>
<polygon fill="lightgrey" stroke="black" points="157.5,-139 72.5,-139 72.5,-103 163.5,-103 163.5,-133 157.5,-139"/>
<polyline fill="none" stroke="black" points="157.5,-139 157.5,-133"/>
<polyline fill="none" stroke="black" points="163.5,-133 157.5,-133"/>
<text text-anchor="middle" x="118" y="-117.3" font-family="Times,serif" font-size="14.00">Transcript</text>
</g>
<!-- Transcript&#45;&gt;DART -->
<g id="edge14" class="edge">
<title>Transcript&#45;&gt;DART</title>
<path fill="none" stroke="blue" d="M163.94,-125.49C187.12,-129.62 213.87,-138.43 231,-157 258.67,-187.01 263.55,-236.12 263.52,-267.21"/>
<polygon fill="blue" stroke="blue" points="260.02,-266.98 263.32,-277.04 267.02,-267.12 260.02,-266.98"/>
<text text-anchor="middle" x="291" y="-205.3" font-family="Times,serif" font-size="14.00">recorder</text>
</g>
<!-- Consensus -->
<g id="node6" class="node">
<title>Consensus</title>
<polygon fill="lightgrey" stroke="black" points="208.5,-228 113.5,-228 113.5,-190 208.5,-190 208.5,-228"/>
<text text-anchor="middle" x="161" y="-212.8" font-family="Times,serif" font-size="14.00">Consensus</text>
<text text-anchor="middle" x="161" y="-197.8" font-family="Times,serif" font-size="14.00">Hashgraph</text>
</g>
<!-- Consensus&#45;&gt;Transcript -->
<g id="edge6" class="edge">
<title>Consensus&#45;&gt;Transcript</title>
<path fill="none" stroke="green" d="M132.96,-189.81C127.35,-184.76 122.2,-178.77 119,-172 115.92,-165.48 114.74,-157.94 114.54,-150.71"/>
<polygon fill="green" stroke="green" points="118.03,-151.09 114.89,-140.98 111.03,-150.84 118.03,-151.09"/>
<text text-anchor="middle" x="140.5" y="-160.8" font-family="Times,serif" font-size="14.00">epoch</text>
</g>
<!-- Consensus&#45;&gt;Collector -->
<g id="edge5" class="edge">
<title>Consensus&#45;&gt;Collector</title>
<path fill="none" stroke="darkgreen" d="M158.87,-228.45C155.37,-258.7 148.4,-319.02 144.27,-354.7"/>
<polygon fill="darkgreen" stroke="darkgreen" points="140.84,-353.94 143.16,-364.28 147.79,-354.74 140.84,-353.94"/>
<text text-anchor="middle" x="183" y="-293.3" font-family="Times,serif" font-size="14.00">contract</text>
</g>
<!-- P2P -->
<g id="node11" class="node">
<title>P2P</title>
<polygon fill="lightgrey" stroke="black" points="399,-139 345,-139 345,-103 399,-103 399,-139"/>
<text text-anchor="middle" x="372" y="-117.3" font-family="Times,serif" font-size="14.00">P2P</text>
</g>
<!-- Consensus&#45;&gt;P2P -->
<g id="edge13" class="edge">
<title>Consensus&#45;&gt;P2P</title>
<path fill="none" stroke="#008b8b" d="M216.7,-185.3C253.73,-170.2 301.37,-150.79 334.07,-137.46"/>
<polygon fill="#008b8b" stroke="#008b8b" points="215.61,-181.96 207.67,-188.98 218.25,-188.45 215.61,-181.96"/>
<polygon fill="#008b8b" stroke="#008b8b" points="335.21,-140.78 343.15,-133.76 332.57,-134.29 335.21,-140.78"/>
<text text-anchor="middle" x="308" y="-160.8" font-family="Times,serif" font-size="14.00">gossip</text>
</g>
<!-- TVM -->
<g id="node8" class="node">
<title>TVM</title>
<polygon fill="lightgrey" stroke="black" points="110,-315 56,-315 56,-279 110,-279 110,-315"/>
<text text-anchor="middle" x="83" y="-293.3" font-family="Times,serif" font-size="14.00">TVM</text>
</g>
<!-- Collector&#45;&gt;TVM -->
<g id="edge3" class="edge">
<title>Collector&#45;&gt;TVM</title>
<path fill="none" stroke="green" d="M100.85,-365.59C94.13,-360.87 88.04,-355.05 84,-348 80.36,-341.65 79.01,-334.06 78.84,-326.73"/>
<polygon fill="green" stroke="green" points="82.33,-326.97 79.34,-316.81 75.34,-326.62 82.33,-326.97"/>
<text text-anchor="middle" x="114" y="-336.8" font-family="Times,serif" font-size="14.00">contract</text>
</g>
<!-- TVM&#45;&gt;Transcript -->
<g id="edge7" class="edge">
<title>TVM&#45;&gt;Transcript</title>
<path fill="none" stroke="red" d="M68.19,-278.87C51.8,-257.72 29.37,-220.75 43,-190 50.78,-172.43 65.6,-157.47 80.01,-146.09"/>
<polygon fill="red" stroke="red" points="81.74,-149.17 87.66,-140.38 77.55,-143.56 81.74,-149.17"/>
<text text-anchor="middle" x="73.5" y="-212.8" font-family="Times,serif" font-size="14.00">archives</text>
<text text-anchor="middle" x="73.5" y="-197.8" font-family="Times,serif" font-size="14.00">in/out</text>
</g>
<!-- TVM&#45;&gt;Consensus -->
<g id="edge4" class="edge">
<title>TVM&#45;&gt;Consensus</title>
<path fill="none" stroke="green" d="M79.08,-278.93C77.68,-268.6 77.75,-255.61 84,-246 88.87,-238.52 95.73,-232.57 103.37,-227.83"/>
<polygon fill="green" stroke="green" points="104.89,-230.99 112.05,-223.18 101.58,-224.82 104.89,-230.99"/>
<text text-anchor="middle" x="114" y="-249.8" font-family="Times,serif" font-size="14.00">contract</text>
</g>
<!-- Recorder -->
<g id="node9" class="node">
<title>Recorder</title>
<polygon fill="lightgrey" stroke="black" points="427,-315 345,-315 345,-279 427,-279 427,-315"/>
<text text-anchor="middle" x="386" y="-293.3" font-family="Times,serif" font-size="14.00">Recorder</text>
</g>
<!-- Recorder&#45;&gt;DARTSync -->
<g id="edge8" class="edge">
<title>Recorder&#45;&gt;DARTSync</title>
<path fill="none" stroke="blue" d="M387.67,-267.21C388.21,-258.03 388.8,-247.88 389.33,-238.71"/>
<polygon fill="blue" stroke="blue" points="384.19,-266.9 387.1,-277.09 391.17,-267.31 384.19,-266.9"/>
<polygon fill="blue" stroke="blue" points="392.82,-239.07 389.9,-228.89 385.83,-238.67 392.82,-239.07"/>
<text text-anchor="middle" x="419" y="-249.8" font-family="Times,serif" font-size="14.00">recorder</text>
</g>
<!-- DARTSync&#45;&gt;P2P -->
<g id="edge9" class="edge">
<title>DARTSync&#45;&gt;P2P</title>
<path fill="none" stroke="magenta" d="M384.73,-179.61C382.66,-170.26 380.37,-159.87 378.3,-150.52"/>
<polygon fill="magenta" stroke="magenta" points="381.25,-180.11 386.83,-189.12 388.09,-178.6 381.25,-180.11"/>
<polygon fill="magenta" stroke="magenta" points="381.74,-149.86 376.17,-140.86 374.91,-151.38 381.74,-149.86"/>
<text text-anchor="middle" x="424" y="-160.8" font-family="Times,serif" font-size="14.00">DART(crud)</text>
</g>
<!-- P2P&#45;&gt;Network -->
<g id="edge10" class="edge">
<title>P2P&#45;&gt;Network</title>
<path fill="none" stroke="black" d="M376.01,-91.62C377.28,-82.61 378.68,-72.65 379.96,-63.63"/>
<polygon fill="black" stroke="black" points="372.57,-90.91 374.64,-101.3 379.5,-91.89 372.57,-90.91"/>
<polygon fill="black" stroke="black" points="383.39,-64.36 381.32,-53.97 376.46,-63.38 383.39,-64.36"/>
<text text-anchor="middle" x="403.5" y="-73.8" font-family="Times,serif" font-size="14.00">HiBON</text>
</g>
</g>
</svg>
