<?xml version="1.0" encoding="UTF-8" standalone="no"?>
<!DOCTYPE svg PUBLIC "-//W3C//DTD SVG 1.1//EN"
 "http://www.w3.org/Graphics/SVG/1.1/DTD/svg11.dtd">
<!-- Generated by graphviz version 2.43.0 (0)
 -->
<!-- Title: Message_flow Pages: 1 -->
<svg width="592pt" height="602pt"
 viewBox="0.00 0.00 592.00 602.00" xmlns="http://www.w3.org/2000/svg" xmlns:xlink="http://www.w3.org/1999/xlink">
<g id="graph0" class="graph" transform="scale(1 1) rotate(0) translate(4 598)">
<title>Message_flow</title>
<polygon fill="white" stroke="transparent" points="-4,4 -4,-598 588,-598 588,4 -4,4"/>
<g id="clust1" class="cluster">
<title>cluster_1</title>
</g>
<g id="clust2" class="cluster">
<title>cluster_3</title>
</g>
<g id="clust3" class="cluster">
<title>cluster_2</title>
</g>
<!-- DART -->
<g id="node1" class="node">
<title>DART</title>
<path fill="lightgrey" stroke="black" d="M105.5,-135.73C105.5,-137.53 92.73,-139 77,-139 61.27,-139 48.5,-137.53 48.5,-135.73 48.5,-135.73 48.5,-106.27 48.5,-106.27 48.5,-104.47 61.27,-103 77,-103 92.73,-103 105.5,-104.47 105.5,-106.27 105.5,-106.27 105.5,-135.73 105.5,-135.73"/>
<path fill="none" stroke="black" d="M105.5,-135.73C105.5,-133.92 92.73,-132.45 77,-132.45 61.27,-132.45 48.5,-133.92 48.5,-135.73"/>
<text text-anchor="middle" x="77" y="-117.3" font-family="Times,serif" font-size="14.00">DART</text>
</g>
<!-- Collector -->
<g id="node7" class="node">
<title>Collector</title>
<polygon fill="lightgrey" stroke="black" points="480.5,-402 399.5,-402 399.5,-366 480.5,-366 480.5,-402"/>
<text text-anchor="middle" x="440" y="-380.3" font-family="Times,serif" font-size="14.00">Collector</text>
</g>
<!-- DART&#45;&gt;Collector -->
<g id="edge12" class="edge">
<title>DART&#45;&gt;Collector</title>
<path fill="none" stroke="red" d="M79.03,-139.06C82.74,-163.22 92.7,-207.51 118,-235 192.27,-315.68 319.2,-355.76 389.47,-372.66"/>
<polygon fill="red" stroke="red" points="388.88,-376.12 399.41,-374.99 390.48,-369.3 388.88,-376.12"/>
<text text-anchor="middle" x="175" y="-249.8" font-family="Times,serif" font-size="14.00">recorder</text>
</g>
<!-- Replicator -->
<g id="node11" class="node">
<title>Replicator</title>
<polygon fill="lightgrey" stroke="black" points="106,-52 16,-52 16,-16 106,-16 106,-52"/>
<text text-anchor="middle" x="61" y="-30.3" font-family="Times,serif" font-size="14.00">Replicator</text>
</g>
<!-- DART&#45;&gt;Replicator -->
<g id="edge10" class="edge">
<title>DART&#45;&gt;Replicator</title>
<path fill="none" stroke="red" d="M59.32,-93.85C57.98,-90.96 56.82,-87.98 56,-85 54.01,-77.8 53.91,-69.82 54.65,-62.39"/>
<polygon fill="red" stroke="red" points="56.27,-95.56 64.11,-102.69 62.43,-92.23 56.27,-95.56"/>
<polygon fill="red" stroke="red" points="58.13,-62.8 56.17,-52.39 51.21,-61.75 58.13,-62.8"/>
<text text-anchor="middle" x="87" y="-73.8" font-family="Times,serif" font-size="14.00">recorder</text>
</g>
<!-- TLS -->
<g id="node2" class="node">
<title>TLS</title>
<polygon fill="green" stroke="black" points="467,-578 413,-578 413,-542 467,-542 467,-578"/>
<text text-anchor="middle" x="440" y="-556.3" font-family="Times,serif" font-size="14.00">TLS</text>
</g>
<!-- ContractInterface -->
<g id="node4" class="node">
<title>ContractInterface</title>
<polygon fill="lightgrey" stroke="black" points="480.5,-491 399.5,-491 399.5,-453 480.5,-453 480.5,-491"/>
<text text-anchor="middle" x="440" y="-475.8" font-family="Times,serif" font-size="14.00">Contract</text>
<text text-anchor="middle" x="440" y="-460.8" font-family="Times,serif" font-size="14.00">Interface</text>
</g>
<!-- TLS&#45;&gt;ContractInterface -->
<g id="edge1" class="edge">
<title>TLS&#45;&gt;ContractInterface</title>
<path fill="none" stroke="green" d="M440,-541.6C440,-530.06 440,-514.65 440,-501.36"/>
<polygon fill="green" stroke="green" points="443.5,-501.27 440,-491.27 436.5,-501.27 443.5,-501.27"/>
<text text-anchor="middle" x="499" y="-512.8" font-family="Times,serif" font-size="14.00">HiRPC(contract)</text>
</g>
<!-- P2P -->
<g id="node3" class="node">
<title>P2P</title>
<polygon fill="red" stroke="black" points="241,-52 187,-52 187,-16 241,-16 241,-52"/>
<text text-anchor="middle" x="214" y="-30.3" font-family="Times,serif" font-size="14.00">P2P</text>
</g>
<!-- ContractInterface&#45;&gt;Collector -->
<g id="edge2" class="edge">
<title>ContractInterface&#45;&gt;Collector</title>
<path fill="none" stroke="green" d="M440,-452.76C440,-440.93 440,-425.32 440,-412.05"/>
<polygon fill="green" stroke="green" points="443.5,-412.04 440,-402.04 436.5,-412.04 443.5,-412.04"/>
<text text-anchor="middle" x="470" y="-423.8" font-family="Times,serif" font-size="14.00">contract</text>
</g>
<!-- Transcript -->
<g id="node5" class="node">
<title>Transcript</title>
<polygon fill="lightgrey" stroke="black" points="490.5,-139 405.5,-139 405.5,-103 496.5,-103 496.5,-133 490.5,-139"/>
<polyline fill="none" stroke="black" points="490.5,-139 490.5,-133 "/>
<polyline fill="none" stroke="black" points="496.5,-133 490.5,-133 "/>
<text text-anchor="middle" x="451" y="-117.3" font-family="Times,serif" font-size="14.00">Transcript</text>
</g>
<!-- Transcript&#45;&gt;DART -->
<g id="edge14" class="edge">
<title>Transcript&#45;&gt;DART</title>
<path fill="none" stroke="blue" d="M424,-139.23C407.92,-148.97 386.67,-159.97 366,-165 312.31,-178.07 170.26,-164.95 118,-147 115.07,-145.99 112.13,-144.74 109.25,-143.33"/>
<polygon fill="blue" stroke="blue" points="110.77,-140.17 100.32,-138.4 107.38,-146.3 110.77,-140.17"/>
<text text-anchor="middle" x="335" y="-160.8" font-family="Times,serif" font-size="14.00">recorder</text>
</g>
<!-- EpochCreator -->
<g id="node6" class="node">
<title>EpochCreator</title>
<polygon fill="lightgrey" stroke="black" points="470.5,-228 399.5,-228 399.5,-190 470.5,-190 470.5,-228"/>
<text text-anchor="middle" x="435" y="-212.8" font-family="Times,serif" font-size="14.00">Epoch</text>
<text text-anchor="middle" x="435" y="-197.8" font-family="Times,serif" font-size="14.00">Creator</text>
</g>
<!-- EpochCreator&#45;&gt;Transcript -->
<g id="edge5" class="edge">
<title>EpochCreator&#45;&gt;Transcript</title>
<path fill="none" stroke="green" d="M438.39,-189.76C440.59,-177.93 443.5,-162.32 445.97,-149.05"/>
<polygon fill="green" stroke="green" points="449.44,-149.51 447.83,-139.04 442.56,-148.23 449.44,-149.51"/>
<text text-anchor="middle" x="465.5" y="-160.8" font-family="Times,serif" font-size="14.00">epoch</text>
</g>
<!-- EpochCreator&#45;&gt;Collector -->
<g id="edge4" class="edge">
<title>EpochCreator&#45;&gt;Collector</title>
<path fill="none" stroke="darkgreen" d="M431.37,-228.23C427.68,-249.18 422.9,-284.6 426,-315 427.39,-328.68 430.32,-343.67 433.15,-356.08"/>
<polygon fill="darkgreen" stroke="darkgreen" points="429.74,-356.9 435.45,-365.82 436.55,-355.28 429.74,-356.9"/>
<text text-anchor="middle" x="456" y="-293.3" font-family="Times,serif" font-size="14.00">contract</text>
</g>
<!-- ConsensusInterface -->
<g id="node10" class="node">
<title>ConsensusInterface</title>
<polygon fill="lightgrey" stroke="black" points="288,-139 130,-139 130,-103 288,-103 288,-139"/>
<text text-anchor="middle" x="209" y="-117.3" font-family="Times,serif" font-size="14.00">ConsensusInterface</text>
</g>
<!-- EpochCreator&#45;&gt;ConsensusInterface -->
<g id="edge13" class="edge">
<title>EpochCreator&#45;&gt;ConsensusInterface</title>
<path fill="none" stroke="#008b8b" d="M404.76,-183.35C390.59,-172.21 375.07,-160.71 367,-157 345.56,-147.15 321.17,-139.99 298.09,-134.82"/>
<polygon fill="#008b8b" stroke="#008b8b" points="402.88,-186.32 412.89,-189.8 407.23,-180.84 402.88,-186.32"/>
<polygon fill="#008b8b" stroke="#008b8b" points="298.8,-131.4 288.29,-132.73 297.34,-138.24 298.8,-131.4"/>
<text text-anchor="middle" x="412" y="-160.8" font-family="Times,serif" font-size="14.00">gossip</text>
</g>
<!-- TVM -->
<g id="node8" class="node">
<title>TVM</title>
<polygon fill="lightgrey" stroke="black" points="549,-315 495,-315 495,-279 549,-279 549,-315"/>
<text text-anchor="middle" x="522" y="-293.3" font-family="Times,serif" font-size="14.00">TVM</text>
</g>
<!-- Collector&#45;&gt;TVM -->
<g id="edge3" class="edge">
<title>Collector&#45;&gt;TVM</title>
<path fill="none" stroke="green" d="M456.59,-365.8C468.6,-353.36 484.99,-336.36 498.36,-322.5"/>
<polygon fill="green" stroke="green" points="501.01,-324.8 505.43,-315.18 495.97,-319.94 501.01,-324.8"/>
<text text-anchor="middle" x="522" y="-336.8" font-family="Times,serif" font-size="14.00">contract&#45;S</text>
</g>
<!-- TVM&#45;&gt;Transcript -->
<g id="edge6" class="edge">
<title>TVM&#45;&gt;Transcript</title>
<path fill="none" stroke="red" d="M521.56,-278.93C520.14,-251.41 514.35,-196.33 491,-157 488.71,-153.15 485.85,-149.5 482.72,-146.11"/>
<polygon fill="red" stroke="red" points="485.16,-143.6 475.55,-139.14 480.28,-148.62 485.16,-143.6"/>
<text text-anchor="middle" x="546.5" y="-212.8" font-family="Times,serif" font-size="14.00">archives</text>
<text text-anchor="middle" x="546.5" y="-197.8" font-family="Times,serif" font-size="14.00">in/out</text>
</g>
<!-- TVM&#45;&gt;EpochCreator -->
<g id="edge9" class="edge">
<title>TVM&#45;&gt;EpochCreator</title>
<path fill="none" stroke="green" d="M494.88,-284.5C472.03,-274.76 442.89,-262.17 442,-261 437.13,-254.56 434.82,-246.3 433.88,-238.33"/>
<polygon fill="green" stroke="green" points="437.37,-237.96 433.33,-228.17 430.38,-238.34 437.37,-237.96"/>
<text text-anchor="middle" x="472" y="-249.8" font-family="Times,serif" font-size="14.00">contract</text>
</g>
<!-- DARTInterface -->
<g id="node9" class="node">
<title>DARTInterface</title>
<polygon fill="lightgrey" stroke="black" points="263,-227 141,-227 141,-191 263,-191 263,-227"/>
<text text-anchor="middle" x="202" y="-205.3" font-family="Times,serif" font-size="14.00">DARTInterface</text>
</g>
<!-- DARTInterface&#45;&gt;DART -->
<g id="edge11" class="edge">
<title>DARTInterface&#45;&gt;DART</title>
<path fill="none" stroke="magenta" d="M150.32,-190.94C138.75,-185.84 126.96,-179.55 117,-172 108.09,-165.25 100.02,-156.1 93.49,-147.47"/>
<polygon fill="magenta" stroke="magenta" points="96.17,-145.2 87.5,-139.11 90.49,-149.28 96.17,-145.2"/>
<text text-anchor="middle" x="159" y="-160.8" font-family="Times,serif" font-size="14.00">DART(crud)</text>
</g>
<!-- DARTInterface&#45;&gt;ConsensusInterface -->
<g id="edge7" class="edge">
<title>DARTInterface&#45;&gt;ConsensusInterface</title>
<path fill="none" stroke="magenta" d="M204.25,-180.34C205.06,-170.38 205.98,-159.15 206.78,-149.22"/>
<polygon fill="magenta" stroke="magenta" points="200.74,-180.35 203.42,-190.6 207.72,-180.91 200.74,-180.35"/>
<polygon fill="magenta" stroke="magenta" points="210.29,-149.34 207.61,-139.08 203.31,-148.77 210.29,-149.34"/>
<text text-anchor="middle" x="239.5" y="-160.8" font-family="Times,serif" font-size="14.00">DART(ro)</text>
</g>
<!-- ConsensusInterface&#45;&gt;P2P -->
<g id="edge8" class="edge">
<title>ConsensusInterface&#45;&gt;P2P</title>
<path fill="none" stroke="black" d="M210.6,-92.73C211.18,-82.96 211.83,-71.94 212.4,-62.17"/>
<polygon fill="black" stroke="black" points="207.11,-92.61 210.01,-102.8 214.09,-93.02 207.11,-92.61"/>
<polygon fill="black" stroke="black" points="215.9,-62.36 212.99,-52.18 208.91,-61.95 215.9,-62.36"/>
<text text-anchor="middle" x="247.5" y="-73.8" font-family="Times,serif" font-size="14.00">Document</text>
</g>
<!-- Replicator&#45;&gt;ConsensusInterface -->
<g id="edge15" class="edge">
<title>Replicator&#45;&gt;ConsensusInterface</title>
<path fill="none" stroke="black" d="M89.23,-52.15C105.46,-61.93 126.28,-74.32 145,-85 152.51,-89.29 160.57,-93.78 168.34,-98.06"/>
<polygon fill="black" stroke="black" points="166.85,-101.23 177.3,-102.96 170.21,-95.09 166.85,-101.23"/>
<text text-anchor="middle" x="176" y="-73.8" font-family="Times,serif" font-size="14.00">recorder</text>
</g>
</g>
</svg>
