<?xml version="1.0" encoding="UTF-8" standalone="no"?>
<!DOCTYPE svg PUBLIC "-//W3C//DTD SVG 1.1//EN"
 "http://www.w3.org/Graphics/SVG/1.1/DTD/svg11.dtd">
<!-- Generated by graphviz version 2.43.0 (0)
 -->
<!-- Title: Message_flow Pages: 1 -->
<svg width="665pt" height="598pt"
 viewBox="0.00 0.00 665.49 598.00" xmlns="http://www.w3.org/2000/svg" xmlns:xlink="http://www.w3.org/1999/xlink">
<g id="graph0" class="graph" transform="scale(1 1) rotate(0) translate(4 594)">
<title>Message_flow</title>
<polygon fill="white" stroke="transparent" points="-4,4 -4,-594 661.49,-594 661.49,4 -4,4"/>
<g id="clust1" class="cluster">
<title>cluster_1</title>
</g>
<g id="clust2" class="cluster">
<title>cluster_2</title>
</g>
<g id="clust3" class="cluster">
<title>cluster_3</title>
</g>
<!-- DART -->
<g id="node1" class="node">
<title>DART</title>
<path fill="lightgrey" stroke="black" d="M178.99,-135.73C178.99,-137.53 166.22,-139 150.49,-139 134.77,-139 121.99,-137.53 121.99,-135.73 121.99,-135.73 121.99,-106.27 121.99,-106.27 121.99,-104.47 134.77,-103 150.49,-103 166.22,-103 178.99,-104.47 178.99,-106.27 178.99,-106.27 178.99,-135.73 178.99,-135.73"/>
<path fill="none" stroke="black" d="M178.99,-135.73C178.99,-133.92 166.22,-132.45 150.49,-132.45 134.77,-132.45 121.99,-133.92 121.99,-135.73"/>
<text text-anchor="middle" x="150.49" y="-117.3" font-family="Times,serif" font-size="14.00">DART</text>
</g>
<!-- Collector -->
<g id="node7" class="node">
<title>Collector</title>
<polygon fill="lightgrey" stroke="black" points="527.99,-400 446.99,-400 446.99,-364 527.99,-364 527.99,-400"/>
<text text-anchor="middle" x="487.49" y="-378.3" font-family="Times,serif" font-size="14.00">Collector</text>
</g>
<!-- DART&#45;&gt;Collector -->
<g id="edge11" class="edge">
<title>DART&#45;&gt;Collector</title>
<path fill="none" stroke="red" d="M121.89,-125.1C85.26,-129.72 24.92,-139.78 11.49,-157 -9.94,-184.5 2.74,-208.48 26.49,-234 136.57,-352.22 341.38,-375.78 436.5,-380.18"/>
<polygon fill="red" stroke="red" points="436.59,-383.69 446.73,-380.6 436.88,-376.7 436.59,-383.69"/>
<text text-anchor="middle" x="82.49" y="-247.8" font-family="Times,serif" font-size="14.00">recorder</text>
</g>
<!-- Replicator -->
<g id="node11" class="node">
<title>Replicator</title>
<polygon fill="lightgrey" stroke="black" points="125.49,-226 35.49,-226 35.49,-190 125.49,-190 125.49,-226"/>
<text text-anchor="middle" x="80.49" y="-204.3" font-family="Times,serif" font-size="14.00">Replicator</text>
</g>
<!-- DART&#45;&gt;Replicator -->
<g id="edge12" class="edge">
<title>DART&#45;&gt;Replicator</title>
<path fill="none" stroke="red" d="M111.49,-127.06C76.79,-132.45 29.83,-142.27 18.49,-157 10.62,-167.23 16.74,-176.65 27.68,-184.48"/>
<polygon fill="red" stroke="red" points="112.43,-130.46 121.81,-125.53 111.4,-123.53 112.43,-130.46"/>
<polygon fill="red" stroke="red" points="26.03,-187.58 36.37,-189.9 29.74,-181.64 26.03,-187.58"/>
<text text-anchor="middle" x="49.49" y="-160.8" font-family="Times,serif" font-size="14.00">recorder</text>
</g>
<!-- TLS -->
<g id="node2" class="node">
<title>TLS</title>
<polygon fill="green" stroke="black" points="527.49,-574 473.49,-574 473.49,-538 527.49,-538 527.49,-574"/>
<text text-anchor="middle" x="500.49" y="-552.3" font-family="Times,serif" font-size="14.00">TLS</text>
</g>
<!-- ContractInterface -->
<g id="node4" class="node">
<title>ContractInterface</title>
<polygon fill="lightgrey" stroke="black" points="571.99,-481 428.99,-481 428.99,-457 571.99,-457 571.99,-481"/>
<polyline fill="none" stroke="black" points="431.99,-470.5 434.99,-467.5 "/>
<polyline fill="none" stroke="black" points="431.99,-467.5 434.99,-470.5 "/>
<polyline fill="none" stroke="black" points="431.99,-460 568.99,-460 "/>
<text text-anchor="middle" x="500.49" y="-465.3" font-family="Times,serif" font-size="14.00">ContractInterface</text>
</g>
<!-- TLS&#45;&gt;ContractInterface -->
<g id="edge1" class="edge">
<title>TLS&#45;&gt;ContractInterface</title>
<path fill="none" stroke="green" d="M500.49,-537.8C500.49,-526.16 500.49,-510.55 500.49,-497.24"/>
<polygon fill="green" stroke="green" points="503.99,-497.18 500.49,-487.18 496.99,-497.18 503.99,-497.18"/>
<text text-anchor="middle" x="559.49" y="-508.8" font-family="Times,serif" font-size="14.00">HiRPC(contract)</text>
</g>
<!-- P2P -->
<g id="node3" class="node">
<title>P2P</title>
<polygon fill="red" stroke="black" points="309.49,-52 255.49,-52 255.49,-16 309.49,-16 309.49,-52"/>
<text text-anchor="middle" x="282.49" y="-30.3" font-family="Times,serif" font-size="14.00">P2P</text>
</g>
<!-- ContractInterface&#45;&gt;Collector -->
<g id="edge2" class="edge">
<title>ContractInterface&#45;&gt;Collector</title>
<path fill="none" stroke="green" d="M497.86,-450.8C496.08,-439.16 493.7,-423.55 491.66,-410.24"/>
<polygon fill="green" stroke="green" points="495.09,-409.53 490.12,-400.18 488.17,-410.59 495.09,-409.53"/>
<text text-anchor="middle" x="524.49" y="-421.8" font-family="Times,serif" font-size="14.00">contract</text>
</g>
<!-- Transcript -->
<g id="node5" class="node">
<title>Transcript</title>
<polygon fill="lightgrey" stroke="black" points="555.99,-139 470.99,-139 470.99,-103 561.99,-103 561.99,-133 555.99,-139"/>
<polyline fill="none" stroke="black" points="555.99,-139 555.99,-133 "/>
<polyline fill="none" stroke="black" points="561.99,-133 555.99,-133 "/>
<text text-anchor="middle" x="516.49" y="-117.3" font-family="Times,serif" font-size="14.00">Transcript</text>
</g>
<!-- Transcript&#45;&gt;DART -->
<g id="edge14" class="edge">
<title>Transcript&#45;&gt;DART</title>
<path fill="none" stroke="blue" d="M492.28,-139.21C477.79,-148.94 458.54,-159.94 439.49,-165 386.09,-179.18 243.75,-164.95 191.49,-147 188.56,-145.99 185.62,-144.74 182.74,-143.33"/>
<polygon fill="blue" stroke="blue" points="184.26,-140.17 173.81,-138.4 180.88,-146.3 184.26,-140.17"/>
<text text-anchor="middle" x="408.49" y="-160.8" font-family="Times,serif" font-size="14.00">recorder</text>
</g>
<!-- Consensus -->
<g id="node6" class="node">
<title>Consensus</title>
<polygon fill="lightgrey" stroke="black" points="544.49,-226 428.49,-226 428.49,-190 544.49,-190 544.49,-226"/>
<text text-anchor="middle" x="486.49" y="-204.3" font-family="Times,serif" font-size="14.00">EpochCreator</text>
</g>
<!-- Consensus&#45;&gt;Transcript -->
<g id="edge6" class="edge">
<title>Consensus&#45;&gt;Transcript</title>
<path fill="none" stroke="green" d="M500.06,-189.66C503.66,-184.27 507.19,-178.12 509.49,-172 512.18,-164.86 513.85,-156.8 514.88,-149.27"/>
<polygon fill="green" stroke="green" points="518.39,-149.44 515.96,-139.13 511.43,-148.7 518.39,-149.44"/>
<text text-anchor="middle" x="534.99" y="-160.8" font-family="Times,serif" font-size="14.00">epoch</text>
</g>
<!-- Consensus&#45;&gt;Collector -->
<g id="edge5" class="edge">
<title>Consensus&#45;&gt;Collector</title>
<path fill="none" stroke="darkgreen" d="M485.73,-226.3C484.91,-246.94 483.82,-282.49 484.49,-313 484.79,-326.43 485.42,-341.35 486.02,-353.78"/>
<polygon fill="darkgreen" stroke="darkgreen" points="482.53,-354.15 486.53,-363.96 489.52,-353.8 482.53,-354.15"/>
<text text-anchor="middle" x="514.49" y="-291.3" font-family="Times,serif" font-size="14.00">contract</text>
</g>
<!-- ConsensusInterface -->
<g id="node10" class="node">
<title>ConsensusInterface</title>
<polygon fill="lightgrey" stroke="black" points="361.49,-139 203.49,-139 203.49,-103 361.49,-103 361.49,-139"/>
<text text-anchor="middle" x="282.49" y="-117.3" font-family="Times,serif" font-size="14.00">ConsensusInterface</text>
</g>
<!-- Consensus&#45;&gt;ConsensusInterface -->
<g id="edge13" class="edge">
<title>Consensus&#45;&gt;ConsensusInterface</title>
<path fill="none" stroke="#008b8b" d="M466.13,-182.18C456.82,-171.42 446.54,-160.48 440.49,-157 428.08,-149.85 400.49,-142.84 371.77,-137"/>
<polygon fill="#008b8b" stroke="#008b8b" points="463.52,-184.52 472.66,-189.88 468.86,-179.99 463.52,-184.52"/>
<polygon fill="#008b8b" stroke="#008b8b" points="372.08,-133.49 361.59,-134.98 370.72,-140.36 372.08,-133.49"/>
<text text-anchor="middle" x="478.49" y="-160.8" font-family="Times,serif" font-size="14.00">gossip</text>
</g>
<!-- TVM -->
<g id="node8" class="node">
<title>TVM</title>
<polygon fill="lightgrey" stroke="black" points="607.49,-313 553.49,-313 553.49,-277 607.49,-277 607.49,-313"/>
<text text-anchor="middle" x="580.49" y="-291.3" font-family="Times,serif" font-size="14.00">TVM</text>
</g>
<!-- Collector&#45;&gt;TVM -->
<g id="edge3" class="edge">
<title>Collector&#45;&gt;TVM</title>
<path fill="none" stroke="green" d="M506.31,-363.8C520.05,-351.24 538.86,-334.05 554.1,-320.12"/>
<polygon fill="green" stroke="green" points="556.68,-322.51 561.7,-313.18 551.96,-317.34 556.68,-322.51"/>
<text text-anchor="middle" x="576.49" y="-334.8" font-family="Times,serif" font-size="14.00">contract&#45;S</text>
</g>
<!-- TVM&#45;&gt;Transcript -->
<g id="edge7" class="edge">
<title>TVM&#45;&gt;Transcript</title>
<path fill="none" stroke="red" d="M581.99,-276.62C583.51,-249.18 583.04,-195.05 560.49,-157 558.19,-153.12 555.29,-149.49 552.07,-146.16"/>
<polygon fill="red" stroke="red" points="554.38,-143.53 544.65,-139.36 549.65,-148.69 554.38,-143.53"/>
<text text-anchor="middle" x="611.99" y="-211.8" font-family="Times,serif" font-size="14.00">archives</text>
<text text-anchor="middle" x="611.99" y="-196.8" font-family="Times,serif" font-size="14.00">in/out</text>
</g>
<!-- TVM&#45;&gt;Consensus -->
<g id="edge4" class="edge">
<title>TVM&#45;&gt;Consensus</title>
<path fill="none" stroke="green" d="M553.34,-283.48C540.77,-277.64 526.26,-269.43 515.49,-259 508.58,-252.3 502.78,-243.61 498.22,-235.35"/>
<polygon fill="green" stroke="green" points="501.29,-233.65 493.62,-226.34 495.05,-236.84 501.29,-233.65"/>
<text text-anchor="middle" x="545.49" y="-247.8" font-family="Times,serif" font-size="14.00">contract</text>
</g>
<!-- DARTInterface -->
<g id="node9" class="node">
<title>DARTInterface</title>
<polygon fill="lightgrey" stroke="black" points="340.49,-226 218.49,-226 218.49,-190 340.49,-190 340.49,-226"/>
<text text-anchor="middle" x="279.49" y="-204.3" font-family="Times,serif" font-size="14.00">DARTInterface</text>
</g>
<!-- DARTInterface&#45;&gt;DART -->
<g id="edge10" class="edge">
<title>DARTInterface&#45;&gt;DART</title>
<path fill="none" stroke="magenta" d="M224.89,-189.81C213.63,-184.98 202.25,-179.07 192.49,-172 183.17,-165.24 174.64,-155.98 167.73,-147.26"/>
<polygon fill="magenta" stroke="magenta" points="170.45,-145.05 161.64,-139.17 164.86,-149.26 170.45,-145.05"/>
<text text-anchor="middle" x="234.49" y="-160.8" font-family="Times,serif" font-size="14.00">DART(crud)</text>
</g>
<!-- DARTInterface&#45;&gt;ConsensusInterface -->
<g id="edge8" class="edge">
<title>DARTInterface&#45;&gt;ConsensusInterface</title>
<path fill="none" stroke="magenta" d="M280.46,-179.73C280.8,-170.06 281.18,-159.17 281.52,-149.48"/>
<polygon fill="magenta" stroke="magenta" points="276.96,-179.68 280.1,-189.8 283.95,-179.93 276.96,-179.68"/>
<polygon fill="magenta" stroke="magenta" points="285.03,-149.29 281.89,-139.18 278.04,-149.05 285.03,-149.29"/>
<text text-anchor="middle" x="313.99" y="-160.8" font-family="Times,serif" font-size="14.00">DART(ro)</text>
</g>
<!-- ConsensusInterface&#45;&gt;P2P -->
<g id="edge9" class="edge">
<title>ConsensusInterface&#45;&gt;P2P</title>
<path fill="none" stroke="black" d="M282.49,-92.73C282.49,-83.06 282.49,-72.17 282.49,-62.48"/>
<polygon fill="black" stroke="black" points="278.99,-92.8 282.49,-102.8 285.99,-92.8 278.99,-92.8"/>
<polygon fill="black" stroke="black" points="285.99,-62.18 282.49,-52.18 278.99,-62.18 285.99,-62.18"/>
<text text-anchor="middle" x="318.99" y="-73.8" font-family="Times,serif" font-size="14.00">Document</text>
</g>
<!-- Replicator&#45;&gt;ConsensusInterface -->
<g id="edge15" class="edge">
<title>Replicator&#45;&gt;ConsensusInterface</title>
<path fill="none" stroke="black" d="M86.28,-189.78C90.98,-178.55 98.78,-164.62 110.49,-157 125.7,-147.11 173.7,-150.52 191.49,-147 199.38,-145.44 207.58,-143.56 215.69,-141.54"/>
<polygon fill="black" stroke="black" points="216.7,-144.89 225.51,-139.02 214.96,-138.11 216.7,-144.89"/>
<text text-anchor="middle" x="141.49" y="-160.8" font-family="Times,serif" font-size="14.00">recorder</text>
</g>
</g>
</svg>
