<?xml version="1.0" encoding="UTF-8" standalone="no"?>
<!DOCTYPE svg PUBLIC "-//W3C//DTD SVG 1.1//EN"
 "http://www.w3.org/Graphics/SVG/1.1/DTD/svg11.dtd">
<!-- Generated by graphviz version 7.0.6 (0)
 -->
<!-- Title: tagion_hierarchy Pages: 1 -->
<svg width="576pt" height="342pt"
 viewBox="0.00 0.00 576.00 342.39" xmlns="http://www.w3.org/2000/svg" xmlns:xlink="http://www.w3.org/1999/xlink">
<g id="graph0" class="graph" transform="scale(0.811839 0.811839) rotate(0) translate(4 417.74)">
<title>tagion_hierarchy</title>
<polygon fill="white" stroke="none" points="-4,4 -4,-417.74 705.5,-417.74 705.5,4 -4,4"/>
<!-- Tagionwave -->
<g id="node1" class="node">
<title>Tagionwave</title>
<ellipse fill="blue" stroke="blue" cx="408.5" cy="-395.74" rx="65.79" ry="18"/>
<text text-anchor="middle" x="408.5" y="-392.04" font-family="Times,serif" font-size="14.00">Tagionwave</text>
</g>
<!-- Logger -->
<g id="node8" class="node">
<title>Logger</title>
<polygon fill="lightgrey" stroke="black" points="327,-341.74 260,-341.74 260,-305.74 327,-305.74 327,-341.74"/>
<text text-anchor="middle" x="293.5" y="-320.04" font-family="Times,serif" font-size="14.00">Logger</text>
</g>
<!-- Tagionwave&#45;&gt;Logger -->
<g id="edge1" class="edge">
<title>Tagionwave&#45;&gt;Logger</title>
<path fill="none" stroke="black" d="M382.4,-378.86C367.34,-369.68 348.12,-357.99 331.41,-347.81"/>
<polygon fill="black" stroke="black" points="333.56,-345.03 323.2,-342.82 329.92,-351.01 333.56,-345.03"/>
</g>
<!-- TagionFactory -->
<g id="node10" class="node">
<title>TagionFactory</title>
<polygon fill="lightgrey" stroke="black" points="467.5,-341.74 349.5,-341.74 349.5,-305.74 467.5,-305.74 467.5,-341.74"/>
<text text-anchor="middle" x="408.5" y="-320.04" font-family="Times,serif" font-size="14.00">TagionFactory</text>
</g>
<!-- Tagionwave&#45;&gt;TagionFactory -->
<g id="edge3" class="edge">
<title>Tagionwave&#45;&gt;TagionFactory</title>
<path fill="none" stroke="black" d="M408.5,-377.44C408.5,-370.15 408.5,-361.47 408.5,-353.28"/>
<polygon fill="black" stroke="black" points="412,-353.36 408.5,-343.36 405,-353.36 412,-353.36"/>
</g>
<!-- Registration -->
<g id="node11" class="node">
<title>Registration</title>
<polygon fill="lightgrey" stroke="black" points="591,-341.74 486,-341.74 486,-305.74 591,-305.74 591,-341.74"/>
<text text-anchor="middle" x="538.5" y="-320.04" font-family="Times,serif" font-size="14.00">Registration</text>
</g>
<!-- Tagionwave&#45;&gt;Registration -->
<g id="edge4" class="edge">
<title>Tagionwave&#45;&gt;Registration</title>
<path fill="none" stroke="black" d="M437.35,-379.2C454.6,-369.92 476.82,-357.95 496.05,-347.6"/>
<polygon fill="black" stroke="black" points="497.59,-350.74 504.74,-342.92 494.28,-344.58 497.59,-350.74"/>
</g>
<!-- DART -->
<g id="node2" class="node">
<title>DART</title>
<path fill="lightgrey" stroke="black" d="M168,-185.6C168,-187.4 155.23,-188.87 139.5,-188.87 123.77,-188.87 111,-187.4 111,-185.6 111,-185.6 111,-156.14 111,-156.14 111,-154.34 123.77,-152.87 139.5,-152.87 155.23,-152.87 168,-154.34 168,-156.14 168,-156.14 168,-185.6 168,-185.6"/>
<path fill="none" stroke="black" d="M168,-185.6C168,-183.79 155.23,-182.32 139.5,-182.32 123.77,-182.32 111,-183.79 111,-185.6"/>
<text text-anchor="middle" x="139.5" y="-167.17" font-family="Times,serif" font-size="14.00">DART</text>
</g>
<!-- Recoder -->
<g id="node15" class="node">
<title>Recoder</title>
<polygon fill="lightgrey" stroke="black" points="75,-108 0,-108 0,-72 75,-72 75,-108"/>
<text text-anchor="middle" x="37.5" y="-86.3" font-family="Times,serif" font-size="14.00">Recoder</text>
</g>
<!-- DART&#45;&gt;Recoder -->
<g id="edge8" class="edge">
<title>DART&#45;&gt;Recoder</title>
<path fill="none" stroke="black" d="M117.87,-153.14C103.59,-142.11 84.66,-127.47 68.76,-115.17"/>
<polygon fill="black" stroke="black" points="71.05,-112.52 61,-109.17 66.77,-118.06 71.05,-112.52"/>
</g>
<!-- DARTSync -->
<g id="node16" class="node">
<title>DARTSync</title>
<polygon fill="lightgrey" stroke="black" points="185.5,-108 93.5,-108 93.5,-72 185.5,-72 185.5,-108"/>
<text text-anchor="middle" x="139.5" y="-86.3" font-family="Times,serif" font-size="14.00">DARTSync</text>
</g>
<!-- DART&#45;&gt;DARTSync -->
<g id="edge10" class="edge">
<title>DART&#45;&gt;DARTSync</title>
<path fill="none" stroke="black" d="M139.5,-152.76C139.5,-143.11 139.5,-130.8 139.5,-119.72"/>
<polygon fill="black" stroke="black" points="143,-119.87 139.5,-109.87 136,-119.87 143,-119.87"/>
</g>
<!-- Transaction -->
<g id="node3" class="node">
<title>Transaction</title>
<polygon fill="lightgrey" stroke="black" points="305,-102 204,-102 204,-78 305,-78 305,-102"/>
<polyline fill="none" stroke="black" points="207,-91.5 210,-88.5"/>
<polyline fill="none" stroke="black" points="207,-88.5 210,-91.5"/>
<polyline fill="none" stroke="black" points="207,-81 302,-81"/>
<text text-anchor="middle" x="254.5" y="-86.3" font-family="Times,serif" font-size="14.00">Transaction</text>
</g>
<!-- TLS -->
<g id="node7" class="node">
<title>TLS</title>
<ellipse fill="green" stroke="green" cx="254.5" cy="-18" rx="28.7" ry="18"/>
<text text-anchor="middle" x="254.5" y="-14.3" font-family="Times,serif" font-size="14.00">TLS</text>
</g>
<!-- Transaction&#45;&gt;TLS -->
<g id="edge18" class="edge">
<title>Transaction&#45;&gt;TLS</title>
<path fill="none" stroke="black" d="M254.5,-71.7C254.5,-64.41 254.5,-55.73 254.5,-47.54"/>
<polygon fill="black" stroke="black" points="258,-47.62 254.5,-37.62 251,-47.62 258,-47.62"/>
</g>
<!-- Transcript -->
<g id="node4" class="node">
<title>Transcript</title>
<polygon fill="lightgrey" stroke="black" points="408,-108 323,-108 323,-72 414,-72 414,-102 408,-108"/>
<polyline fill="none" stroke="black" points="408,-108 408,-102"/>
<polyline fill="none" stroke="black" points="414,-102 408,-102"/>
<text text-anchor="middle" x="368.5" y="-86.3" font-family="Times,serif" font-size="14.00">Transcript</text>
</g>
<!-- EpochDump -->
<g id="node17" class="node">
<title>EpochDump</title>
<polygon fill="lightgrey" stroke="black" points="420.5,-36 316.5,-36 316.5,0 420.5,0 420.5,-36"/>
<text text-anchor="middle" x="368.5" y="-14.3" font-family="Times,serif" font-size="14.00">EpochDump</text>
</g>
<!-- Transcript&#45;&gt;EpochDump -->
<g id="edge15" class="edge">
<title>Transcript&#45;&gt;EpochDump</title>
<path fill="none" stroke="black" d="M368.5,-71.7C368.5,-64.41 368.5,-55.73 368.5,-47.54"/>
<polygon fill="black" stroke="black" points="372,-47.62 368.5,-37.62 365,-47.62 372,-47.62"/>
</g>
<!-- Collector -->
<g id="node5" class="node">
<title>Collector</title>
<polygon fill="lightgrey" stroke="black" points="513,-108 432,-108 432,-72 513,-72 513,-108"/>
<text text-anchor="middle" x="472.5" y="-86.3" font-family="Times,serif" font-size="14.00">Collector</text>
</g>
<!-- TVM -->
<g id="node19" class="node">
<title>TVM</title>
<polygon fill="lightgrey" stroke="black" points="499.5,-36 445.5,-36 445.5,0 499.5,0 499.5,-36"/>
<text text-anchor="middle" x="472.5" y="-14.3" font-family="Times,serif" font-size="14.00">TVM</text>
</g>
<!-- Collector&#45;&gt;TVM -->
<g id="edge17" class="edge">
<title>Collector&#45;&gt;TVM</title>
<path fill="none" stroke="black" d="M472.5,-71.7C472.5,-64.41 472.5,-55.73 472.5,-47.54"/>
<polygon fill="black" stroke="black" points="476,-47.62 472.5,-37.62 469,-47.62 476,-47.62"/>
</g>
<!-- Consensus -->
<g id="node6" class="node">
<title>Consensus</title>
<ellipse fill="lightgrey" stroke="black" cx="413.5" cy="-170.87" rx="69.09" ry="26.74"/>
<text text-anchor="middle" x="413.5" y="-174.67" font-family="Times,serif" font-size="14.00">Consensus</text>
<text text-anchor="middle" x="413.5" y="-159.67" font-family="Times,serif" font-size="14.00">HashGraph</text>
</g>
<!-- Consensus&#45;&gt;Transaction -->
<g id="edge12" class="edge">
<title>Consensus&#45;&gt;Transaction</title>
<path fill="none" stroke="black" d="M371.72,-149.15C349.54,-138.14 322.26,-124.61 299.6,-113.37"/>
<polygon fill="black" stroke="black" points="301.42,-110.37 290.9,-109.06 298.31,-116.64 301.42,-110.37"/>
</g>
<!-- Consensus&#45;&gt;Transcript -->
<g id="edge13" class="edge">
<title>Consensus&#45;&gt;Transcript</title>
<path fill="none" stroke="black" d="M399.01,-144.48C394.19,-136.03 388.8,-126.59 383.91,-118.02"/>
<polygon fill="black" stroke="black" points="387.01,-116.39 379.02,-109.43 380.93,-119.85 387.01,-116.39"/>
</g>
<!-- Consensus&#45;&gt;Collector -->
<g id="edge14" class="edge">
<title>Consensus&#45;&gt;Collector</title>
<path fill="none" stroke="black" d="M432.17,-144.92C438.71,-136.17 446.08,-126.31 452.72,-117.44"/>
<polygon fill="black" stroke="black" points="455.46,-119.62 458.65,-109.52 449.85,-115.43 455.46,-119.62"/>
</g>
<!-- Monitor -->
<g id="node18" class="node">
<title>Monitor</title>
<polygon fill="lightgrey" stroke="black" points="605.5,-108 531.5,-108 531.5,-72 605.5,-72 605.5,-108"/>
<text text-anchor="middle" x="568.5" y="-86.3" font-family="Times,serif" font-size="14.00">Monitor</text>
</g>
<!-- Consensus&#45;&gt;Monitor -->
<g id="edge16" class="edge">
<title>Consensus&#45;&gt;Monitor</title>
<path fill="none" stroke="black" d="M454.63,-148.94C476.08,-138.03 502.33,-124.67 524.22,-113.53"/>
<polygon fill="black" stroke="black" points="525.58,-116.77 532.91,-109.11 522.41,-110.53 525.58,-116.77"/>
</g>
<!-- LoggerSubscription -->
<g id="node9" class="node">
<title>LoggerSubscription</title>
<polygon fill="lightgrey" stroke="black" points="363.5,-269.74 205.5,-269.74 205.5,-233.74 363.5,-233.74 363.5,-269.74"/>
<text text-anchor="middle" x="284.5" y="-248.04" font-family="Times,serif" font-size="14.00">LoggerSubscription</text>
</g>
<!-- Logger&#45;&gt;LoggerSubscription -->
<g id="edge2" class="edge">
<title>Logger&#45;&gt;LoggerSubscription</title>
<path fill="none" stroke="black" d="M291.28,-305.44C290.33,-298.06 289.2,-289.26 288.13,-280.99"/>
<polygon fill="black" stroke="black" points="291.64,-280.82 286.89,-271.35 284.7,-281.71 291.64,-280.82"/>
</g>
<!-- Tagion -->
<g id="node12" class="node">
<title>Tagion</title>
<polygon fill="lightgrey" stroke="black" points="445.5,-269.74 381.5,-269.74 381.5,-233.74 445.5,-233.74 445.5,-269.74"/>
<text text-anchor="middle" x="413.5" y="-248.04" font-family="Times,serif" font-size="14.00">Tagion</text>
</g>
<!-- TagionFactory&#45;&gt;Tagion -->
<g id="edge5" class="edge">
<title>TagionFactory&#45;&gt;Tagion</title>
<path fill="none" stroke="black" d="M409.74,-305.44C410.26,-298.15 410.88,-289.47 411.46,-281.28"/>
<polygon fill="black" stroke="black" points="414.95,-281.58 412.17,-271.35 407.97,-281.08 414.95,-281.58"/>
</g>
<!-- Tagion&#45;&gt;DART -->
<g id="edge9" class="edge">
<title>Tagion&#45;&gt;DART</title>
<path fill="none" stroke="black" d="M381.43,-236.97C378.43,-235.82 375.42,-234.73 372.5,-233.74 305.8,-211.17 226.14,-191.54 179.36,-180.74"/>
<polygon fill="black" stroke="black" points="180.2,-177.34 169.67,-178.52 178.64,-184.17 180.2,-177.34"/>
</g>
<!-- Tagion&#45;&gt;Consensus -->
<g id="edge11" class="edge">
<title>Tagion&#45;&gt;Consensus</title>
<path fill="none" stroke="black" d="M413.5,-233.63C413.5,-226.46 413.5,-217.83 413.5,-209.33"/>
<polygon fill="black" stroke="black" points="417,-209.47 413.5,-199.47 410,-209.47 417,-209.47"/>
</g>
<!-- P2P -->
<g id="node13" class="node">
<title>P2P</title>
<polygon fill="lightgrey" stroke="black" points="644.5,-188.87 590.5,-188.87 590.5,-152.87 644.5,-152.87 644.5,-188.87"/>
<text text-anchor="middle" x="617.5" y="-167.17" font-family="Times,serif" font-size="14.00">P2P</text>
</g>
<!-- Tagion&#45;&gt;P2P -->
<g id="edge6" class="edge">
<title>Tagion&#45;&gt;P2P</title>
<path fill="none" stroke="black" d="M445.82,-238.24C482.28,-224.15 541.48,-201.26 579.96,-186.38"/>
<polygon fill="black" stroke="black" points="580.75,-189.83 588.81,-182.96 578.22,-183.3 580.75,-189.83"/>
</g>
<!-- Network -->
<g id="node14" class="node">
<title>Network</title>
<polygon fill="lightgrey" stroke="black" points="701.5,-108 623.5,-108 623.5,-72 701.5,-72 701.5,-108"/>
<text text-anchor="middle" x="662.5" y="-86.3" font-family="Times,serif" font-size="14.00">Network</text>
</g>
<!-- P2P&#45;&gt;Network -->
<g id="edge7" class="edge">
<title>P2P&#45;&gt;Network</title>
<path fill="none" stroke="black" d="M627.26,-152.76C633,-142.7 640.39,-129.75 646.92,-118.31"/>
<polygon fill="black" stroke="black" points="649.93,-120.09 651.85,-109.67 643.85,-116.62 649.93,-120.09"/>
</g>
</g>
</svg>
