<?xml version="1.0" encoding="UTF-8" standalone="no"?>
<!DOCTYPE svg PUBLIC "-//W3C//DTD SVG 1.1//EN"
 "http://www.w3.org/Graphics/SVG/1.1/DTD/svg11.dtd">
<!-- Generated by graphviz version 2.43.0 (0)
 -->
<!-- Title: tagion_hierarchy Pages: 1 -->
<svg width="576pt" height="292pt"
 viewBox="0.00 0.00 576.00 292.34" xmlns="http://www.w3.org/2000/svg" xmlns:xlink="http://www.w3.org/1999/xlink">
<g id="graph0" class="graph" transform="scale(1.38 1.38) rotate(0) translate(4 400)">
<title>tagion_hierarchy</title>
<polygon fill="white" stroke="transparent" points="-4,4 -4,-400 792,-400 792,4 -4,4"/>
<!-- Tagionwave -->
<g id="node1" class="node">
<title>Tagionwave</title>
<ellipse fill="blue" stroke="blue" cx="477" cy="-378" rx="65.79" ry="18"/>
<text text-anchor="middle" x="477" y="-374.3" font-family="Times,serif" font-size="14.00">Tagionwave</text>
</g>
<!-- Logger -->
<g id="node8" class="node">
<title>Logger</title>
<polygon fill="lightgrey" stroke="black" points="395.5,-324 328.5,-324 328.5,-288 395.5,-288 395.5,-324"/>
<text text-anchor="middle" x="362" y="-302.3" font-family="Times,serif" font-size="14.00">Logger</text>
</g>
<!-- Tagionwave&#45;&gt;Logger -->
<g id="edge1" class="edge">
<title>Tagionwave&#45;&gt;Logger</title>
<path fill="none" stroke="black" d="M451.19,-361.29C435.74,-351.89 415.85,-339.78 398.77,-329.38"/>
<polygon fill="black" stroke="black" points="400.5,-326.34 390.14,-324.13 396.86,-332.32 400.5,-326.34"/>
</g>
<!-- TagionFactory -->
<g id="node10" class="node">
<title>TagionFactory</title>
<polygon fill="lightgrey" stroke="black" points="536,-324 418,-324 418,-288 536,-288 536,-324"/>
<text text-anchor="middle" x="477" y="-302.3" font-family="Times,serif" font-size="14.00">TagionFactory</text>
</g>
<!-- Tagionwave&#45;&gt;TagionFactory -->
<g id="edge3" class="edge">
<title>Tagionwave&#45;&gt;TagionFactory</title>
<path fill="none" stroke="black" d="M477,-359.7C477,-351.98 477,-342.71 477,-334.11"/>
<polygon fill="black" stroke="black" points="480.5,-334.1 477,-324.1 473.5,-334.1 480.5,-334.1"/>
</g>
<!-- Registration -->
<g id="node11" class="node">
<title>Registration</title>
<polygon fill="lightgrey" stroke="black" points="659.5,-324 554.5,-324 554.5,-288 659.5,-288 659.5,-324"/>
<text text-anchor="middle" x="607" y="-302.3" font-family="Times,serif" font-size="14.00">Registration</text>
</g>
<!-- Tagionwave&#45;&gt;Registration -->
<g id="edge4" class="edge">
<title>Tagionwave&#45;&gt;Registration</title>
<path fill="none" stroke="black" d="M505.53,-361.64C523.42,-352.01 546.76,-339.44 566.54,-328.79"/>
<polygon fill="black" stroke="black" points="568.2,-331.87 575.35,-324.04 564.88,-325.7 568.2,-331.87"/>
</g>
<!-- DART -->
<g id="node2" class="node">
<title>DART</title>
<path fill="lightgrey" stroke="black" d="M197.5,-176.73C197.5,-178.53 184.73,-180 169,-180 153.27,-180 140.5,-178.53 140.5,-176.73 140.5,-176.73 140.5,-147.27 140.5,-147.27 140.5,-145.47 153.27,-144 169,-144 184.73,-144 197.5,-145.47 197.5,-147.27 197.5,-147.27 197.5,-176.73 197.5,-176.73"/>
<path fill="none" stroke="black" d="M197.5,-176.73C197.5,-174.92 184.73,-173.45 169,-173.45 153.27,-173.45 140.5,-174.92 140.5,-176.73"/>
<text text-anchor="middle" x="169" y="-158.3" font-family="Times,serif" font-size="14.00">DART</text>
</g>
<!-- Replicator -->
<g id="node15" class="node">
<title>Replicator</title>
<polygon fill="lightgrey" stroke="black" points="90,-108 0,-108 0,-72 90,-72 90,-108"/>
<text text-anchor="middle" x="45" y="-86.3" font-family="Times,serif" font-size="14.00">Replicator</text>
</g>
<!-- DART&#45;&gt;Replicator -->
<g id="edge8" class="edge">
<title>DART&#45;&gt;Replicator</title>
<path fill="none" stroke="black" d="M141.17,-145.29C124.36,-135.8 102.67,-123.55 84.14,-113.1"/>
<polygon fill="black" stroke="black" points="85.77,-110 75.34,-108.13 82.33,-116.09 85.77,-110"/>
</g>
<!-- DARTInterface -->
<g id="node16" class="node">
<title>DARTInterface</title>
<polygon fill="lightgrey" stroke="black" points="230,-108 108,-108 108,-72 230,-72 230,-108"/>
<text text-anchor="middle" x="169" y="-86.3" font-family="Times,serif" font-size="14.00">DARTInterface</text>
</g>
<!-- DART&#45;&gt;DARTInterface -->
<g id="edge10" class="edge">
<title>DART&#45;&gt;DARTInterface</title>
<path fill="none" stroke="black" d="M169,-143.7C169,-135.98 169,-126.71 169,-118.11"/>
<polygon fill="black" stroke="black" points="172.5,-118.1 169,-108.1 165.5,-118.1 172.5,-118.1"/>
</g>
<!-- ContractInterface -->
<g id="node3" class="node">
<title>ContractInterface</title>
<polygon fill="lightgrey" stroke="black" points="391.5,-102 248.5,-102 248.5,-78 391.5,-78 391.5,-102"/>
<polyline fill="none" stroke="black" points="251.5,-91.5 254.5,-88.5 "/>
<polyline fill="none" stroke="black" points="251.5,-88.5 254.5,-91.5 "/>
<polyline fill="none" stroke="black" points="251.5,-81 388.5,-81 "/>
<text text-anchor="middle" x="320" y="-86.3" font-family="Times,serif" font-size="14.00">ContractInterface</text>
</g>
<!-- TLS -->
<g id="node7" class="node">
<title>TLS</title>
<polygon fill="green" stroke="green" points="347,-36 293,-36 293,0 347,0 347,-36"/>
<text text-anchor="middle" x="320" y="-14.3" font-family="Times,serif" font-size="14.00">TLS</text>
</g>
<!-- ContractInterface&#45;&gt;TLS -->
<g id="edge18" class="edge">
<title>ContractInterface&#45;&gt;TLS</title>
<path fill="none" stroke="black" d="M320,-71.7C320,-63.98 320,-54.71 320,-46.11"/>
<polygon fill="black" stroke="black" points="323.5,-46.1 320,-36.1 316.5,-46.1 323.5,-46.1"/>
</g>
<!-- Transcript -->
<g id="node4" class="node">
<title>Transcript</title>
<polygon fill="lightgrey" stroke="black" points="494.5,-108 409.5,-108 409.5,-72 500.5,-72 500.5,-102 494.5,-108"/>
<polyline fill="none" stroke="black" points="494.5,-108 494.5,-102 "/>
<polyline fill="none" stroke="black" points="500.5,-102 494.5,-102 "/>
<text text-anchor="middle" x="455" y="-86.3" font-family="Times,serif" font-size="14.00">Transcript</text>
</g>
<!-- EpochDump -->
<g id="node17" class="node">
<title>EpochDump</title>
<polygon fill="lightgrey" stroke="black" points="507,-36 403,-36 403,0 507,0 507,-36"/>
<text text-anchor="middle" x="455" y="-14.3" font-family="Times,serif" font-size="14.00">EpochDump</text>
</g>
<!-- Transcript&#45;&gt;EpochDump -->
<g id="edge15" class="edge">
<title>Transcript&#45;&gt;EpochDump</title>
<path fill="none" stroke="black" d="M455,-71.7C455,-63.98 455,-54.71 455,-46.11"/>
<polygon fill="black" stroke="black" points="458.5,-46.1 455,-36.1 451.5,-46.1 458.5,-46.1"/>
</g>
<!-- Collector -->
<g id="node5" class="node">
<title>Collector</title>
<polygon fill="lightgrey" stroke="black" points="599.5,-108 518.5,-108 518.5,-72 599.5,-72 599.5,-108"/>
<text text-anchor="middle" x="559" y="-86.3" font-family="Times,serif" font-size="14.00">Collector</text>
</g>
<!-- TVM -->
<g id="node19" class="node">
<title>TVM</title>
<polygon fill="lightgrey" stroke="black" points="586,-36 532,-36 532,0 586,0 586,-36"/>
<text text-anchor="middle" x="559" y="-14.3" font-family="Times,serif" font-size="14.00">TVM</text>
</g>
<!-- Collector&#45;&gt;TVM -->
<g id="edge17" class="edge">
<title>Collector&#45;&gt;TVM</title>
<path fill="none" stroke="black" d="M559,-71.7C559,-63.98 559,-54.71 559,-46.11"/>
<polygon fill="black" stroke="black" points="562.5,-46.1 559,-36.1 555.5,-46.1 562.5,-46.1"/>
</g>
<!-- Consensus -->
<g id="node6" class="node">
<title>Consensus</title>
<ellipse fill="lightgrey" stroke="black" cx="482" cy="-162" rx="75.29" ry="18"/>
<text text-anchor="middle" x="482" y="-158.3" font-family="Times,serif" font-size="14.00">EpochCreator</text>
</g>
<!-- Consensus&#45;&gt;ContractInterface -->
<g id="edge12" class="edge">
<title>Consensus&#45;&gt;ContractInterface</title>
<path fill="none" stroke="black" d="M447.25,-145.98C424.41,-136.12 394.2,-123.06 368.95,-112.15"/>
<polygon fill="black" stroke="black" points="370.1,-108.84 359.54,-108.08 367.33,-115.26 370.1,-108.84"/>
</g>
<!-- Consensus&#45;&gt;Transcript -->
<g id="edge13" class="edge">
<title>Consensus&#45;&gt;Transcript</title>
<path fill="none" stroke="black" d="M475.46,-144.05C472.43,-136.18 468.74,-126.62 465.33,-117.79"/>
<polygon fill="black" stroke="black" points="468.53,-116.35 461.66,-108.28 462,-118.86 468.53,-116.35"/>
</g>
<!-- Consensus&#45;&gt;Collector -->
<g id="edge14" class="edge">
<title>Consensus&#45;&gt;Collector</title>
<path fill="none" stroke="black" d="M500.25,-144.41C509.91,-135.63 521.95,-124.68 532.61,-114.99"/>
<polygon fill="black" stroke="black" points="535.03,-117.52 540.08,-108.2 530.33,-112.34 535.03,-117.52"/>
</g>
<!-- Monitor -->
<g id="node18" class="node">
<title>Monitor</title>
<polygon fill="lightgrey" stroke="black" points="692,-108 618,-108 618,-72 692,-72 692,-108"/>
<text text-anchor="middle" x="655" y="-86.3" font-family="Times,serif" font-size="14.00">Monitor</text>
</g>
<!-- Consensus&#45;&gt;Monitor -->
<g id="edge16" class="edge">
<title>Consensus&#45;&gt;Monitor</title>
<path fill="none" stroke="black" d="M518.69,-146.15C544.77,-135.6 580.03,-121.34 608.15,-109.96"/>
<polygon fill="black" stroke="black" points="609.81,-113.06 617.77,-106.07 607.18,-106.57 609.81,-113.06"/>
</g>
<!-- LoggerSubscription -->
<g id="node9" class="node">
<title>LoggerSubscription</title>
<polygon fill="lightgrey" stroke="black" points="432,-252 274,-252 274,-216 432,-216 432,-252"/>
<text text-anchor="middle" x="353" y="-230.3" font-family="Times,serif" font-size="14.00">LoggerSubscription</text>
</g>
<!-- Logger&#45;&gt;LoggerSubscription -->
<g id="edge2" class="edge">
<title>Logger&#45;&gt;LoggerSubscription</title>
<path fill="none" stroke="black" d="M359.78,-287.7C358.78,-279.98 357.59,-270.71 356.49,-262.11"/>
<polygon fill="black" stroke="black" points="359.95,-261.58 355.2,-252.1 353,-262.47 359.95,-261.58"/>
</g>
<!-- Tagion -->
<g id="node12" class="node">
<title>Tagion</title>
<polygon fill="lightgrey" stroke="black" points="514,-252 450,-252 450,-216 514,-216 514,-252"/>
<text text-anchor="middle" x="482" y="-230.3" font-family="Times,serif" font-size="14.00">Tagion</text>
</g>
<!-- TagionFactory&#45;&gt;Tagion -->
<g id="edge5" class="edge">
<title>TagionFactory&#45;&gt;Tagion</title>
<path fill="none" stroke="black" d="M478.24,-287.7C478.79,-279.98 479.45,-270.71 480.06,-262.11"/>
<polygon fill="black" stroke="black" points="483.56,-262.33 480.78,-252.1 476.57,-261.83 483.56,-262.33"/>
</g>
<!-- Tagion&#45;&gt;DART -->
<g id="edge9" class="edge">
<title>Tagion&#45;&gt;DART</title>
<path fill="none" stroke="black" d="M449.99,-219.02C446.98,-217.92 443.95,-216.89 441,-216 359.6,-191.46 260.97,-175.55 207.68,-168.04"/>
<polygon fill="black" stroke="black" points="208.03,-164.56 197.65,-166.65 207.07,-171.49 208.03,-164.56"/>
</g>
<!-- Tagion&#45;&gt;Consensus -->
<g id="edge11" class="edge">
<title>Tagion&#45;&gt;Consensus</title>
<path fill="none" stroke="black" d="M482,-215.7C482,-207.98 482,-198.71 482,-190.11"/>
<polygon fill="black" stroke="black" points="485.5,-190.1 482,-180.1 478.5,-190.1 485.5,-190.1"/>
</g>
<!-- ConsensusInterface -->
<g id="node13" class="node">
<title>ConsensusInterface</title>
<polygon fill="lightgrey" stroke="black" points="788,-180 630,-180 630,-144 788,-144 788,-180"/>
<text text-anchor="middle" x="709" y="-158.3" font-family="Times,serif" font-size="14.00">ConsensusInterface</text>
</g>
<!-- Tagion&#45;&gt;ConsensusInterface -->
<g id="edge6" class="edge">
<title>Tagion&#45;&gt;ConsensusInterface</title>
<path fill="none" stroke="black" d="M514.04,-223.12C547.6,-212.77 601.25,-196.23 643.78,-183.11"/>
<polygon fill="black" stroke="black" points="644.97,-186.41 653.5,-180.12 642.91,-179.72 644.97,-186.41"/>
</g>
<!-- P2P -->
<g id="node14" class="node">
<title>P2P</title>
<polygon fill="lightgrey" stroke="black" points="764,-108 710,-108 710,-72 764,-72 764,-108"/>
<text text-anchor="middle" x="737" y="-86.3" font-family="Times,serif" font-size="14.00">P2P</text>
</g>
<!-- ConsensusInterface&#45;&gt;P2P -->
<g id="edge7" class="edge">
<title>ConsensusInterface&#45;&gt;P2P</title>
<path fill="none" stroke="black" d="M715.92,-143.7C719.07,-135.81 722.88,-126.3 726.38,-117.55"/>
<polygon fill="black" stroke="black" points="729.69,-118.69 730.16,-108.1 723.19,-116.09 729.69,-118.69"/>
</g>
</g>
</svg>
