<svg width="334" height="101" viewBox="0 0 334 101" fill="none" xmlns="http://www.w3.org/2000/svg">
<path d="M135.136 25.6C135.376 25.6 135.568 25.696 135.712 25.888C135.904 26.032 136 26.224 136 26.464V33.52C136 33.76 135.904 33.976 135.712 34.168C135.568 34.312 135.376 34.384 135.136 34.384H124.192C123.952 34.384 123.832 34.504 123.832 34.744V75.136C123.832 75.376 123.736 75.592 123.544 75.784C123.4 75.928 123.208 76 122.968 76H114.544C114.304 76 114.088 75.928 113.896 75.784C113.752 75.592 113.68 75.376 113.68 75.136V34.744C113.68 34.504 113.56 34.384 113.32 34.384H102.736C102.496 34.384 102.28 34.312 102.088 34.168C101.944 33.976 101.872 33.76 101.872 33.52V26.464C101.872 26.224 101.944 26.032 102.088 25.888C102.28 25.696 102.496 25.6 102.736 25.6H135.136Z" fill="#130A54"/>
<path d="M168.385 76C167.857 76 167.521 75.76 167.377 75.28L165.721 68.224C165.673 68.032 165.553 67.936 165.361 67.936H151.897C151.705 67.936 151.585 68.032 151.537 68.224L149.881 75.28C149.737 75.76 149.425 76 148.945 76H140.233C139.609 76 139.369 75.688 139.513 75.064L152.473 26.32C152.617 25.84 152.953 25.6 153.481 25.6H163.921C164.449 25.6 164.785 25.84 164.929 26.32L177.889 75.064L177.961 75.352C177.961 75.784 177.697 76 177.169 76H168.385ZM153.481 59.656C153.433 59.8 153.457 59.92 153.553 60.016C153.649 60.064 153.745 60.088 153.841 60.088H163.345C163.441 60.088 163.537 60.064 163.633 60.016C163.729 59.92 163.753 59.8 163.705 59.656L158.737 38.776C158.689 38.584 158.617 38.488 158.521 38.488C158.425 38.488 158.353 38.584 158.305 38.776L153.481 59.656Z" fill="#130A54"/>
<path d="M201.838 76.576C198.574 76.576 195.694 75.928 193.198 74.632C190.702 73.336 188.758 71.512 187.366 69.16C186.022 66.76 185.35 64 185.35 60.88V40.648C185.35 37.528 186.022 34.792 187.366 32.44C188.758 30.088 190.702 28.264 193.198 26.968C195.694 25.672 198.574 25.024 201.838 25.024C205.054 25.024 207.91 25.672 210.406 26.968C212.95 28.216 214.894 29.992 216.238 32.296C217.63 34.552 218.326 37.12 218.326 40V41.584C218.326 41.824 218.23 42.04 218.038 42.232C217.894 42.376 217.702 42.448 217.462 42.448H209.038C208.798 42.448 208.582 42.376 208.39 42.232C208.246 42.04 208.174 41.824 208.174 41.584V40.072C208.174 38.248 207.598 36.736 206.446 35.536C205.294 34.336 203.758 33.736 201.838 33.736C199.918 33.736 198.358 34.36 197.158 35.608C196.006 36.856 195.43 38.488 195.43 40.504V61.096C195.43 63.112 196.03 64.744 197.23 65.992C198.478 67.24 200.086 67.864 202.054 67.864C203.926 67.864 205.414 67.312 206.518 66.208C207.67 65.104 208.246 63.592 208.246 61.672V57.208C208.246 56.968 208.126 56.848 207.886 56.848H202.27C202.03 56.848 201.814 56.776 201.622 56.632C201.478 56.44 201.406 56.224 201.406 55.984V49.432C201.406 49.192 201.478 49 201.622 48.856C201.814 48.664 202.03 48.568 202.27 48.568H217.462C217.702 48.568 217.894 48.664 218.038 48.856C218.23 49 218.326 49.192 218.326 49.432V60.88C218.326 65.68 216.814 69.496 213.79 72.328C210.814 75.16 206.83 76.576 201.838 76.576Z" fill="#130A54"/>
<path d="M230.281 76C230.041 76 229.825 75.928 229.633 75.784C229.489 75.592 229.417 75.376 229.417 75.136V26.464C229.417 26.224 229.489 26.032 229.633 25.888C229.825 25.696 230.041 25.6 230.281 25.6H238.705C238.945 25.6 239.137 25.696 239.281 25.888C239.473 26.032 239.569 26.224 239.569 26.464V75.136C239.569 75.376 239.473 75.592 239.281 75.784C239.137 75.928 238.945 76 238.705 76H230.281Z" fill="#130A54"/>
<path d="M267.295 76.648C263.983 76.648 261.055 75.976 258.511 74.632C256.015 73.288 254.071 71.392 252.679 68.944C251.287 66.496 250.591 63.64 250.591 60.376V41.224C250.591 38.008 251.287 35.176 252.679 32.728C254.071 30.28 256.015 28.384 258.511 27.04C261.055 25.696 263.983 25.024 267.295 25.024C270.607 25.024 273.535 25.696 276.079 27.04C278.623 28.384 280.591 30.28 281.983 32.728C283.375 35.176 284.071 38.008 284.071 41.224V60.376C284.071 63.64 283.375 66.496 281.983 68.944C280.591 71.392 278.623 73.288 276.079 74.632C273.535 75.976 270.607 76.648 267.295 76.648ZM267.295 67.936C269.311 67.936 270.919 67.288 272.119 65.992C273.319 64.648 273.919 62.92 273.919 60.808V40.936C273.919 38.776 273.319 37.048 272.119 35.752C270.919 34.408 269.311 33.736 267.295 33.736C265.327 33.736 263.743 34.408 262.543 35.752C261.343 37.048 260.743 38.776 260.743 40.936V60.808C260.743 62.92 261.343 64.648 262.543 65.992C263.743 67.288 265.327 67.936 267.295 67.936Z" fill="#130A54"/>
<path d="M319.918 26.464C319.918 26.224 319.99 26.032 320.134 25.888C320.326 25.696 320.542 25.6 320.782 25.6H329.134C329.374 25.6 329.566 25.696 329.71 25.888C329.902 26.032 329.998 26.224 329.998 26.464V75.136C329.998 75.376 329.902 75.592 329.71 75.784C329.566 75.928 329.374 76 329.134 76H320.35C319.87 76 319.534 75.784 319.342 75.352L305.59 46.048C305.494 45.904 305.398 45.832 305.302 45.832C305.206 45.832 305.158 45.928 305.158 46.12L305.23 75.136C305.23 75.376 305.134 75.592 304.942 75.784C304.798 75.928 304.606 76 304.366 76H296.014C295.774 76 295.558 75.928 295.366 75.784C295.222 75.592 295.15 75.376 295.15 75.136V26.464C295.15 26.224 295.222 26.032 295.366 25.888C295.558 25.696 295.774 25.6 296.014 25.6H304.726C305.206 25.6 305.542 25.816 305.734 26.248L319.486 55.552C319.582 55.696 319.678 55.768 319.774 55.768C319.87 55.768 319.918 55.672 319.918 55.48V26.464Z" fill="#130A54"/>
<rect y="10" width="82" height="82" rx="10" fill="white"/>
<path fill-rule="evenodd" clip-rule="evenodd" d="M2.92893 12.9289C0 15.8579 0 20.5719 0 30V72C0 81.4281 0 86.1421 2.92893 89.0711C5.85786 92 10.5719 92 20 92H62C71.4281 92 76.1421 92 79.0711 89.0711C82 86.1421 82 81.4281 82 72V30C82 20.5719 82 15.8579 79.0711 12.9289C76.1421 10 71.4281 10 62 10H20C10.5719 10 5.85786 10 2.92893 12.9289ZM33.73 35.825C41.7527 35.8034 50.0753 35.7926 50.4651 35.7926C53.3494 35.7926 55.5126 36.2212 56.9547 37.0785C58.3578 37.9747 59.0594 39.5918 59.0594 41.9298C59.0594 42.2415 59.0204 42.7481 58.9425 43.4495L58.0135 51.3541C57.9568 51.8144 57.5656 52.1603 57.1017 52.1603H51.2332C50.3214 52.1603 50.2421 51.8452 50.3214 51.1301L50.8159 46.7226C50.8549 46.4888 50.8744 46.1771 50.8744 45.7874C50.8744 43.8781 49.9389 42.9234 48.0681 42.9234H18.6831C18.4882 42.9234 18.3727 42.8469 18.2154 42.6896C18.0581 42.5323 18.04 42.4239 18.04 42.222L18.7649 36.7454C18.7649 36.6948 18.7684 36.644 18.7792 36.5946C18.871 36.1747 19.1196 35.9463 19.5249 35.9095C19.9722 35.8871 21.9836 35.868 25.676 35.8521C25.7725 35.8516 25.8638 35.7934 25.8638 35.6969L26.7408 28.7414C26.7798 28.5466 26.8577 28.3907 26.9746 28.2738C27.1305 28.1179 27.3059 28.04 27.5008 28.04H33.8735C34.0461 28.04 34.1882 28.1012 34.2996 28.2235C34.3289 28.2556 34.3579 28.2883 34.3841 28.323C34.4672 28.4332 34.4919 28.5727 34.4581 28.7414L33.5812 35.6969C33.5812 35.7747 33.6521 35.8252 33.73 35.825ZM30.7667 49.9935C31.6493 49.9935 31.7671 50.3512 31.6785 51.0237L31.1841 55.2774C31.1451 55.5112 31.1256 55.8229 31.1256 56.2126C31.1256 58.1219 32.0611 59.0766 33.9319 59.0766H63.3169C63.5118 59.0766 63.6273 59.1531 63.7846 59.3104C63.9419 59.4677 63.96 59.5761 63.96 59.778L63.2567 65.2546C63.2567 65.3052 63.2531 65.356 63.2423 65.4054C63.1505 65.8253 62.902 66.0537 62.4966 66.0905C62.0493 66.1129 60.0164 66.132 56.324 66.1479C56.2275 66.1484 56.1362 66.2066 56.1362 66.3031L55.2592 73.2586C55.2202 73.4534 55.1423 73.6093 55.0254 73.7262C54.8694 73.8821 54.6941 73.96 54.4992 73.96H48.1265C47.9539 73.96 47.8118 73.8988 47.7004 73.7765C47.6711 73.7444 47.6421 73.7117 47.6159 73.677C47.5328 73.5668 47.5081 73.4273 47.5419 73.2586L48.4188 66.3031C48.4188 66.2253 48.3479 66.1748 48.27 66.175C40.2473 66.1966 31.9247 66.2074 31.5349 66.2074C28.6506 66.2074 26.4874 65.7788 25.0453 64.9215C23.6422 64.0253 22.9406 62.4082 22.9406 60.0702C22.9406 59.7585 22.9796 59.2519 23.0575 58.5505L23.9864 50.7996C24.0431 50.3393 24.4343 49.9935 24.8982 49.9935H30.7667Z" fill="#130A54"/>
</svg>
